<svg xmlns="http://www.w3.org/2000/svg" xmlns:xlink="http://www.w3.org/1999/xlink" width="500" zoomAndPan="magnify" viewBox="0 0 375 374.999991" height="500" preserveAspectRatio="xMidYMid meet" version="1.2"><defs><clipPath id="955182623b"><path d="M 56.25 146 L 224 146 L 224 237 L 56.25 237 Z M 56.25 146 "/></clipPath></defs><g id="90174d2778"><path style=" stroke:none;fill-rule:nonzero;fill:#ffffff;fill-opacity:1;" d="M 186.984375 275.621094 C 185.847656 275.621094 184.722656 275.269531 183.765625 274.589844 C 182.324219 273.554688 181.46875 271.882812 181.46875 270.105469 L 181.46875 169.132812 C 181.46875 166.769531 182.96875 164.671875 185.210938 163.910156 L 271.535156 134.617188 C 273.199219 134.042969 275.074219 134.316406 276.519531 135.355469 C 277.96875 136.390625 278.824219 138.0625 278.824219 139.839844 L 278.824219 240.8125 C 278.824219 243.171875 277.320312 245.273438 275.082031 246.035156 L 188.753906 275.328125 C 188.179688 275.523438 187.582031 275.621094 186.984375 275.621094 Z M 192.5 173.085938 L 192.5 262.40625 L 267.792969 236.859375 L 267.792969 147.539062 Z M 192.5 173.085938 "/><path style=" stroke:none;fill-rule:nonzero;fill:#ffffff;fill-opacity:1;" d="M 186.984375 275.621094 C 186.386719 275.621094 185.789062 275.523438 185.210938 275.328125 L 98.886719 246.035156 C 96.644531 245.273438 95.140625 243.171875 95.140625 240.8125 L 95.140625 139.839844 C 95.140625 138.0625 96 136.390625 97.449219 135.355469 C 98.890625 134.316406 100.761719 134.046875 102.429688 134.617188 L 188.753906 163.910156 C 190.996094 164.671875 192.5 166.769531 192.5 169.132812 L 192.5 270.105469 C 192.5 271.882812 191.644531 273.554688 190.199219 274.589844 C 189.246094 275.269531 188.121094 275.621094 186.984375 275.621094 Z M 106.175781 236.859375 L 181.46875 262.40625 L 181.46875 173.085938 L 106.175781 147.539062 Z M 106.175781 236.859375 "/><path style=" stroke:none;fill-rule:nonzero;fill:#ffffff;fill-opacity:1;" d="M 100.660156 145.359375 C 98.488281 145.359375 96.425781 144.0625 95.550781 141.925781 C 94.398438 139.105469 95.75 135.886719 98.574219 134.734375 L 184.921875 99.460938 C 186.257812 98.914062 187.753906 98.914062 189.089844 99.460938 L 275.394531 134.734375 C 278.214844 135.886719 279.566406 139.105469 278.414062 141.925781 C 277.261719 144.746094 274.03125 146.097656 271.222656 144.945312 L 187.003906 110.523438 L 102.742188 144.945312 C 102.058594 145.222656 101.351562 145.359375 100.660156 145.359375 Z M 100.660156 145.359375 "/><path style=" stroke:none;fill-rule:nonzero;fill:#ffffff;fill-opacity:1;" d="M 253.226562 152.195312 L 253.167969 152.195312 C 250.117188 152.195312 247.652344 149.726562 247.652344 146.679688 C 247.652344 143.632812 250.117188 141.164062 253.167969 141.164062 C 256.214844 141.164062 258.710938 143.632812 258.710938 146.679688 C 258.710938 149.726562 256.273438 152.195312 253.226562 152.195312 Z M 253.226562 152.195312 "/><path style=" stroke:none;fill-rule:nonzero;fill:#ffffff;fill-opacity:1;" d="M 265.296875 226.292969 C 262.90625 226.292969 260.703125 224.730469 260.003906 222.320312 C 259.152344 219.394531 260.828125 216.332031 263.75 215.480469 C 266.417969 214.703125 268.976562 213.925781 271.476562 213.039062 C 293.679688 205.386719 306.90625 195.007812 306.90625 185.257812 C 306.90625 175.503906 293.679688 165.125 271.53125 157.496094 C 268.648438 156.503906 267.117188 153.367188 268.109375 150.484375 C 269.101562 147.605469 272.253906 146.082031 275.117188 147.066406 C 302.730469 156.574219 317.9375 170.136719 317.9375 185.257812 C 317.9375 200.375 302.730469 213.9375 275.125 223.449219 C 272.480469 224.390625 269.714844 225.234375 266.84375 226.070312 C 266.328125 226.222656 265.808594 226.292969 265.296875 226.292969 Z M 265.296875 226.292969 "/><g clip-rule="nonzero" clip-path="url(#955182623b)"><path style=" stroke:none;fill-rule:nonzero;fill:#ffffff;fill-opacity:1;" d="M 186.984375 236.242188 C 154.074219 236.242188 122.777344 231.703125 98.859375 223.46875 C 71.234375 213.925781 56.027344 200.363281 56.027344 185.269531 C 56.027344 170.179688 71.234375 156.613281 98.855469 147.070312 C 101.714844 146.078125 104.867188 147.605469 105.867188 150.484375 C 106.863281 153.363281 105.335938 156.503906 102.453125 157.5 C 80.289062 165.15625 67.058594 175.539062 67.058594 185.269531 C 67.058594 195 80.289062 205.382812 102.453125 213.039062 C 125.246094 220.886719 155.265625 225.207031 186.984375 225.207031 C 197.417969 225.207031 207.761719 224.738281 217.714844 223.816406 C 220.871094 223.515625 223.4375 225.765625 223.722656 228.796875 C 224.003906 231.832031 221.773438 234.519531 218.738281 234.800781 C 208.4375 235.757812 197.757812 236.242188 186.984375 236.242188 Z M 186.984375 236.242188 "/></g><path style=" stroke:none;fill-rule:nonzero;fill:#ffffff;fill-opacity:1;" d="M 215.464844 246.113281 L 241.769531 226.183594 L 211.359375 213.363281 Z M 215.464844 246.113281 "/><g style="fill:#ffffff;fill-opacity:1;"><g transform="translate(186.88007, 178.958462)"><path style="stroke:none" d="M 0.25 -0.453125 C 0.289062 -0.453125 0.320312 -0.460938 0.34375 -0.484375 C 0.375 -0.503906 0.390625 -0.53125 0.390625 -0.5625 C 0.390625 -0.601562 0.375 -0.632812 0.34375 -0.65625 C 0.320312 -0.675781 0.296875 -0.6875 0.265625 -0.6875 C 0.234375 -0.6875 0.207031 -0.671875 0.1875 -0.640625 C 0.164062 -0.617188 0.15625 -0.59375 0.15625 -0.5625 L 0.078125 -0.5625 C 0.078125 -0.59375 0.0859375 -0.625 0.109375 -0.65625 C 0.128906 -0.6875 0.148438 -0.707031 0.171875 -0.71875 C 0.203125 -0.738281 0.234375 -0.75 0.265625 -0.75 C 0.304688 -0.75 0.335938 -0.738281 0.359375 -0.71875 C 0.390625 -0.707031 0.410156 -0.6875 0.421875 -0.65625 C 0.441406 -0.625 0.453125 -0.59375 0.453125 -0.5625 C 0.453125 -0.53125 0.445312 -0.503906 0.4375 -0.484375 C 0.425781 -0.460938 0.40625 -0.441406 0.375 -0.421875 C 0.414062 -0.398438 0.445312 -0.367188 0.46875 -0.328125 C 0.488281 -0.296875 0.5 -0.265625 0.5 -0.234375 C 0.5 -0.179688 0.488281 -0.132812 0.46875 -0.09375 C 0.457031 -0.0625 0.429688 -0.0351562 0.390625 -0.015625 C 0.359375 0.00390625 0.320312 0.015625 0.28125 0.015625 C 0.238281 0.015625 0.195312 0.00390625 0.15625 -0.015625 C 0.125 -0.0351562 0.09375 -0.0625 0.0625 -0.09375 C 0.0390625 -0.132812 0.03125 -0.179688 0.03125 -0.234375 L 0.109375 -0.234375 C 0.109375 -0.191406 0.113281 -0.15625 0.125 -0.125 C 0.144531 -0.101562 0.164062 -0.0820312 0.1875 -0.0625 C 0.21875 -0.0507812 0.242188 -0.046875 0.265625 -0.046875 C 0.316406 -0.046875 0.359375 -0.0625 0.390625 -0.09375 C 0.421875 -0.132812 0.4375 -0.175781 0.4375 -0.21875 C 0.4375 -0.25 0.425781 -0.273438 0.40625 -0.296875 C 0.394531 -0.328125 0.375 -0.347656 0.34375 -0.359375 C 0.3125 -0.378906 0.28125 -0.390625 0.25 -0.390625 L 0.21875 -0.390625 L 0.21875 -0.453125 Z M 0.25 -0.453125 "/></g></g><g style="fill:#ffffff;fill-opacity:1;"><g transform="translate(187.434185, 178.958462)"><path style="stroke:none" d="M 0.546875 -0.09375 C 0.523438 -0.0625 0.492188 -0.0351562 0.453125 -0.015625 C 0.410156 0.00390625 0.367188 0.015625 0.328125 0.015625 C 0.273438 0.015625 0.222656 0.00390625 0.171875 -0.015625 C 0.128906 -0.046875 0.09375 -0.0820312 0.0625 -0.125 C 0.0390625 -0.164062 0.03125 -0.21875 0.03125 -0.28125 C 0.03125 -0.332031 0.046875 -0.378906 0.078125 -0.421875 C 0.109375 -0.460938 0.144531 -0.492188 0.1875 -0.515625 C 0.226562 -0.546875 0.273438 -0.5625 0.328125 -0.5625 C 0.367188 -0.5625 0.410156 -0.550781 0.453125 -0.53125 C 0.492188 -0.507812 0.523438 -0.484375 0.546875 -0.453125 L 0.546875 -0.734375 L 0.625 -0.734375 L 0.625 0 L 0.546875 0 Z M 0.546875 -0.265625 C 0.546875 -0.304688 0.535156 -0.34375 0.515625 -0.375 C 0.503906 -0.414062 0.476562 -0.445312 0.4375 -0.46875 C 0.40625 -0.488281 0.367188 -0.5 0.328125 -0.5 C 0.285156 -0.5 0.25 -0.488281 0.21875 -0.46875 C 0.1875 -0.445312 0.160156 -0.421875 0.140625 -0.390625 C 0.117188 -0.359375 0.109375 -0.316406 0.109375 -0.265625 C 0.109375 -0.222656 0.117188 -0.1875 0.140625 -0.15625 C 0.160156 -0.125 0.1875 -0.0976562 0.21875 -0.078125 C 0.25 -0.0546875 0.285156 -0.046875 0.328125 -0.046875 C 0.367188 -0.046875 0.40625 -0.0546875 0.4375 -0.078125 C 0.476562 -0.0976562 0.503906 -0.125 0.515625 -0.15625 C 0.535156 -0.195312 0.546875 -0.234375 0.546875 -0.265625 Z M 0.546875 -0.265625 "/></g></g></g></svg>