<svg xmlns="http://www.w3.org/2000/svg" xmlns:xlink="http://www.w3.org/1999/xlink" width="500" zoomAndPan="magnify" viewBox="0 0 375 374.999991" height="500" preserveAspectRatio="xMidYMid meet" version="1.2"><defs><clipPath id="0f3fe1ef54"><path d="M 217 61.335938 L 296 61.335938 L 296 139 L 217 139 Z M 217 61.335938 "/></clipPath><clipPath id="4e07682e03"><path d="M 87 104 L 252 104 L 252 313.335938 L 87 313.335938 Z M 87 104 "/></clipPath></defs><g id="79d43c11f1"><g clip-rule="nonzero" clip-path="url(#0f3fe1ef54)"><path style=" stroke:none;fill-rule:nonzero;fill:#ffffff;fill-opacity:1;" d="M 220.800781 61.335938 C 219.242188 61.335938 217.6875 62.5 217.6875 64.058594 C 217.6875 65.613281 218.855469 67.167969 220.800781 67.167969 C 258.523438 67.167969 289.242188 97.890625 289.242188 135.613281 C 289.242188 137.167969 290.410156 138.722656 292.355469 138.722656 C 293.910156 138.722656 295.464844 137.558594 295.464844 135.613281 C 295.078125 94.777344 261.632812 61.335938 220.800781 61.335938 Z M 220.800781 61.335938 "/></g><path style=" stroke:none;fill-rule:nonzero;fill:#ffffff;fill-opacity:1;" d="M 224.300781 81.558594 C 222.742188 81.558594 221.1875 82.722656 221.1875 84.667969 C 221.1875 86.222656 222.355469 87.777344 224.300781 87.777344 C 249.1875 87.777344 269.410156 108 269.410156 132.890625 C 269.410156 134.445312 270.578125 136 272.523438 136 C 274.078125 136 275.632812 134.835938 275.632812 132.890625 C 274.855469 104.113281 252.300781 81.558594 224.300781 81.558594 Z M 224.300781 81.558594 "/><path style=" stroke:none;fill-rule:nonzero;fill:#ffffff;fill-opacity:1;" d="M 227.800781 101.390625 C 226.242188 101.390625 224.6875 102.558594 224.6875 104.5 C 224.6875 106.058594 225.855469 107.613281 227.800781 107.613281 C 239.464844 107.613281 249.1875 117.335938 249.1875 129 C 249.1875 130.558594 250.355469 132.113281 252.300781 132.113281 C 253.855469 132.113281 255.410156 130.945312 255.410156 129 C 255.023438 113.835938 242.578125 101.390625 227.800781 101.390625 Z M 227.800781 101.390625 "/><g clip-rule="nonzero" clip-path="url(#4e07682e03)"><path style=" stroke:none;fill-rule:nonzero;fill:#ffffff;fill-opacity:1;" d="M 209.910156 150.777344 C 216.132812 155.058594 224.6875 154.667969 230.523438 148.835938 C 236.742188 142.613281 236.742188 132.5 230.523438 126.277344 C 224.300781 120.058594 214.1875 120.058594 207.964844 126.277344 C 202.523438 131.722656 201.742188 140.277344 206.023438 146.5 L 200.578125 151.945312 C 187.742188 139.5 140.300781 96.335938 125.523438 106.058594 C 125.132812 106.058594 124.742188 106.445312 124.355469 106.835938 C 91.300781 139.890625 87.800781 197.058594 130.578125 235.558594 L 113.078125 283.390625 L 97.910156 283.390625 C 92.078125 283.390625 87.410156 288.058594 87.410156 293.890625 L 87.410156 310.222656 C 87.410156 311.777344 88.578125 313.335938 90.523438 313.335938 L 217.300781 313.335938 C 218.855469 313.335938 220.410156 312.167969 220.410156 310.222656 L 220.410156 293.890625 C 220.410156 288.058594 215.742188 283.390625 209.910156 283.390625 L 194.742188 283.390625 L 184.632812 257.335938 C 185.800781 257.335938 186.964844 257.335938 188.132812 257.335938 C 211.855469 257.335938 234.410156 247.222656 249.578125 232.058594 C 260.855469 220.777344 229.742188 181.113281 204.855469 155.835938 Z M 211.855469 130.167969 C 215.742188 126.277344 222.355469 126.277344 226.242188 130.167969 C 230.132812 134.058594 230.132812 140.667969 226.242188 144.558594 C 222.355469 148.445312 215.742188 148.445312 211.855469 144.558594 C 207.964844 140.667969 207.964844 134.058594 211.855469 130.167969 Z M 214.1875 293.890625 L 214.1875 307.5 L 93.242188 307.5 L 93.242188 293.890625 C 93.242188 291.167969 95.1875 289.222656 97.910156 289.222656 C 156.242188 289.222656 181.523438 289.222656 209.132812 289.222656 C 211.855469 289.222656 214.1875 291.558594 214.1875 293.890625 Z M 188.132812 283.390625 L 119.300781 283.390625 L 135.242188 239.445312 C 147.6875 249.167969 162.464844 255 178.023438 256.945312 Z M 188.132812 251.5 C 121.242188 251.5 79.242188 171.390625 122.410156 117.335938 C 123.578125 122.777344 126.6875 129.390625 132.132812 137.945312 C 141.078125 151.945312 155.078125 169.058594 171.410156 185.390625 C 197.464844 211.445312 223.910156 230.5 238.6875 234 C 224.300781 245.277344 206.800781 251.5 188.132812 251.5 Z M 245.300781 227.777344 C 244.523438 228.558594 243.355469 228.558594 242.578125 228.558594 C 232.855469 228.558594 206.023438 211.835938 174.910156 181.113281 C 133.6875 139.5 127.464844 116.558594 128.242188 117.722656 C 127.078125 113.835938 127.464844 111.890625 128.242188 111.113281 C 128.632812 110.722656 129.800781 110.335938 130.578125 110.335938 C 140.300781 110.335938 167.132812 127.058594 198.242188 157.777344 C 233.242188 193.167969 249.1875 222.335938 245.300781 227.777344 Z M 245.300781 227.777344 "/></g><g style="fill:#ffffff;fill-opacity:1;"><g transform="translate(186.595509, 178.958462)"><path style="stroke:none" d="M 0.015625 -0.484375 L 0.015625 -0.546875 L 0.125 -0.546875 L 0.125 -0.734375 L 0.203125 -0.734375 L 0.203125 -0.546875 L 0.328125 -0.546875 L 0.328125 -0.484375 L 0.203125 -0.484375 L 0.203125 0 L 0.125 0 L 0.125 -0.484375 Z M 0.015625 -0.484375 "/></g></g><g style="fill:#ffffff;fill-opacity:1;"><g transform="translate(186.93458, 178.958462)"><path style="stroke:none" d="M 0.328125 -0.046875 C 0.367188 -0.046875 0.40625 -0.0546875 0.4375 -0.078125 C 0.476562 -0.109375 0.503906 -0.140625 0.515625 -0.171875 L 0.59375 -0.171875 C 0.570312 -0.117188 0.535156 -0.0703125 0.484375 -0.03125 C 0.429688 0 0.378906 0.015625 0.328125 0.015625 C 0.273438 0.015625 0.222656 0.00390625 0.171875 -0.015625 C 0.128906 -0.046875 0.09375 -0.0820312 0.0625 -0.125 C 0.0390625 -0.164062 0.03125 -0.210938 0.03125 -0.265625 C 0.03125 -0.316406 0.0390625 -0.363281 0.0625 -0.40625 C 0.09375 -0.457031 0.128906 -0.492188 0.171875 -0.515625 C 0.222656 -0.546875 0.273438 -0.5625 0.328125 -0.5625 C 0.378906 -0.5625 0.425781 -0.546875 0.46875 -0.515625 C 0.507812 -0.492188 0.539062 -0.457031 0.5625 -0.40625 C 0.59375 -0.363281 0.609375 -0.316406 0.609375 -0.265625 L 0.609375 -0.25 L 0.109375 -0.25 C 0.109375 -0.207031 0.117188 -0.171875 0.140625 -0.140625 C 0.160156 -0.117188 0.1875 -0.0976562 0.21875 -0.078125 C 0.25 -0.0546875 0.285156 -0.046875 0.328125 -0.046875 Z M 0.328125 -0.5 C 0.285156 -0.5 0.25 -0.488281 0.21875 -0.46875 C 0.195312 -0.457031 0.175781 -0.4375 0.15625 -0.40625 C 0.132812 -0.375 0.117188 -0.34375 0.109375 -0.3125 L 0.53125 -0.3125 C 0.519531 -0.363281 0.492188 -0.40625 0.453125 -0.4375 C 0.421875 -0.476562 0.378906 -0.5 0.328125 -0.5 Z M 0.328125 -0.5 "/></g></g><g style="fill:#ffffff;fill-opacity:1;"><g transform="translate(187.584715, 178.958462)"><path style="stroke:none" d="M 0.09375 0 L 0.015625 0 L 0.203125 -0.28125 L 0.015625 -0.546875 L 0.09375 -0.546875 L 0.234375 -0.34375 L 0.390625 -0.546875 L 0.46875 -0.546875 L 0.28125 -0.28125 L 0.46875 0 L 0.390625 0 L 0.234375 -0.21875 Z M 0.09375 0 "/></g></g><g style="fill:#ffffff;fill-opacity:1;"><g transform="translate(188.064816, 178.958462)"><path style="stroke:none" d="M 0.015625 -0.484375 L 0.015625 -0.546875 L 0.125 -0.546875 L 0.125 -0.734375 L 0.203125 -0.734375 L 0.203125 -0.546875 L 0.328125 -0.546875 L 0.328125 -0.484375 L 0.203125 -0.484375 L 0.203125 0 L 0.125 0 L 0.125 -0.484375 Z M 0.015625 -0.484375 "/></g></g></g></svg>