<svg xmlns="http://www.w3.org/2000/svg" xmlns:xlink="http://www.w3.org/1999/xlink" width="1800" zoomAndPan="magnify" viewBox="0 0 1350 675.000002" height="900" preserveAspectRatio="xMidYMid meet" version="1.2"><defs/><g id="156e2e6961"><g style="fill:#eb920d;fill-opacity:1;"><g transform="translate(1.043145, 403.404603)"><path style="stroke:none" d="M 118.25 -164 C 107.65625 -164 98.128906 -161.253906 89.671875 -155.765625 C 81.210938 -150.285156 74.65625 -142.941406 70 -133.734375 C 65.351562 -124.535156 63.03125 -114.539062 63.03125 -103.75 C 63.03125 -92.59375 65.398438 -82.316406 70.140625 -72.921875 C 74.878906 -63.535156 81.476562 -56.097656 89.9375 -50.609375 C 98.40625 -45.128906 107.9375 -42.390625 118.53125 -42.390625 C 129.132812 -42.390625 138.710938 -45.363281 147.265625 -51.3125 C 155.816406 -57.269531 162.789062 -65.914062 168.1875 -77.25 L 223.40625 -77.25 C 219.125 -60.894531 211.867188 -46.625 201.640625 -34.4375 C 191.421875 -22.257812 179.148438 -12.820312 164.828125 -6.125 C 150.515625 0.5625 135.269531 3.90625 119.09375 3.90625 C 104.40625 3.90625 90.503906 1.300781 77.390625 -3.90625 C 64.285156 -9.113281 52.523438 -16.828125 42.109375 -27.046875 C 31.140625 -37.648438 23.097656 -49.503906 17.984375 -62.609375 C 12.867188 -75.722656 10.3125 -90.273438 10.3125 -106.265625 C 10.3125 -124.296875 15.050781 -141.304688 24.53125 -157.296875 C 34.019531 -173.296875 46.945312 -186.128906 63.3125 -195.796875 C 79.675781 -205.460938 97.429688 -210.296875 116.578125 -210.296875 C 130.898438 -210.296875 143.914062 -208.25 155.625 -204.15625 C 167.34375 -200.070312 178.316406 -193.660156 188.546875 -184.921875 C 208.253906 -167.992188 219.875 -149.023438 223.40625 -128.015625 L 168.1875 -128.015625 C 163.71875 -139.171875 156.972656 -147.957031 147.953125 -154.375 C 138.941406 -160.789062 129.039062 -164 118.25 -164 Z M 118.25 -164 "/></g></g><g style="fill:#eb920d;fill-opacity:1;"><g transform="translate(233.080951, 403.404603)"><path style="stroke:none" d="M 0.28125 -154.796875 L 49.640625 -154.796875 L 80.609375 -64.984375 L 81.15625 -64.984375 L 110.71875 -154.796875 L 159.8125 -154.796875 L 82.28125 51.59375 L 33.1875 51.59375 L 57.734375 -7.8125 Z M 0.28125 -154.796875 "/></g></g><g style="fill:#eb920d;fill-opacity:1;"><g transform="translate(393.164724, 403.404603)"><path style="stroke:none" d="M 63.03125 -206.390625 L 63.03125 -142.515625 C 74 -154.234375 88.6875 -160.09375 107.09375 -160.09375 C 120.664062 -160.09375 133.351562 -156.789062 145.15625 -150.1875 C 156.96875 -143.59375 166.40625 -134.113281 173.46875 -121.75 C 180.539062 -109.382812 184.078125 -94.925781 184.078125 -78.375 C 184.078125 -62.570312 180.867188 -48.300781 174.453125 -35.5625 C 168.035156 -22.820312 158.921875 -12.828125 147.109375 -5.578125 C 135.304688 1.671875 121.597656 5.296875 105.984375 5.296875 C 96.503906 5.296875 87.625 3.300781 79.34375 -0.6875 C 71.070312 -4.6875 65.171875 -9.941406 61.640625 -16.453125 L 61.078125 -16.453125 L 61.078125 0 L 16.734375 0 L 16.734375 -206.390625 Z M 137.78125 -77.53125 C 137.78125 -84.414062 136.148438 -90.878906 132.890625 -96.921875 C 129.640625 -102.960938 125.085938 -107.796875 119.234375 -111.421875 C 113.378906 -115.046875 106.820312 -116.859375 99.5625 -116.859375 C 92.5 -116.859375 86.039062 -115.09375 80.1875 -111.5625 C 74.332031 -108.03125 69.726562 -103.285156 66.375 -97.328125 C 63.03125 -91.378906 61.359375 -84.875 61.359375 -77.8125 C 61.359375 -66.46875 64.9375 -56.984375 72.09375 -49.359375 C 79.25 -41.742188 88.222656 -37.9375 99.015625 -37.9375 C 106.078125 -37.9375 112.582031 -39.703125 118.53125 -43.234375 C 124.476562 -46.765625 129.171875 -51.550781 132.609375 -57.59375 C 136.054688 -63.632812 137.78125 -70.28125 137.78125 -77.53125 Z M 137.78125 -77.53125 "/></g></g><g style="fill:#eb920d;fill-opacity:1;"><g transform="translate(586.436613, 403.404603)"><path style="stroke:none" d="M 90.359375 -34.03125 C 96.492188 -34.03125 101.742188 -35.191406 106.109375 -37.515625 C 110.484375 -39.835938 114.625 -43.507812 118.53125 -48.53125 L 165.953125 -48.53125 C 158.515625 -31.613281 148.144531 -18.457031 134.84375 -9.0625 C 121.550781 0.320312 106.722656 5.015625 90.359375 5.015625 C 75.671875 5.015625 62.050781 1.390625 49.5 -5.859375 C 36.957031 -13.109375 26.96875 -23.007812 19.53125 -35.5625 C 12.09375 -48.113281 8.375 -61.921875 8.375 -76.984375 C 8.375 -91.671875 12 -105.378906 19.25 -118.109375 C 26.5 -130.847656 36.304688 -141.03125 48.671875 -148.65625 C 61.035156 -156.28125 74.65625 -160.09375 89.53125 -160.09375 C 104.78125 -160.09375 118.628906 -156.375 131.078125 -148.9375 C 143.535156 -141.5 153.34375 -131.363281 160.5 -118.53125 C 167.664062 -105.707031 171.25 -91.390625 171.25 -75.578125 C 171.25 -71.117188 170.878906 -67.03125 170.140625 -63.3125 L 54.109375 -63.3125 C 55.410156 -54.570312 59.40625 -47.503906 66.09375 -42.109375 C 72.789062 -36.722656 80.878906 -34.03125 90.359375 -34.03125 Z M 89.53125 -121.046875 C 80.976562 -121.046875 73.492188 -118.675781 67.078125 -113.9375 C 60.660156 -109.195312 56.523438 -102.734375 54.671875 -94.546875 L 124.953125 -94.546875 C 123.085938 -102.546875 118.945312 -108.960938 112.53125 -113.796875 C 106.125 -118.628906 98.457031 -121.046875 89.53125 -121.046875 Z M 89.53125 -121.046875 "/></g></g><g style="fill:#eb920d;fill-opacity:1;"><g transform="translate(766.600543, 403.404603)"><path style="stroke:none" d="M 59.96875 -154.796875 L 59.96875 -138.34375 L 60.515625 -138.34375 C 64.421875 -146.332031 69.535156 -151.953125 75.859375 -155.203125 C 82.179688 -158.460938 89.992188 -160.09375 99.296875 -160.09375 L 99.296875 -113.515625 C 86.085938 -113.328125 76.691406 -110.910156 71.109375 -106.265625 C 65.535156 -101.617188 62.75 -94.644531 62.75 -85.34375 L 62.75 0 L 16.453125 0 L 16.453125 -154.796875 Z M 59.96875 -154.796875 "/></g></g><g style="fill:#04a1c4;fill-opacity:1;"><g transform="translate(867.841125, 403.404603)"><path style="stroke:none" d="M 69.171875 -66.65625 L 69.171875 0 L 18.6875 0 L 18.6875 -206.390625 L 86.1875 -206.390625 C 107.195312 -206.390625 123.460938 -203.878906 134.984375 -198.859375 C 146.328125 -193.835938 155.484375 -185.609375 162.453125 -174.171875 C 169.429688 -162.742188 172.921875 -149.773438 172.921875 -135.265625 C 172.921875 -118.722656 168.269531 -104.453125 158.96875 -92.453125 C 149.675781 -80.460938 137.222656 -73.070312 121.609375 -70.28125 L 177.65625 0 L 117.421875 0 L 69.734375 -66.65625 Z M 122.4375 -132.203125 C 122.4375 -140.941406 119.414062 -147.773438 113.375 -152.703125 C 107.332031 -157.628906 99.289062 -160.09375 89.25 -160.09375 L 69.171875 -160.09375 L 69.171875 -102.640625 L 88.6875 -102.640625 C 99.289062 -102.640625 107.566406 -105.148438 113.515625 -110.171875 C 119.460938 -115.191406 122.4375 -122.535156 122.4375 -132.203125 Z M 122.4375 -132.203125 "/></g></g><g style="fill:#04a1c4;fill-opacity:1;"><g transform="translate(1049.957344, 403.404603)"><path style="stroke:none" d="M 2.796875 -160.09375 L 2.796875 -206.390625 L 136.671875 -206.390625 L 136.671875 -160.09375 L 96.21875 -160.09375 L 96.21875 0 L 43.515625 0 L 43.515625 -160.09375 Z M 2.796875 -160.09375 "/></g></g><g style="fill:#04a1c4;fill-opacity:1;"><g transform="translate(1189.12424, 403.404603)"><path style="stroke:none" d="M 80.890625 -166.234375 C 75.867188 -166.234375 71.585938 -164.648438 68.046875 -161.484375 C 64.515625 -158.328125 62.75 -154.515625 62.75 -150.046875 C 62.75 -144.285156 65.164062 -139.640625 70 -136.109375 C 74.832031 -132.578125 83.664062 -128.019531 96.5 -122.4375 C 111.5625 -115.925781 123.179688 -109.601562 131.359375 -103.46875 C 139.546875 -97.332031 145.265625 -90.820312 148.515625 -83.9375 C 151.773438 -77.0625 153.40625 -68.882812 153.40625 -59.40625 C 153.40625 -39.507812 146.988281 -23.984375 134.15625 -12.828125 C 121.320312 -1.671875 103.75 3.90625 81.4375 3.90625 C 58.570312 3.90625 40.441406 -1.945312 27.046875 -13.65625 C 13.660156 -25.375 6.96875 -42.113281 6.96875 -63.875 L 6.96875 -68.328125 L 59.40625 -68.328125 C 59.59375 -59.773438 61.640625 -52.941406 65.546875 -47.828125 C 69.453125 -42.710938 74.65625 -40.15625 81.15625 -40.15625 C 86.550781 -40.15625 91.203125 -42.0625 95.109375 -45.875 C 99.015625 -49.6875 100.96875 -54.382812 100.96875 -59.96875 C 100.96875 -66.476562 97.851562 -71.820312 91.625 -76 C 85.394531 -80.1875 76.515625 -84.507812 64.984375 -88.96875 C 64.242188 -89.34375 63.359375 -89.664062 62.328125 -89.9375 C 61.304688 -90.21875 60.332031 -90.640625 59.40625 -91.203125 C 42.488281 -98.078125 30.078125 -106.160156 22.171875 -115.453125 C 14.265625 -124.753906 10.3125 -136.101562 10.3125 -149.5 C 10.3125 -160.832031 13.613281 -171.144531 20.21875 -180.4375 C 26.820312 -189.738281 35.65625 -197.039062 46.71875 -202.34375 C 57.78125 -207.644531 69.632812 -210.296875 82.28125 -210.296875 C 95.476562 -210.296875 107.65625 -207.414062 118.8125 -201.65625 C 129.96875 -195.882812 138.195312 -188.582031 143.5 -179.75 C 148.800781 -170.914062 151.539062 -159.710938 151.71875 -146.140625 L 99.5625 -146.140625 C 98.445312 -153.398438 96.398438 -158.5625 93.421875 -161.625 C 90.453125 -164.695312 86.273438 -166.234375 80.890625 -166.234375 Z M 80.890625 -166.234375 "/></g></g></g></svg>