<svg xmlns="http://www.w3.org/2000/svg" xmlns:xlink="http://www.w3.org/1999/xlink" width="500" zoomAndPan="magnify" viewBox="0 0 375 374.999991" height="500" preserveAspectRatio="xMidYMid meet" version="1.2"><defs><clipPath id="4d855faca5"><path d="M 57 57.398438 L 317 57.398438 L 317 317 L 57 317 Z M 57 57.398438 "/></clipPath></defs><g id="4cbdf41f99"><g clip-rule="nonzero" clip-path="url(#4d855faca5)"><path style=" stroke:none;fill-rule:nonzero;fill:#ffffff;fill-opacity:1;" d="M 180.023438 57.617188 C 179.574219 57.652344 178.082031 57.761719 176.695312 57.867188 C 148.445312 60.0625 120.808594 72.011719 99.773438 91.15625 C 80.738281 108.5 67.371094 130.976562 61.109375 156.199219 C 56.898438 173.203125 56.25 190.910156 59.21875 208.5625 C 62.367188 227.292969 70.160156 246.203125 81.027344 261.550781 C 89.753906 273.859375 99.523438 283.664062 111.792969 292.480469 C 130.128906 305.617188 152.1875 313.820312 174.984375 315.960938 C 192.007812 317.5625 209.515625 315.671875 226.285156 310.402344 C 229.972656 309.25 237.132812 306.496094 240.390625 305.003906 C 244.007812 303.332031 245.753906 302.464844 248.089844 301.207031 C 271.769531 288.449219 290.753906 268.964844 302.664062 245.175781 C 314.394531 221.714844 318.75 195.859375 315.332031 169.859375 C 315.132812 168.382812 314.847656 166.476562 314.703125 165.628906 C 314.539062 164.800781 314.34375 163.648438 314.234375 163.074219 C 313.945312 161.402344 313.207031 158.035156 312.523438 155.300781 C 308.765625 140.386719 301.925781 125.359375 293.324219 113.109375 C 276.953125 89.789062 254.101562 72.75 227.527344 64.023438 C 217.792969 60.820312 209.496094 59.09375 198.375 57.941406 C 195.769531 57.671875 182.273438 57.4375 180.023438 57.617188 Z M 181.804688 63.5 C 181.769531 63.535156 180.4375 64.328125 178.855469 65.246094 C 173.097656 68.574219 165.773438 73.703125 160.769531 77.914062 C 159.042969 79.371094 158.628906 79.640625 158.253906 79.550781 C 156.667969 79.15625 148.535156 75.574219 148.410156 75.214844 C 148.339844 75.015625 152.601562 72.839844 156.003906 71.308594 C 162.984375 68.195312 170.882812 65.640625 178.765625 63.988281 C 181.011719 63.5 182.003906 63.355469 181.804688 63.5 Z M 187.816406 64.023438 C 187.707031 64.148438 186.628906 65.515625 185.386719 67.046875 C 182.109375 71.113281 179.070312 75.25 176.121094 79.675781 C 174.679688 81.835938 173.4375 83.597656 173.347656 83.597656 C 173.007812 83.597656 167.988281 82.5 166.347656 82.050781 C 163.378906 81.277344 162.191406 80.882812 162.246094 80.71875 C 162.335938 80.488281 166.960938 76.816406 169.460938 75 C 174.390625 71.4375 180.277344 67.765625 185.117188 65.226562 C 186.628906 64.453125 187.886719 63.808594 187.921875 63.808594 C 187.957031 63.808594 187.90625 63.914062 187.816406 64.023438 Z M 203.558594 65.355469 C 208.578125 67.226562 213.203125 69.257812 218.078125 71.722656 C 223.242188 74.316406 227.597656 76.761719 227.398438 76.960938 C 227.128906 77.210938 222.59375 79.40625 221.066406 80.019531 L 219.574219 80.628906 L 218.710938 79.640625 C 218.222656 79.082031 216.515625 77.425781 214.894531 75.917969 C 210.378906 71.742188 206.527344 68.609375 202.246094 65.695312 C 200.265625 64.347656 200.03125 64.167969 200.25 64.167969 C 200.320312 64.167969 201.8125 64.707031 203.558594 65.355469 Z M 164.710938 64.597656 C 164.675781 64.632812 163.46875 65.085938 162.03125 65.605469 C 158.054688 67.046875 153.554688 69.023438 149.023438 71.308594 L 144.9375 73.398438 L 143.535156 72.550781 C 141.824219 71.507812 141.429688 71.21875 141.554688 71.09375 C 141.753906 70.878906 146.953125 69.007812 149.527344 68.214844 C 155.011719 66.503906 165.324219 64.058594 164.710938 64.597656 Z M 212.734375 65.15625 C 216.046875 65.875 221.40625 67.296875 224.628906 68.304688 C 227.308594 69.152344 234.148438 71.632812 234.34375 71.832031 C 234.488281 71.957031 230.800781 74.960938 230.496094 74.960938 C 230.421875 74.960938 228.945312 74.136719 227.203125 73.144531 C 222.992188 70.714844 218.257812 68.285156 214.390625 66.558594 C 212.664062 65.769531 211.042969 65.046875 210.792969 64.941406 C 210.109375 64.632812 210.414062 64.671875 212.734375 65.15625 Z M 199.1875 67.316406 C 202.136719 69.242188 205.539062 71.777344 208.417969 74.207031 C 210.648438 76.078125 216.371094 81.386719 216.371094 81.582031 C 216.371094 81.816406 208.757812 83.777344 207.878906 83.777344 C 207.699219 83.777344 207.300781 83.273438 206.816406 82.375 C 204.476562 78.109375 200.410156 71.667969 197.511719 67.621094 C 196.703125 66.503906 196 65.5 195.929688 65.410156 C 195.75 65.101562 196.453125 65.515625 199.1875 67.316406 Z M 194.527344 68.71875 C 198.917969 74.890625 204.566406 83.976562 204.1875 84.320312 C 203.953125 84.535156 198.738281 85.039062 195.425781 85.164062 L 192.4375 85.273438 L 192.4375 75.71875 C 192.4375 70.445312 192.492188 66.144531 192.582031 66.144531 C 192.65625 66.144531 193.535156 67.296875 194.527344 68.71875 Z M 189.378906 76.132812 L 189.378906 85.21875 L 188.320312 85.21875 C 185.855469 85.21875 177.34375 84.390625 177.054688 84.121094 C 176.855469 83.941406 180.078125 79.101562 183.335938 74.710938 C 185.261719 72.082031 189.21875 67.046875 189.328125 67.046875 C 189.363281 67.046875 189.378906 71.128906 189.378906 76.132812 Z M 141.320312 75.554688 C 140.980469 75.753906 139.289062 76.851562 137.558594 77.984375 C 126.261719 85.378906 115.859375 95.042969 107.261719 106.125 C 106.59375 107.007812 105.945312 107.710938 105.839844 107.710938 C 105.390625 107.710938 96.535156 101.71875 96.535156 101.414062 C 96.535156 101.195312 102.222656 95.707031 104.597656 93.640625 C 110.390625 88.546875 117.265625 83.527344 123.796875 79.640625 C 126.511719 78.019531 133.546875 74.40625 136.265625 73.21875 L 137.9375 72.496094 L 139.9375 73.847656 L 141.914062 75.195312 Z M 242.640625 75.644531 C 252.644531 80.667969 260.578125 85.992188 269.089844 93.386719 C 271.230469 95.242188 278.085938 101.917969 278.085938 102.148438 C 278.085938 102.492188 268.550781 108.339844 268.207031 108.214844 C 268.117188 108.195312 267.109375 107.042969 265.976562 105.695312 C 257.519531 95.511719 247.445312 86.425781 236.144531 78.742188 L 233.300781 76.816406 L 235.046875 75.359375 C 236.019531 74.566406 236.953125 73.738281 237.132812 73.542969 C 237.332031 73.324219 237.53125 73.164062 237.582031 73.164062 C 237.65625 73.164062 239.921875 74.277344 242.640625 75.644531 Z M 147.3125 78.164062 C 149.328125 79.207031 153.539062 81.082031 155.445312 81.800781 L 155.96875 81.996094 L 151.488281 86.53125 C 142.292969 95.835938 135.761719 104.398438 129.464844 115.429688 C 128.546875 117.03125 127.753906 118.324219 127.683594 118.324219 C 127.230469 118.324219 119.710938 115.125 116.417969 113.539062 C 114.421875 112.585938 109.402344 109.941406 108.898438 109.597656 C 108.589844 109.382812 108.71875 109.183594 110.410156 107.0625 C 119.691406 95.402344 129.859375 86.316406 142.328125 78.523438 C 143.714844 77.660156 144.867188 76.960938 144.882812 76.960938 C 144.917969 76.941406 146 77.5 147.3125 78.164062 Z M 233.714844 80.792969 C 241.777344 86.152344 249.367188 92.453125 256.222656 99.449219 C 259.839844 103.140625 265.3125 109.382812 265.3125 109.816406 C 265.3125 110.050781 257.808594 113.683594 254.246094 115.195312 C 252.660156 115.859375 249.910156 116.957031 248.128906 117.625 L 244.90625 118.847656 L 242.800781 114.582031 C 237.1875 103.105469 230.945312 93.511719 223.421875 84.804688 C 222.578125 83.832031 221.929688 83.023438 221.964844 82.988281 C 222 82.953125 222.558594 82.699219 223.207031 82.429688 C 224.648438 81.816406 228.625 79.820312 229.59375 79.207031 C 229.992188 78.957031 230.386719 78.742188 230.476562 78.742188 C 230.585938 78.742188 232.042969 79.660156 233.714844 80.792969 Z M 161.5625 83.851562 C 164.027344 84.625 167.105469 85.433594 169.589844 85.957031 C 170.632812 86.171875 171.53125 86.40625 171.601562 86.460938 C 171.675781 86.515625 171.277344 87.339844 170.722656 88.277344 C 166.1875 95.976562 161.671875 105.261719 158.164062 114.097656 C 156.722656 117.730469 154.941406 122.589844 154.328125 124.570312 C 154.132812 125.253906 153.953125 125.523438 153.71875 125.523438 C 153.285156 125.523438 148.554688 124.535156 145.53125 123.8125 C 141.214844 122.769531 132.019531 120.070312 131.027344 119.550781 C 130.742188 119.40625 130.777344 119.296875 131.390625 118.183594 C 136.929688 108.105469 144.578125 97.867188 152.980469 89.25 C 155.480469 86.675781 159.152344 83.238281 159.367188 83.238281 C 159.476562 83.238281 160.449219 83.527344 161.5625 83.851562 Z M 220.527344 86.117188 C 226.570312 93.046875 232.1875 101.105469 236.882812 109.6875 C 238.699219 112.980469 241.921875 119.65625 241.777344 119.800781 C 241.597656 119.980469 236.539062 121.527344 233.195312 122.445312 C 230.601562 123.128906 224.449219 124.625 224.125 124.625 C 224.054688 124.625 223.820312 123.992188 223.601562 123.21875 C 220.921875 113.429688 216.152344 101.015625 211.0625 90.472656 C 209.316406 86.875 209.226562 86.65625 209.585938 86.585938 C 210.953125 86.296875 216.136719 84.964844 217.269531 84.605469 C 218.007812 84.371094 218.671875 84.175781 218.746094 84.191406 C 218.816406 84.210938 219.609375 85.074219 220.527344 86.117188 Z M 177.074219 87.289062 C 179.503906 87.648438 183.910156 88.0625 186.898438 88.207031 L 189.34375 88.332031 L 189.253906 108.230469 C 189.21875 119.171875 189.128906 128.238281 189.09375 128.382812 C 189.019531 128.601562 188.101562 128.617188 183.207031 128.527344 C 176.964844 128.402344 174.015625 128.238281 168.417969 127.683594 C 164.785156 127.304688 157.425781 126.316406 157.15625 126.132812 C 157.082031 126.097656 157.441406 124.820312 157.964844 123.308594 C 161.636719 112.855469 165.863281 103.320312 170.8125 94.304688 C 172.429688 91.355469 175.023438 87.019531 175.148438 87.019531 C 175.21875 87.019531 176.082031 87.144531 177.074219 87.289062 Z M 206.871094 88.90625 C 209.371094 93.65625 213.3125 102.617188 215.632812 108.824219 C 218.367188 116.21875 221.226562 125.34375 220.796875 125.34375 C 220.761719 125.34375 219.320312 125.59375 217.59375 125.882812 C 209.660156 127.25 198.773438 128.402344 193.664062 128.402344 L 192.257812 128.402344 L 192.257812 111.433594 C 192.257812 102.113281 192.3125 93.082031 192.386719 91.371094 L 192.492188 88.277344 L 193.789062 88.277344 C 195.804688 88.277344 200.375 87.9375 203.054688 87.574219 C 204.386719 87.394531 205.609375 87.25 205.753906 87.269531 C 205.898438 87.289062 206.402344 88.027344 206.871094 88.90625 Z M 96.085938 104.9375 C 97.507812 106 103.050781 109.742188 103.804688 110.175781 C 104.039062 110.300781 103.625 111.019531 101.519531 114.207031 C 96.535156 121.761719 92.253906 129.839844 89.050781 137.792969 C 88.671875 138.765625 88.296875 139.558594 88.242188 139.558594 C 88.0625 139.558594 83.222656 136.335938 81.441406 135.023438 C 80.488281 134.320312 78.847656 133.0625 77.789062 132.214844 L 75.863281 130.667969 L 76.78125 128.941406 C 81.171875 120.738281 86.191406 113.359375 92.199219 106.234375 C 93.351562 104.867188 94.324219 103.75 94.378906 103.75 C 94.429688 103.75 95.203125 104.292969 96.085938 104.9375 Z M 282.855469 107.53125 C 287.785156 113.523438 292.246094 120.070312 296.0625 126.945312 C 297.375 129.285156 300.578125 135.761719 300.578125 136.050781 C 300.578125 136.605469 294.785156 141.195312 290.96875 143.679688 C 289.871094 144.378906 288.953125 144.957031 288.882812 144.957031 C 288.828125 144.957031 288.59375 144.414062 288.359375 143.730469 C 287.621094 141.664062 285.320312 136.371094 283.773438 133.171875 C 280.480469 126.351562 276.199219 119.242188 271.574219 112.875 C 270.800781 111.8125 270.167969 110.894531 270.167969 110.859375 C 270.167969 110.824219 271.320312 110.101562 272.742188 109.257812 C 274.144531 108.429688 276.394531 107.007812 277.726562 106.125 L 280.15625 104.523438 L 280.570312 104.902344 C 280.804688 105.117188 281.828125 106.289062 282.855469 107.53125 Z M 108.628906 112.945312 C 112.855469 115.304688 119.800781 118.558594 124.480469 120.394531 C 125.433594 120.773438 126.226562 121.152344 126.226562 121.242188 C 126.226562 121.332031 125.957031 121.941406 125.613281 122.625 C 121.996094 129.789062 117.914062 140.636719 115.683594 149.003906 C 115.214844 150.785156 114.820312 152.261719 114.800781 152.277344 C 114.765625 152.351562 109.976562 150.480469 107.421875 149.398438 C 102.367188 147.257812 94.289062 143.265625 91.644531 141.609375 L 90.976562 141.175781 L 92.019531 138.621094 C 94.683594 132.125 97.816406 125.917969 101.429688 119.980469 C 103.25 116.996094 106.613281 112.027344 106.8125 112.027344 C 106.902344 112.027344 107.730469 112.441406 108.628906 112.945312 Z M 268.894531 114.347656 C 275.335938 123.074219 281.433594 134.230469 285.390625 144.503906 C 285.914062 145.835938 286.09375 146.558594 285.984375 146.699219 C 285.679688 147.042969 277.457031 151.109375 274.578125 152.332031 C 270.601562 154.007812 265.277344 155.949219 261.046875 157.28125 C 258.980469 157.929688 257.214844 158.449219 257.109375 158.449219 C 257 158.449219 256.621094 156.886719 256.226562 154.886719 C 254.964844 148.355469 253.113281 141.285156 250.898438 134.519531 C 249.785156 131.171875 247.605469 125.253906 246.617188 122.914062 C 246.132812 121.78125 246.113281 121.636719 246.382812 121.546875 C 253.363281 118.957031 258.203125 116.90625 263.332031 114.347656 C 265.457031 113.289062 267.253906 112.40625 267.328125 112.40625 C 267.382812 112.386719 268.101562 113.269531 268.894531 114.347656 Z M 131.984375 123.113281 C 137.203125 124.875 146.59375 127.359375 151.417969 128.238281 C 152.0625 128.347656 152.675781 128.511719 152.785156 128.5625 C 152.925781 128.636719 152.765625 129.410156 152.296875 131.011719 C 149.816406 139.359375 147.746094 148.445312 146.378906 157.101562 C 146.070312 159.078125 145.785156 160.789062 145.75 160.898438 C 145.570312 161.472656 130.113281 157.496094 121.546875 154.691406 C 119.710938 154.078125 118.109375 153.519531 117.96875 153.429688 C 117.375 153.050781 120.917969 141.445312 123.886719 133.980469 C 125.882812 128.976562 129.015625 122.285156 129.355469 122.285156 C 129.484375 122.285156 130.652344 122.644531 131.984375 123.113281 Z M 244.296875 125.359375 C 246.960938 131.875 249.296875 139.054688 251.1875 146.484375 C 252.375 151.109375 254.066406 159.132812 253.90625 159.3125 C 253.382812 159.816406 233.589844 163.847656 231.609375 163.847656 C 231.414062 163.847656 231.304688 163.542969 231.214844 162.714844 C 229.972656 151.289062 227.90625 139.648438 225.367188 129.75 C 225.078125 128.652344 224.898438 127.71875 224.972656 127.664062 C 225.042969 127.59375 226.230469 127.285156 227.617188 126.980469 C 231.988281 125.992188 242.460938 123.058594 242.804688 122.714844 C 243.035156 122.480469 243.324219 122.984375 244.296875 125.359375 Z M 222.613281 131.371094 C 224.378906 138.335938 225.960938 146.414062 227.058594 154.132812 C 227.726562 158.757812 228.355469 164.152344 228.226562 164.28125 C 228.101562 164.40625 221.96875 165.070312 217.449219 165.449219 C 210.039062 166.078125 197.640625 166.511719 194.078125 166.277344 L 192.082031 166.152344 L 192.117188 148.84375 L 192.171875 131.550781 L 195.050781 131.425781 C 201.976562 131.101562 209.859375 130.253906 216.820312 129.105469 C 219.195312 128.707031 221.175781 128.328125 221.210938 128.292969 C 221.265625 128.238281 221.425781 128.238281 221.570312 128.257812 C 221.769531 128.292969 222.074219 129.230469 222.613281 131.371094 Z M 158.46875 129.480469 C 166.367188 130.757812 177.578125 131.640625 185.960938 131.640625 L 189.113281 131.640625 L 189.058594 148.769531 C 189.023438 158.199219 188.933594 165.972656 188.859375 166.042969 C 188.625 166.296875 177.828125 165.664062 171.296875 165 C 166.332031 164.515625 160.015625 163.648438 154.65625 162.75 C 151.738281 162.265625 149.203125 161.816406 149.042969 161.761719 C 148.824219 161.6875 148.734375 161.546875 148.808594 161.273438 C 148.84375 161.058594 148.96875 160.230469 149.09375 159.441406 C 149.742188 154.78125 151.273438 147.023438 152.695312 141.175781 C 153.539062 137.757812 155.804688 129.625 156.023438 129.285156 C 156.148438 129.085938 155.898438 129.066406 158.46875 129.480469 Z M 76.386719 134.988281 C 78.632812 136.785156 82.25 139.378906 84.933594 141.085938 C 86.121094 141.84375 87.109375 142.492188 87.144531 142.507812 C 87.164062 142.542969 86.730469 143.894531 86.191406 145.511719 C 82.808594 155.445312 80.378906 166.871094 79.425781 177.34375 C 79.316406 178.675781 79.191406 179.808594 79.15625 179.824219 C 79.066406 179.953125 72.246094 176.894531 67.820312 174.75 L 63.320312 172.539062 L 63.394531 171.835938 C 63.953125 166.167969 66.003906 156.703125 68.144531 149.8125 C 69.855469 144.273438 74.101562 133.601562 74.566406 133.621094 C 74.621094 133.621094 75.449219 134.25 76.386719 134.988281 Z M 303.511719 143.066406 C 305.90625 149.453125 308.027344 157.046875 309.214844 163.378906 C 309.519531 164.964844 309.738281 166.257812 309.71875 166.277344 C 306.066406 169.066406 296.441406 175.148438 296.0625 174.894531 C 295.972656 174.84375 295.902344 174.609375 295.902344 174.375 C 295.902344 173.726562 295.21875 169.101562 294.714844 166.367188 C 293.742188 161.132812 292.535156 156.292969 290.84375 150.820312 C 290.339844 149.253906 289.964844 147.960938 290 147.925781 C 290.035156 147.90625 291.152344 147.1875 292.480469 146.304688 C 295.125 144.59375 298.003906 142.472656 300.398438 140.476562 C 301.226562 139.773438 301.964844 139.269531 302.035156 139.339844 C 302.109375 139.414062 302.757812 141.085938 303.511719 143.066406 Z M 92.523438 145.601562 C 98.480469 148.859375 106.199219 152.367188 113.648438 155.195312 L 114.117188 155.355469 L 113.523438 158.304688 C 111.8125 166.761719 110.984375 174.769531 110.804688 184.304688 C 110.734375 188.390625 110.644531 190.296875 110.5 190.296875 C 110.246094 190.296875 105.480469 189.003906 102.476562 188.121094 C 96.339844 186.304688 89.628906 184.019531 84.519531 182.019531 L 82.144531 181.085938 L 82.234375 180.257812 C 82.269531 179.789062 82.394531 178.441406 82.503906 177.253906 C 82.988281 171.910156 84.105469 165.019531 85.398438 159.441406 C 86.660156 153.933594 89.59375 144.234375 89.96875 144.234375 C 90.023438 144.234375 91.175781 144.847656 92.523438 145.601562 Z M 287.890625 151.648438 C 290.035156 158.253906 291.816406 166.277344 292.75 173.472656 C 293.199219 177.054688 293.578125 176.480469 289.476562 178.476562 C 280.839844 182.652344 271.574219 186.25 262.253906 189.039062 C 260.921875 189.433594 259.769531 189.757812 259.699219 189.757812 C 259.605469 189.757812 259.554688 188.03125 259.554688 185.925781 C 259.554688 180.367188 258.761719 170.667969 257.773438 163.847656 C 257.59375 162.605469 257.449219 161.582031 257.464844 161.582031 C 257.464844 161.5625 259.121094 161.058594 261.136719 160.449219 C 269.574219 157.855469 277.566406 154.636719 284.292969 151.074219 C 285.789062 150.300781 287.046875 149.652344 287.117188 149.652344 C 287.191406 149.632812 287.53125 150.550781 287.890625 151.648438 Z M 118.703125 156.9375 C 124.191406 158.9375 135.113281 161.957031 142.328125 163.507812 C 143.820312 163.8125 145.101562 164.136719 145.171875 164.207031 C 145.242188 164.28125 145.152344 165.828125 144.957031 167.644531 C 144.09375 175.472656 143.625 184.683594 143.714844 192.007812 L 143.769531 196.867188 L 143.226562 196.8125 C 140.3125 196.503906 130.308594 194.796875 124.964844 193.699219 C 121.726562 193.03125 114.851562 191.484375 114.132812 191.269531 C 113.828125 191.179688 113.808594 190.800781 113.808594 186.609375 C 113.808594 179.609375 114.207031 173.761719 115.175781 166.816406 C 115.574219 163.9375 116.742188 157.28125 116.957031 156.6875 C 117.066406 156.382812 117.210938 156.398438 118.703125 156.9375 Z M 254.585938 162.984375 C 254.820312 164.261719 255.59375 170.757812 255.847656 173.65625 C 256.277344 178.40625 256.53125 183.945312 256.457031 187.507812 L 256.40625 190.730469 L 253.074219 191.574219 C 247.246094 193.070312 233.859375 195.875 232.582031 195.875 C 232.382812 195.875 232.367188 194.957031 232.472656 191.054688 C 232.601562 185.925781 232.382812 177.488281 231.933594 171.242188 C 231.789062 169.226562 231.664062 167.445312 231.664062 167.265625 C 231.664062 166.996094 232.058594 166.890625 234.238281 166.566406 C 239.886719 165.683594 248.8125 163.867188 252.804688 162.785156 C 254.480469 162.320312 254.460938 162.320312 254.585938 162.984375 Z M 153.464844 165.648438 C 163.09375 167.285156 172.414062 168.328125 181.914062 168.886719 C 183.695312 168.976562 186.035156 169.121094 187.113281 169.175781 L 189.074219 169.28125 L 188.964844 172.648438 C 188.894531 174.480469 188.839844 181.335938 188.839844 187.851562 L 188.839844 199.707031 L 180.707031 199.601562 C 172.988281 199.492188 169.589844 199.367188 163.378906 198.933594 C 157.335938 198.503906 147.167969 197.441406 146.933594 197.207031 C 146.71875 197.007812 146.699219 189.144531 146.898438 183.550781 C 147.097656 177.863281 147.402344 173.457031 147.90625 168.527344 C 148.320312 164.605469 148.285156 164.695312 148.84375 164.835938 C 149.113281 164.890625 151.179688 165.269531 153.464844 165.648438 Z M 228.695312 168.5625 C 229.199219 173.796875 229.59375 186.484375 229.414062 192.167969 L 229.289062 196.398438 L 228.804688 196.488281 C 227.667969 196.722656 220.039062 197.691406 216.011719 198.105469 C 208.9375 198.84375 203.703125 199.203125 194.722656 199.582031 L 191.898438 199.691406 L 191.9375 184.523438 L 191.988281 169.335938 L 198.015625 169.300781 C 204.511719 169.265625 210.828125 169.03125 216.28125 168.597656 C 219.949219 168.328125 226.789062 167.644531 227.074219 167.535156 C 227.183594 167.5 227.5625 167.464844 227.921875 167.464844 L 228.570312 167.445312 Z M 310.367188 170.363281 C 310.5625 171.476562 311.015625 176.011719 311.195312 178.601562 C 311.425781 182.019531 311.425781 191.882812 311.195312 195.371094 C 310.921875 199.347656 310.328125 204.332031 310.097656 204.621094 C 309.917969 204.835938 305.976562 207.210938 302.972656 208.902344 C 299.535156 210.828125 294.460938 213.347656 294.460938 213.113281 C 294.460938 212.988281 294.65625 211.78125 294.910156 210.433594 C 295.414062 207.554688 296.152344 201.742188 296.476562 198.035156 C 296.746094 195.03125 296.761719 183.117188 296.511719 180.257812 L 296.332031 178.40625 L 298.597656 177.128906 C 301.765625 175.308594 304.96875 173.3125 307.683594 171.441406 C 308.980469 170.542969 310.078125 169.804688 310.132812 169.804688 C 310.203125 169.785156 310.292969 170.054688 310.367188 170.363281 Z M 64.921875 176.730469 C 67.691406 178.132812 72.714844 180.457031 75.753906 181.75 C 77.335938 182.417969 78.703125 183.027344 78.777344 183.101562 C 78.847656 183.171875 78.921875 185.945312 78.902344 189.253906 C 78.886719 198.878906 79.605469 207.195312 81.152344 215.109375 C 81.402344 216.351562 81.566406 217.378906 81.53125 217.429688 C 81.222656 217.738281 64.671875 209.855469 64.453125 209.296875 C 64.078125 208.308594 63.070312 200.210938 62.710938 195.425781 C 62.3125 190.027344 62.601562 175.902344 63.105469 175.902344 C 63.195312 175.902344 64.003906 176.28125 64.921875 176.730469 Z M 293.507812 181.066406 C 293.777344 183.082031 293.648438 195.515625 293.328125 199.113281 C 292.839844 204.132812 291.546875 212.769531 290.933594 214.785156 C 290.789062 215.328125 280.640625 219.609375 273.226562 222.289062 C 267.34375 224.394531 255.667969 228.03125 255.433594 227.8125 C 255.398438 227.757812 255.613281 226.535156 255.917969 225.078125 C 257.863281 215.957031 259.066406 206.132812 259.480469 196.019531 L 259.605469 193.015625 L 260.886719 192.636719 C 271.394531 189.507812 279.542969 186.464844 288.074219 182.523438 C 289.65625 181.789062 291.4375 180.921875 292.03125 180.617188 C 292.625 180.3125 293.164062 180.058594 293.238281 180.042969 C 293.308594 180.042969 293.417969 180.511719 293.507812 181.066406 Z M 85.203125 185.566406 C 89.359375 187.148438 99.109375 190.332031 104.09375 191.738281 C 106.613281 192.457031 109.167969 193.175781 109.761719 193.339844 L 110.839844 193.644531 L 111.148438 197.601562 C 111.9375 207.75 113.773438 218.132812 116.328125 226.933594 C 116.636719 227.9375 116.867188 228.855469 116.867188 228.945312 C 116.867188 229.34375 105.335938 226.105469 97.796875 223.585938 C 92.667969 221.875 85.433594 219.210938 85.148438 218.925781 C 84.914062 218.691406 83.921875 213.5625 83.328125 209.621094 C 82.339844 202.929688 81.960938 197.566406 81.960938 189.992188 C 81.960938 184.667969 81.980469 184.324219 82.285156 184.449219 C 82.449219 184.503906 83.761719 185.007812 85.199219 185.566406 Z M 256.496094 194.832031 C 256.496094 196.363281 256.152344 201.652344 255.863281 204.960938 C 255.199219 212.320312 253.921875 220.4375 252.410156 226.859375 L 251.960938 228.804688 L 251.222656 229 C 245.339844 230.585938 228.480469 233.949219 228.136719 233.605469 C 228.082031 233.554688 228.355469 231.699219 228.765625 229.488281 C 230.171875 221.785156 231.214844 213.597656 231.753906 206.132812 C 231.917969 204.007812 232.097656 201.542969 232.167969 200.644531 L 232.292969 199.042969 L 234.183594 198.71875 C 240.660156 197.585938 250.753906 195.425781 254.515625 194.363281 C 255.359375 194.128906 256.152344 193.914062 256.277344 193.914062 C 256.421875 193.898438 256.496094 194.203125 256.496094 194.832031 Z M 117.640625 195.226562 C 124.480469 196.8125 132.503906 198.324219 139.613281 199.367188 C 142.363281 199.761719 143.769531 200.050781 143.875 200.210938 C 143.964844 200.355469 144.039062 200.984375 144.039062 201.632812 C 144.039062 203.035156 144.453125 208.308594 144.847656 212.125 C 145.496094 218.367188 146.609375 225.5625 147.886719 231.773438 C 148.230469 233.445312 148.480469 234.847656 148.445312 234.902344 C 148.320312 235.027344 142.941406 234.273438 137.488281 233.375 C 133.0625 232.636719 125 231.050781 121.746094 230.277344 L 120.394531 229.972656 L 119.800781 227.992188 C 117.046875 218.816406 115.070312 208.238281 114.257812 198.269531 C 113.953125 194.671875 113.953125 194.4375 114.078125 194.4375 C 114.132812 194.4375 115.734375 194.796875 117.640625 195.226562 Z M 229.144531 200.050781 C 229.144531 201.128906 228.605469 207.984375 228.246094 211.53125 C 227.578125 217.933594 226.554688 224.898438 225.347656 231.285156 C 224.84375 233.894531 224.738281 234.21875 224.394531 234.289062 C 223.621094 234.472656 218.671875 235.101562 214.660156 235.53125 C 208.21875 236.234375 196.21875 237.078125 192.566406 237.078125 L 191.703125 237.078125 L 191.753906 220.003906 C 191.792969 210.613281 191.863281 202.875 191.917969 202.820312 C 191.972656 202.765625 194.039062 202.640625 196.503906 202.53125 C 204.980469 202.191406 210.667969 201.757812 218.4375 200.894531 C 222.199219 200.480469 227.617188 199.761719 229.019531 199.492188 C 229.089844 199.492188 229.144531 199.746094 229.144531 200.050781 Z M 151.59375 200.914062 C 162.300781 202.046875 170.144531 202.515625 181.015625 202.695312 L 188.75 202.804688 L 188.679688 219.894531 C 188.644531 229.289062 188.570312 237.027344 188.535156 237.078125 C 188.390625 237.242188 175.488281 237.097656 171.117188 236.898438 C 162.175781 236.484375 152.171875 235.585938 151.847656 235.171875 C 151.398438 234.597656 149.382812 223.691406 148.464844 216.835938 C 147.761719 211.511719 146.84375 200.699219 147.078125 200.445312 C 147.132812 200.410156 147.402344 200.410156 147.707031 200.464844 C 148.015625 200.519531 149.761719 200.714844 151.59375 200.914062 Z M 308.871094 212.359375 C 307.488281 219.195312 305.308594 226.445312 302.59375 233.300781 L 301.207031 236.808594 L 298.597656 238.539062 C 297.160156 239.492188 294.785156 240.984375 293.289062 241.867188 C 290.339844 243.59375 282.242188 247.769531 282.117188 247.640625 C 282.0625 247.585938 282.675781 246.273438 283.464844 244.691406 C 287.40625 236.808594 290.25 229.378906 292.554688 220.902344 C 293.109375 218.871094 293.578125 217.199219 293.613281 217.179688 C 293.632812 217.160156 295.035156 216.460938 296.710938 215.613281 C 300.164062 213.886719 305.21875 211.167969 307.773438 209.675781 C 308.710938 209.117188 309.503906 208.703125 309.539062 208.742188 C 309.574219 208.757812 309.269531 210.394531 308.871094 212.355469 Z M 76.113281 218.492188 C 77.894531 219.285156 80.035156 220.203125 80.863281 220.542969 C 81.691406 220.886719 82.394531 221.226562 82.429688 221.335938 C 82.449219 221.425781 82.898438 223.097656 83.402344 225.023438 C 85.128906 231.574219 87.628906 238.679688 90.527344 245.160156 C 91.265625 246.796875 91.820312 248.164062 91.769531 248.199219 C 91.714844 248.253906 90.238281 247.695312 88.492188 246.976562 C 81.960938 244.296875 74.78125 240.964844 74.476562 240.460938 C 73.738281 239.3125 70.644531 231.773438 69.277344 227.886719 C 67.910156 223.964844 66.542969 219.070312 65.320312 213.742188 C 65.246094 213.402344 65.75 213.597656 69.042969 215.21875 C 71.148438 216.226562 74.332031 217.71875 76.113281 218.492188 Z M 289.890625 219.210938 C 289.835938 219.394531 289.476562 220.671875 289.078125 222.054688 C 287.675781 226.984375 285.390625 233.265625 283.230469 238.105469 C 281.488281 242.046875 277.636719 249.40625 277.132812 249.835938 C 276.738281 250.160156 270.097656 252.699219 265.957031 254.101562 C 260.867188 255.828125 255.21875 257.484375 249.746094 258.816406 C 247.371094 259.410156 245.140625 259.929688 244.761719 260.003906 L 244.113281 260.128906 L 245.429688 257.285156 C 248.234375 251.222656 251.4375 242.421875 253.253906 235.910156 C 253.667969 234.417969 254.121094 232.78125 254.261719 232.277344 C 254.515625 231.359375 254.550781 231.320312 255.46875 231.070312 C 255.972656 230.925781 257.574219 230.476562 259.011719 230.0625 C 268.261719 227.433594 278.535156 223.78125 286.832031 220.183594 C 288.394531 219.5 289.765625 218.925781 289.835938 218.925781 C 289.925781 218.90625 289.945312 219.050781 289.890625 219.210938 Z M 89.773438 224.035156 C 97.402344 226.84375 105.535156 229.359375 113.523438 231.410156 C 115.96875 232.042969 118.003906 232.582031 118.019531 232.617188 C 118.039062 232.652344 118.488281 233.878906 119.011719 235.371094 C 121.636719 242.820312 125.433594 251.347656 129.070312 257.863281 C 129.570312 258.742188 129.949219 259.5 129.933594 259.515625 C 129.859375 259.589844 123.382812 258.078125 119.566406 257.105469 C 113.972656 255.683594 108.359375 254.046875 102.691406 252.175781 C 95.671875 249.855469 96.394531 250.269531 95.132812 247.75 C 91.964844 241.417969 88.800781 233.15625 86.820312 226.015625 C 86.40625 224.519531 86.027344 223.171875 85.992188 222.992188 C 85.9375 222.828125 85.957031 222.683594 86.011719 222.683594 C 86.082031 222.683594 87.773438 223.296875 89.773438 224.035156 Z M 251.097656 232.3125 C 251.097656 232.347656 250.664062 233.914062 250.125 235.765625 C 248.019531 243.019531 245.265625 250.414062 242.136719 257.140625 L 240.390625 260.921875 L 238.863281 261.226562 C 234.667969 262.074219 224.214844 263.671875 220.707031 263.996094 L 219.429688 264.125 L 219.859375 262.972656 C 222.09375 256.925781 224.789062 247.769531 226.519531 240.320312 L 227.292969 236.988281 L 231.683594 236.234375 C 237.171875 235.296875 243.214844 234.074219 247.40625 233.050781 C 250.789062 232.222656 251.097656 232.167969 251.097656 232.3125 Z M 124.964844 234.128906 C 130.886719 235.386719 139.199219 236.828125 145.910156 237.710938 C 147.671875 237.945312 149.183594 238.195312 149.257812 238.285156 C 149.328125 238.355469 149.597656 239.3125 149.867188 240.410156 C 151.253906 246.078125 153.898438 254.550781 156.039062 260.164062 C 157.570312 264.230469 157.496094 263.890625 156.867188 263.890625 C 155.375 263.890625 144.378906 262.289062 138.191406 261.171875 C 134.683594 260.542969 134.195312 260.398438 133.871094 260.019531 C 132.953125 258.921875 128.707031 250.808594 126.601562 246.167969 C 124.210938 240.875 121.402344 233.480469 121.78125 233.480469 C 121.90625 233.480469 123.328125 233.769531 124.964844 234.128906 Z M 223.925781 237.835938 C 223.925781 238.410156 221.984375 246.039062 220.777344 250.214844 C 219.71875 253.886719 217.523438 260.613281 216.566406 263.097656 L 215.992188 264.554688 L 213.527344 264.753906 C 208.019531 265.222656 202.136719 265.542969 197.0625 265.652344 C 194.113281 265.726562 191.648438 265.742188 191.613281 265.707031 C 191.484375 265.582031 191.539062 243.808594 191.648438 241.921875 L 191.773438 240.175781 L 194.402344 240.066406 C 204.601562 239.597656 215.019531 238.71875 221.859375 237.726562 C 222.738281 237.582031 223.585938 237.476562 223.710938 237.457031 C 223.820312 237.457031 223.925781 237.621094 223.925781 237.835938 Z M 156.992188 238.96875 C 165 239.726562 173.152344 240.140625 182.074219 240.230469 L 188.570312 240.28125 L 188.625 241.054688 C 188.644531 241.488281 188.605469 247.226562 188.535156 253.8125 L 188.390625 265.777344 L 184.703125 265.726562 C 178.53125 265.636719 168.453125 265.09375 163.003906 264.554688 L 160.914062 264.339844 L 160.464844 263.261719 C 158.074219 257.394531 155.085938 248.324219 153.304688 241.542969 L 152.511719 238.484375 L 153.359375 238.589844 C 153.828125 238.644531 155.464844 238.824219 156.992188 238.96875 Z M 297.589844 244.222656 C 293.074219 252.824219 287.585938 260.957031 281.613281 267.9375 C 278.519531 271.554688 278.085938 271.933594 274.882812 273.839844 C 268.65625 277.5625 261.300781 281.035156 253.976562 283.664062 L 252.445312 284.222656 L 253.164062 283.554688 C 263.890625 273.859375 271.230469 265.257812 277.871094 254.625 L 279.347656 252.285156 L 281.902344 251.132812 C 286.632812 249.027344 294.28125 244.980469 297.410156 242.925781 C 297.914062 242.585938 298.382812 242.316406 298.472656 242.316406 C 298.542969 242.296875 298.148438 243.160156 297.589844 244.222656 Z M 78.398438 245.914062 C 80.488281 246.976562 88.691406 250.414062 92.703125 251.925781 C 94 252.390625 94.035156 252.429688 94.683594 253.597656 C 100.40625 264.015625 107.027344 273.011719 115.050781 281.234375 C 116.507812 282.710938 117.515625 283.863281 117.316406 283.789062 C 117.121094 283.71875 116.273438 283.410156 115.429688 283.105469 C 109.996094 281.179688 101.664062 277.472656 100.171875 276.339844 C 99.324219 275.691406 94.753906 270.800781 92.09375 267.6875 C 86.875 261.605469 81.601562 253.9375 77.644531 246.722656 C 76.796875 245.175781 76.832031 245.121094 78.398438 245.914062 Z M 108.230469 257.125 C 115.304688 259.246094 122.753906 261.171875 129.285156 262.523438 L 132.074219 263.117188 L 134.050781 266.175781 C 139.558594 274.703125 145.191406 281.71875 152.207031 288.847656 C 155.230469 291.941406 155.894531 292.679688 155.554688 292.679688 C 154.601562 292.679688 146.519531 291.347656 141.96875 290.429688 C 134.773438 288.988281 125.828125 286.703125 124.765625 286.039062 C 123.941406 285.535156 119.765625 281.667969 117.136719 278.96875 C 111.667969 273.40625 106.953125 267.558594 102.761719 261.15625 C 101 258.457031 98.515625 254.371094 98.515625 254.15625 C 98.515625 254.082031 99.703125 254.425781 101.179688 254.910156 C 102.636719 255.398438 105.804688 256.40625 108.230469 257.125 Z M 274.308594 254.480469 C 274.308594 254.714844 271.410156 258.90625 269.359375 261.640625 C 262.792969 270.402344 254.425781 278.949219 246.113281 285.410156 L 244.222656 286.882812 L 241.144531 287.695312 C 236.84375 288.847656 235.550781 289.167969 232.257812 289.890625 C 229.488281 290.484375 222.613281 291.796875 222.558594 291.726562 C 222.542969 291.707031 223.546875 290.554688 224.789062 289.167969 C 231.125 282.097656 236.539062 274.363281 241.398438 265.4375 L 242.371094 263.65625 L 245.789062 262.898438 C 250.140625 261.929688 254.300781 260.867188 258.292969 259.734375 C 261.945312 258.691406 270.277344 255.917969 272.507812 255.019531 C 274.179688 254.335938 274.308594 254.300781 274.308594 254.480469 Z M 143.949219 265.238281 C 146.234375 265.597656 150.496094 266.191406 153.449219 266.570312 L 158.808594 267.234375 L 159.582031 269.015625 C 162.785156 276.449219 167.121094 284.691406 171.421875 291.5625 C 172.304688 292.984375 172.988281 294.191406 172.933594 294.242188 C 172.808594 294.371094 167.664062 294.027344 163.957031 293.667969 C 162.410156 293.507812 161.292969 293.308594 161.039062 293.144531 C 160.050781 292.5 153.015625 285.5 150.15625 282.332031 C 146.339844 278.105469 141.25 271.519531 138.0625 266.75 C 137.09375 265.292969 136.300781 264.070312 136.300781 264.035156 C 136.300781 263.980469 137.09375 264.085938 138.0625 264.25 C 139.015625 264.429688 141.679688 264.878906 143.949219 265.238281 Z M 238.320312 264.574219 C 238.320312 264.789062 235.980469 268.835938 234.21875 271.664062 C 230.082031 278.285156 223.691406 286.308594 218.78125 291.078125 L 217.179688 292.625 L 214.660156 292.929688 C 211.007812 293.363281 205.5 293.921875 205.429688 293.847656 C 205.394531 293.8125 206.3125 292.136719 207.464844 290.125 C 210.882812 284.132812 215.074219 275.367188 217.539062 269.089844 L 218.203125 267.34375 L 220.128906 267.144531 C 223.835938 266.75 230.1875 265.851562 234.09375 265.167969 C 236.269531 264.789062 238.105469 264.464844 238.195312 264.449219 C 238.265625 264.449219 238.320312 264.5 238.320312 264.574219 Z M 172.144531 268.296875 C 174.589844 268.460938 179.25 268.640625 182.488281 268.710938 L 188.390625 268.835938 L 188.390625 277.5625 C 188.390625 282.367188 188.371094 288.179688 188.335938 290.464844 L 188.28125 294.65625 L 183.117188 294.640625 C 180.277344 294.621094 177.71875 294.566406 177.414062 294.496094 C 176.820312 294.371094 176.261719 293.613281 173.421875 288.988281 C 170.972656 285.03125 169.355469 282.117188 167.070312 277.652344 C 165.089844 273.820312 162.390625 268.0625 162.390625 267.722656 C 162.390625 267.632812 163.578125 267.667969 165.054688 267.792969 C 166.511719 267.921875 169.695312 268.136719 172.144531 268.296875 Z M 214.75 267.777344 C 214.75 268.082031 211.941406 274.542969 210.253906 278.105469 C 206.851562 285.300781 201.9375 294.046875 201.203125 294.207031 C 200.410156 294.371094 191.738281 294.695312 191.519531 294.550781 C 191.339844 294.441406 191.324219 292.011719 191.414062 283.519531 C 191.484375 277.527344 191.539062 271.753906 191.539062 270.707031 L 191.539062 268.800781 L 196.902344 268.695312 C 201.921875 268.585938 209.136719 268.207031 212.589844 267.867188 C 214.75 267.648438 214.75 267.648438 214.75 267.777344 Z M 268.730469 280.894531 C 268.386719 281.308594 265.796875 283.464844 263.511719 285.230469 C 249.386719 296.203125 233.246094 303.996094 216.226562 308.082031 C 213.328125 308.765625 209.296875 309.59375 208.847656 309.59375 C 208.6875 309.574219 209.765625 309.105469 211.242188 308.53125 C 223.367188 303.851562 233.464844 298.417969 243.503906 291.203125 C 245.644531 289.65625 245.804688 289.582031 248.34375 288.792969 C 254.171875 286.992188 260.742188 284.457031 265.851562 282.042969 C 269.269531 280.441406 269.015625 280.550781 268.730469 280.894531 Z M 111.957031 285.050781 C 113.613281 285.695312 116.902344 286.867188 119.242188 287.640625 L 123.507812 289.0625 L 125.269531 290.484375 C 131.15625 295.234375 137.757812 299.496094 144.667969 303.042969 C 146.648438 304.050781 148.96875 305.183594 149.832031 305.5625 C 150.714844 305.921875 151.378906 306.261719 151.34375 306.300781 C 151.234375 306.40625 147.3125 305.148438 144.128906 303.976562 C 134.644531 300.46875 126.042969 296.097656 117.660156 290.484375 C 114.007812 288.035156 108.449219 283.878906 108.808594 283.863281 C 108.863281 283.863281 110.28125 284.402344 111.957031 285.050781 Z M 134.519531 291.957031 C 140.691406 293.453125 149.742188 295.054688 156.722656 295.917969 C 160.214844 296.347656 159.671875 296.097656 163.21875 299.046875 C 167.535156 302.609375 175.273438 308.117188 179.394531 310.546875 C 179.863281 310.816406 180.222656 311.085938 180.167969 311.121094 C 180.078125 311.230469 174.339844 310.222656 171.925781 309.683594 C 158.628906 306.714844 145.730469 301.136719 134.320312 293.398438 C 131.910156 291.742188 131.246094 291.238281 131.496094 291.238281 C 131.550781 291.238281 132.898438 291.5625 134.519531 291.957031 Z M 236.882812 292.03125 C 236.882812 292.136719 231.878906 295.234375 229.503906 296.601562 C 222.164062 300.792969 213.328125 304.734375 204.890625 307.558594 C 202.675781 308.296875 200.839844 308.871094 200.804688 308.835938 C 200.769531 308.800781 201.902344 308.0625 203.34375 307.199219 C 207.824219 304.464844 212.5 300.972656 216.765625 297.175781 L 218.691406 295.449219 L 222.34375 294.875 C 226.121094 294.261719 232.886719 292.929688 235.261719 292.335938 C 236.828125 291.941406 236.882812 291.941406 236.882812 292.03125 Z M 213.023438 296.4375 C 209.207031 299.839844 201.507812 305.039062 196.757812 307.433594 L 195.605469 308.007812 L 196.054688 307.414062 C 197.511719 305.527344 200.15625 301.800781 201.578125 299.660156 C 202.730469 297.933594 203.359375 297.160156 203.648438 297.105469 C 203.863281 297.050781 205.59375 296.890625 207.464844 296.726562 C 209.351562 296.566406 211.367188 296.367188 211.960938 296.296875 C 213.09375 296.167969 213.3125 296.1875 213.023438 296.4375 Z M 169.679688 297.175781 C 171.371094 297.285156 173.3125 297.410156 174.03125 297.464844 L 175.328125 297.574219 L 176.625 299.390625 C 178.277344 301.730469 181.011719 305.308594 182.542969 307.164062 C 183.191406 307.953125 184.054688 309 184.433594 309.484375 L 185.152344 310.382812 L 184.070312 309.773438 C 181.949219 308.566406 178.800781 306.621094 175.902344 304.679688 C 173.113281 302.828125 167.355469 298.582031 165.988281 297.375 L 165.359375 296.816406 L 165.988281 296.90625 C 166.332031 296.941406 168.003906 297.070312 169.679688 297.175781 Z M 198.160156 299.28125 C 196.847656 301.242188 192.835938 306.660156 191.882812 307.757812 L 191.359375 308.351562 L 191.359375 297.714844 L 192.132812 297.699219 C 192.546875 297.679688 194.023438 297.609375 195.40625 297.554688 C 196.792969 297.484375 198.269531 297.410156 198.699219 297.390625 L 199.457031 297.355469 Z M 188.300781 303.382812 C 188.300781 306.496094 188.246094 309.050781 188.175781 309.050781 C 187.832031 309.035156 179.320312 298.273438 179.304688 297.84375 C 179.304688 297.769531 181.335938 297.714844 183.800781 297.714844 L 188.300781 297.714844 Z M 188.300781 303.382812 "/></g><g style="fill:#ffffff;fill-opacity:1;"><g transform="translate(186.208072, 178.958462)"><path style="stroke:none" d="M 0.328125 -0.046875 C 0.367188 -0.046875 0.40625 -0.0546875 0.4375 -0.078125 C 0.476562 -0.109375 0.503906 -0.140625 0.515625 -0.171875 L 0.59375 -0.171875 C 0.570312 -0.117188 0.535156 -0.0703125 0.484375 -0.03125 C 0.429688 0 0.378906 0.015625 0.328125 0.015625 C 0.273438 0.015625 0.222656 0.00390625 0.171875 -0.015625 C 0.128906 -0.046875 0.09375 -0.0820312 0.0625 -0.125 C 0.0390625 -0.164062 0.03125 -0.210938 0.03125 -0.265625 C 0.03125 -0.316406 0.0390625 -0.363281 0.0625 -0.40625 C 0.09375 -0.457031 0.128906 -0.492188 0.171875 -0.515625 C 0.222656 -0.546875 0.273438 -0.5625 0.328125 -0.5625 C 0.378906 -0.5625 0.425781 -0.546875 0.46875 -0.515625 C 0.507812 -0.492188 0.539062 -0.457031 0.5625 -0.40625 C 0.59375 -0.363281 0.609375 -0.316406 0.609375 -0.265625 L 0.609375 -0.25 L 0.109375 -0.25 C 0.109375 -0.207031 0.117188 -0.171875 0.140625 -0.140625 C 0.160156 -0.117188 0.1875 -0.0976562 0.21875 -0.078125 C 0.25 -0.0546875 0.285156 -0.046875 0.328125 -0.046875 Z M 0.328125 -0.5 C 0.285156 -0.5 0.25 -0.488281 0.21875 -0.46875 C 0.195312 -0.457031 0.175781 -0.4375 0.15625 -0.40625 C 0.132812 -0.375 0.117188 -0.34375 0.109375 -0.3125 L 0.53125 -0.3125 C 0.519531 -0.363281 0.492188 -0.40625 0.453125 -0.4375 C 0.421875 -0.476562 0.378906 -0.5 0.328125 -0.5 Z M 0.328125 -0.5 "/></g></g><g style="fill:#ffffff;fill-opacity:1;"><g transform="translate(186.858208, 178.958462)"><path style="stroke:none" d="M 0.546875 -0.09375 C 0.523438 -0.0625 0.492188 -0.0351562 0.453125 -0.015625 C 0.421875 0.00390625 0.382812 0.015625 0.34375 0.015625 C 0.28125 0.015625 0.226562 0.00390625 0.1875 -0.015625 C 0.144531 -0.046875 0.109375 -0.0820312 0.078125 -0.125 C 0.0546875 -0.164062 0.046875 -0.21875 0.046875 -0.28125 C 0.046875 -0.332031 0.0546875 -0.378906 0.078125 -0.421875 C 0.109375 -0.460938 0.144531 -0.492188 0.1875 -0.515625 C 0.226562 -0.546875 0.28125 -0.5625 0.34375 -0.5625 C 0.382812 -0.5625 0.421875 -0.550781 0.453125 -0.53125 C 0.492188 -0.507812 0.523438 -0.484375 0.546875 -0.453125 L 0.546875 -0.546875 L 0.625 -0.546875 L 0.625 0 L 0.546875 0 Z M 0.5625 -0.265625 C 0.5625 -0.304688 0.550781 -0.34375 0.53125 -0.375 C 0.507812 -0.414062 0.476562 -0.445312 0.4375 -0.46875 C 0.40625 -0.488281 0.367188 -0.5 0.328125 -0.5 C 0.285156 -0.5 0.25 -0.488281 0.21875 -0.46875 C 0.1875 -0.445312 0.160156 -0.421875 0.140625 -0.390625 C 0.117188 -0.359375 0.109375 -0.316406 0.109375 -0.265625 C 0.109375 -0.222656 0.117188 -0.1875 0.140625 -0.15625 C 0.160156 -0.125 0.1875 -0.0976562 0.21875 -0.078125 C 0.25 -0.0546875 0.289062 -0.046875 0.34375 -0.046875 C 0.375 -0.046875 0.40625 -0.0546875 0.4375 -0.078125 C 0.476562 -0.0976562 0.507812 -0.125 0.53125 -0.15625 C 0.550781 -0.195312 0.5625 -0.234375 0.5625 -0.265625 Z M 0.5625 -0.265625 "/></g></g><g style="fill:#ffffff;fill-opacity:1;"><g transform="translate(187.541351, 178.958462)"><path style="stroke:none" d="M 0.140625 -0.546875 L 0.140625 -0.46875 C 0.148438 -0.5 0.164062 -0.519531 0.1875 -0.53125 C 0.21875 -0.550781 0.253906 -0.5625 0.296875 -0.5625 L 0.296875 -0.484375 C 0.242188 -0.484375 0.203125 -0.46875 0.171875 -0.4375 C 0.148438 -0.40625 0.140625 -0.367188 0.140625 -0.328125 L 0.140625 0 L 0.0625 0 L 0.0625 -0.546875 Z M 0.140625 -0.546875 "/></g></g><g style="fill:#ffffff;fill-opacity:1;"><g transform="translate(187.842415, 178.958462)"><path style="stroke:none" d="M 0.015625 -0.484375 L 0.015625 -0.546875 L 0.125 -0.546875 L 0.125 -0.734375 L 0.203125 -0.734375 L 0.203125 -0.546875 L 0.328125 -0.546875 L 0.328125 -0.484375 L 0.203125 -0.484375 L 0.203125 0 L 0.125 0 L 0.125 -0.484375 Z M 0.015625 -0.484375 "/></g></g><g style="fill:#ffffff;fill-opacity:1;"><g transform="translate(188.181486, 178.958462)"><path style="stroke:none" d="M 0.296875 -0.5 C 0.242188 -0.5 0.203125 -0.476562 0.171875 -0.4375 C 0.140625 -0.40625 0.125 -0.363281 0.125 -0.3125 L 0.125 0 L 0.0625 0 L 0.0625 -0.734375 L 0.125 -0.734375 L 0.125 -0.484375 L 0.140625 -0.484375 C 0.148438 -0.503906 0.171875 -0.519531 0.203125 -0.53125 C 0.234375 -0.550781 0.265625 -0.5625 0.296875 -0.5625 C 0.347656 -0.5625 0.390625 -0.550781 0.421875 -0.53125 C 0.460938 -0.507812 0.492188 -0.476562 0.515625 -0.4375 C 0.535156 -0.394531 0.546875 -0.351562 0.546875 -0.3125 L 0.546875 0 L 0.46875 0 L 0.46875 -0.3125 C 0.46875 -0.34375 0.457031 -0.375 0.4375 -0.40625 C 0.425781 -0.4375 0.40625 -0.457031 0.375 -0.46875 C 0.351562 -0.488281 0.328125 -0.5 0.296875 -0.5 Z M 0.296875 -0.5 "/></g></g></g></svg>