<svg xmlns="http://www.w3.org/2000/svg" xmlns:xlink="http://www.w3.org/1999/xlink" width="500" zoomAndPan="magnify" viewBox="0 0 375 374.999991" height="500" preserveAspectRatio="xMidYMid meet" version="1.2"><defs><clipPath id="315d042067"><path d="M 59 86.609375 L 316 86.609375 L 316 288.359375 L 59 288.359375 Z M 59 86.609375 "/></clipPath></defs><g id="74d6f93c92"><g clip-rule="nonzero" clip-path="url(#315d042067)"><path style=" stroke:none;fill-rule:nonzero;fill:#ffffff;fill-opacity:1;" d="M 288.359375 86.609375 L 86.609375 86.609375 C 85.707031 86.609375 84.808594 86.65625 83.910156 86.742188 C 83.015625 86.832031 82.125 86.964844 81.242188 87.140625 C 80.359375 87.316406 79.484375 87.535156 78.621094 87.796875 C 77.761719 88.058594 76.914062 88.359375 76.082031 88.707031 C 75.246094 89.050781 74.433594 89.433594 73.640625 89.859375 C 72.84375 90.285156 72.074219 90.746094 71.324219 91.246094 C 70.574219 91.75 69.851562 92.285156 69.15625 92.855469 C 68.460938 93.425781 67.792969 94.03125 67.15625 94.667969 C 66.519531 95.304688 65.914062 95.972656 65.34375 96.667969 C 64.769531 97.367188 64.234375 98.089844 63.734375 98.835938 C 63.234375 99.585938 62.769531 100.359375 62.34375 101.152344 C 61.921875 101.949219 61.535156 102.761719 61.191406 103.59375 C 60.847656 104.425781 60.542969 105.273438 60.28125 106.136719 C 60.019531 107 59.800781 107.871094 59.625 108.753906 C 59.449219 109.640625 59.316406 110.527344 59.230469 111.425781 C 59.140625 112.324219 59.097656 113.222656 59.097656 114.121094 L 59.097656 260.847656 C 59.097656 261.75 59.140625 262.648438 59.230469 263.546875 C 59.316406 264.441406 59.449219 265.332031 59.625 266.214844 C 59.800781 267.101562 60.019531 267.972656 60.28125 268.835938 C 60.542969 269.699219 60.847656 270.546875 61.191406 271.378906 C 61.535156 272.210938 61.921875 273.023438 62.34375 273.816406 C 62.769531 274.613281 63.234375 275.386719 63.734375 276.132812 C 64.234375 276.882812 64.769531 277.605469 65.34375 278.300781 C 65.914062 279 66.519531 279.664062 67.15625 280.304688 C 67.792969 280.941406 68.460938 281.542969 69.15625 282.117188 C 69.851562 282.6875 70.574219 283.222656 71.324219 283.722656 C 72.074219 284.226562 72.84375 284.6875 73.640625 285.113281 C 74.433594 285.539062 75.246094 285.921875 76.082031 286.265625 C 76.914062 286.613281 77.761719 286.914062 78.621094 287.175781 C 79.484375 287.4375 80.359375 287.65625 81.242188 287.832031 C 82.125 288.007812 83.015625 288.140625 83.910156 288.226562 C 84.808594 288.316406 85.707031 288.359375 86.609375 288.359375 L 288.359375 288.359375 C 289.257812 288.359375 290.160156 288.316406 291.054688 288.226562 C 291.953125 288.140625 292.84375 288.007812 293.726562 287.832031 C 294.609375 287.65625 295.480469 287.4375 296.34375 287.175781 C 297.207031 286.914062 298.054688 286.613281 298.886719 286.265625 C 299.71875 285.921875 300.53125 285.539062 301.328125 285.113281 C 302.121094 284.6875 302.894531 284.226562 303.644531 283.722656 C 304.390625 283.222656 305.113281 282.6875 305.8125 282.117188 C 306.507812 281.542969 307.175781 280.941406 307.8125 280.304688 C 308.449219 279.664062 309.054688 279 309.625 278.300781 C 310.195312 277.605469 310.734375 276.882812 311.234375 276.132812 C 311.734375 275.386719 312.195312 274.613281 312.621094 273.816406 C 313.046875 273.023438 313.429688 272.210938 313.777344 271.378906 C 314.121094 270.546875 314.421875 269.699219 314.683594 268.835938 C 314.945312 267.972656 315.164062 267.101562 315.339844 266.214844 C 315.515625 265.332031 315.648438 264.441406 315.738281 263.546875 C 315.824219 262.648438 315.871094 261.75 315.871094 260.847656 L 315.871094 114.121094 C 315.871094 113.222656 315.824219 112.324219 315.738281 111.425781 C 315.648438 110.527344 315.515625 109.640625 315.339844 108.753906 C 315.164062 107.871094 314.945312 107 314.683594 106.136719 C 314.421875 105.273438 314.121094 104.425781 313.777344 103.59375 C 313.429688 102.761719 313.046875 101.949219 312.621094 101.152344 C 312.195312 100.359375 311.734375 99.585938 311.234375 98.835938 C 310.734375 98.089844 310.195312 97.367188 309.625 96.667969 C 309.054688 95.972656 308.449219 95.304688 307.8125 94.667969 C 307.175781 94.03125 306.507812 93.425781 305.8125 92.855469 C 305.113281 92.285156 304.390625 91.75 303.644531 91.246094 C 302.894531 90.746094 302.121094 90.285156 301.328125 89.859375 C 300.53125 89.433594 299.71875 89.050781 298.886719 88.707031 C 298.054688 88.359375 297.207031 88.058594 296.34375 87.796875 C 295.480469 87.535156 294.609375 87.316406 293.726562 87.140625 C 292.84375 86.964844 291.953125 86.832031 291.054688 86.742188 C 290.160156 86.65625 289.257812 86.609375 288.359375 86.609375 Z M 77.4375 116.875 L 154.011719 181.066406 L 153.460938 181.066406 L 77.4375 257.089844 Z M 187.484375 184.734375 L 91.742188 104.953125 L 283.222656 104.953125 Z M 166.484375 193.90625 C 166.96875 193.316406 167.363281 192.675781 167.675781 191.980469 L 181.613281 203.625 C 182.023438 203.964844 182.457031 204.269531 182.921875 204.535156 C 183.382812 204.796875 183.863281 205.023438 184.363281 205.203125 C 184.863281 205.382812 185.375 205.519531 185.898438 205.613281 C 186.421875 205.703125 186.953125 205.75 187.484375 205.75 C 188.015625 205.75 188.542969 205.703125 189.066406 205.613281 C 189.59375 205.519531 190.105469 205.382812 190.605469 205.203125 C 191.105469 205.023438 191.585938 204.796875 192.046875 204.535156 C 192.507812 204.269531 192.945312 203.964844 193.351562 203.625 L 207.292969 191.980469 C 207.601562 192.675781 208 193.316406 208.484375 193.90625 L 284.597656 270.019531 L 90.367188 270.019531 Z M 221.507812 180.882812 L 220.957031 180.882812 L 297.527344 116.875 L 297.527344 257.089844 Z M 221.507812 180.882812 "/></g><g style="fill:#ffffff;fill-opacity:1;"><g transform="translate(186.16355, 289.122496)"><path style="stroke:none" d="M 0.328125 -0.046875 C 0.367188 -0.046875 0.40625 -0.0546875 0.4375 -0.078125 C 0.476562 -0.109375 0.503906 -0.140625 0.515625 -0.171875 L 0.59375 -0.171875 C 0.570312 -0.117188 0.535156 -0.0703125 0.484375 -0.03125 C 0.429688 0 0.378906 0.015625 0.328125 0.015625 C 0.273438 0.015625 0.222656 0.00390625 0.171875 -0.015625 C 0.128906 -0.046875 0.09375 -0.0820312 0.0625 -0.125 C 0.0390625 -0.164062 0.03125 -0.210938 0.03125 -0.265625 C 0.03125 -0.316406 0.0390625 -0.363281 0.0625 -0.40625 C 0.09375 -0.457031 0.128906 -0.492188 0.171875 -0.515625 C 0.222656 -0.546875 0.273438 -0.5625 0.328125 -0.5625 C 0.378906 -0.5625 0.425781 -0.546875 0.46875 -0.515625 C 0.507812 -0.492188 0.539062 -0.457031 0.5625 -0.40625 C 0.59375 -0.363281 0.609375 -0.316406 0.609375 -0.265625 L 0.609375 -0.25 L 0.109375 -0.25 C 0.109375 -0.207031 0.117188 -0.171875 0.140625 -0.140625 C 0.160156 -0.117188 0.1875 -0.0976562 0.21875 -0.078125 C 0.25 -0.0546875 0.285156 -0.046875 0.328125 -0.046875 Z M 0.328125 -0.5 C 0.285156 -0.5 0.25 -0.488281 0.21875 -0.46875 C 0.195312 -0.457031 0.175781 -0.4375 0.15625 -0.40625 C 0.132812 -0.375 0.117188 -0.34375 0.109375 -0.3125 L 0.53125 -0.3125 C 0.519531 -0.363281 0.492188 -0.40625 0.453125 -0.4375 C 0.421875 -0.476562 0.378906 -0.5 0.328125 -0.5 Z M 0.328125 -0.5 "/></g></g><g style="fill:#ffffff;fill-opacity:1;"><g transform="translate(186.813685, 289.122496)"><path style="stroke:none" d="M 0.65625 -0.5 C 0.601562 -0.5 0.5625 -0.484375 0.53125 -0.453125 C 0.507812 -0.421875 0.5 -0.375 0.5 -0.3125 L 0.5 0 L 0.4375 0 L 0.4375 -0.3125 C 0.4375 -0.375 0.421875 -0.421875 0.390625 -0.453125 C 0.367188 -0.484375 0.332031 -0.5 0.28125 -0.5 C 0.238281 -0.5 0.203125 -0.484375 0.171875 -0.453125 C 0.148438 -0.421875 0.140625 -0.375 0.140625 -0.3125 L 0.140625 0 L 0.0625 0 L 0.0625 -0.546875 L 0.140625 -0.546875 L 0.140625 -0.484375 C 0.148438 -0.503906 0.164062 -0.519531 0.1875 -0.53125 C 0.21875 -0.550781 0.25 -0.5625 0.28125 -0.5625 C 0.320312 -0.5625 0.359375 -0.550781 0.390625 -0.53125 C 0.421875 -0.507812 0.445312 -0.484375 0.46875 -0.453125 C 0.507812 -0.523438 0.570312 -0.5625 0.65625 -0.5625 C 0.695312 -0.5625 0.734375 -0.550781 0.765625 -0.53125 C 0.796875 -0.507812 0.820312 -0.476562 0.84375 -0.4375 C 0.863281 -0.40625 0.875 -0.367188 0.875 -0.328125 L 0.875 0 L 0.796875 0 L 0.796875 -0.328125 C 0.796875 -0.378906 0.78125 -0.421875 0.75 -0.453125 C 0.726562 -0.484375 0.695312 -0.5 0.65625 -0.5 Z M 0.65625 -0.5 "/></g></g><g style="fill:#ffffff;fill-opacity:1;"><g transform="translate(187.751882, 289.122496)"><path style="stroke:none" d="M 0.546875 -0.09375 C 0.523438 -0.0625 0.492188 -0.0351562 0.453125 -0.015625 C 0.421875 0.00390625 0.382812 0.015625 0.34375 0.015625 C 0.28125 0.015625 0.226562 0.00390625 0.1875 -0.015625 C 0.144531 -0.046875 0.109375 -0.0820312 0.078125 -0.125 C 0.0546875 -0.164062 0.046875 -0.21875 0.046875 -0.28125 C 0.046875 -0.332031 0.0546875 -0.378906 0.078125 -0.421875 C 0.109375 -0.460938 0.144531 -0.492188 0.1875 -0.515625 C 0.226562 -0.546875 0.28125 -0.5625 0.34375 -0.5625 C 0.382812 -0.5625 0.421875 -0.550781 0.453125 -0.53125 C 0.492188 -0.507812 0.523438 -0.484375 0.546875 -0.453125 L 0.546875 -0.546875 L 0.625 -0.546875 L 0.625 0 L 0.546875 0 Z M 0.5625 -0.265625 C 0.5625 -0.304688 0.550781 -0.34375 0.53125 -0.375 C 0.507812 -0.414062 0.476562 -0.445312 0.4375 -0.46875 C 0.40625 -0.488281 0.367188 -0.5 0.328125 -0.5 C 0.285156 -0.5 0.25 -0.488281 0.21875 -0.46875 C 0.1875 -0.445312 0.160156 -0.421875 0.140625 -0.390625 C 0.117188 -0.359375 0.109375 -0.316406 0.109375 -0.265625 C 0.109375 -0.222656 0.117188 -0.1875 0.140625 -0.15625 C 0.160156 -0.125 0.1875 -0.0976562 0.21875 -0.078125 C 0.25 -0.0546875 0.289062 -0.046875 0.34375 -0.046875 C 0.375 -0.046875 0.40625 -0.0546875 0.4375 -0.078125 C 0.476562 -0.0976562 0.507812 -0.125 0.53125 -0.15625 C 0.550781 -0.195312 0.5625 -0.234375 0.5625 -0.265625 Z M 0.5625 -0.265625 "/></g></g><g style="fill:#ffffff;fill-opacity:1;"><g transform="translate(188.435025, 289.122496)"><path style="stroke:none" d="M 0.140625 -0.734375 L 0.140625 -0.609375 L 0.0625 -0.609375 L 0.0625 -0.734375 Z M 0.140625 -0.546875 L 0.140625 0 L 0.0625 0 L 0.0625 -0.546875 Z M 0.140625 -0.546875 "/></g></g><g style="fill:#ffffff;fill-opacity:1;"><g transform="translate(188.635067, 289.122496)"><path style="stroke:none" d="M 0.140625 -0.734375 L 0.140625 0 L 0.0625 0 L 0.0625 -0.734375 Z M 0.140625 -0.734375 "/></g></g></g></svg>