<svg xmlns="http://www.w3.org/2000/svg" xmlns:xlink="http://www.w3.org/1999/xlink" width="500" zoomAndPan="magnify" viewBox="0 0 375 374.999991" height="500" preserveAspectRatio="xMidYMid meet" version="1.2"><defs><clipPath id="3f50679e6a"><path d="M 167 337 L 176 337 L 176 342.4375 L 167 342.4375 Z M 167 337 "/></clipPath><clipPath id="77cf0b67a3"><path d="M 172 63.4375 L 201 63.4375 L 201 72 L 172 72 Z M 172 63.4375 "/></clipPath><clipPath id="0df597f397"><path d="M 54.550781 78 L 211 78 L 211 339 L 54.550781 339 Z M 54.550781 78 "/></clipPath><clipPath id="5b32cc9f49"><path d="M 272 32.402344 L 289 32.402344 L 289 49 L 272 49 Z M 272 32.402344 "/></clipPath></defs><g id="e9e33b4375"><g clip-rule="nonzero" clip-path="url(#3f50679e6a)"><path style=" stroke:none;fill-rule:nonzero;fill:#ffffff;fill-opacity:1;" d="M 170.804688 342.445312 C 169.574219 342.445312 168.398438 342.226562 168.5 341.652344 C 168.6875 340.597656 166.5625 339.953125 167.46875 339.355469 C 168.375 338.753906 167.648438 338.1875 168.035156 337.550781 C 168.089844 337.453125 168.214844 337.410156 168.378906 337.410156 C 169.3125 337.410156 171.675781 338.769531 172.292969 339.621094 C 173.023438 340.621094 175.671875 340.984375 175.734375 342.085938 C 175.734375 342.085938 174.976562 341.84375 174.238281 341.84375 C 173.882812 341.84375 173.539062 341.894531 173.277344 342.0625 C 172.90625 342.289062 171.839844 342.445312 170.804688 342.445312 "/></g><path style=" stroke:none;fill-rule:nonzero;fill:#ffffff;fill-opacity:1;" d="M 181.125 231.574219 C 180.546875 231.574219 180.03125 231.398438 179.894531 230.933594 C 179.667969 230.117188 179.824219 229.808594 179.695312 229.808594 C 179.652344 229.808594 179.570312 229.84375 179.429688 229.914062 C 179.394531 229.929688 179.367188 229.9375 179.347656 229.9375 C 179.074219 229.9375 180.371094 228.3125 180.371094 228.3125 C 180.371094 228.3125 180.886719 228.234375 181.46875 228.234375 C 182.109375 228.234375 182.824219 228.328125 183.027344 228.726562 C 183.417969 229.484375 183.414062 230.328125 183.019531 230.921875 C 182.792969 231.261719 181.90625 231.574219 181.125 231.574219 "/><path style=" stroke:none;fill-rule:nonzero;fill:#ffffff;fill-opacity:1;" d="M 185.683594 122.394531 C 182.601562 122.394531 178.5 121.335938 178.5 121.335938 C 178.390625 121.335938 178.339844 121.335938 178.230469 121.335938 C 178.230469 121.335938 182.746094 114.742188 185.34375 114.695312 C 184.445312 116.972656 186.175781 118.507812 187.570312 118.507812 C 187.734375 118.507812 187.898438 118.484375 188.046875 118.441406 C 188.046875 118.441406 188.167969 118.359375 188.324219 118.359375 C 188.640625 118.359375 189.109375 118.710938 189.027344 120.839844 C 188.980469 122.023438 187.511719 122.394531 185.683594 122.394531 "/><path style=" stroke:none;fill-rule:nonzero;fill:#ffffff;fill-opacity:1;" d="M 162.945312 92.136719 C 162.914062 92.136719 162.882812 92.132812 162.847656 92.117188 C 162.492188 91.976562 160.789062 90.699219 159.847656 90.699219 C 159.523438 90.699219 159.285156 90.859375 159.238281 91.273438 C 159.238281 91.273438 159.195312 91.96875 158.652344 92.0625 C 158.53125 92.082031 158.328125 92.101562 158.101562 92.101562 C 157.324219 92.101562 156.28125 91.847656 157.3125 90.414062 C 158.464844 88.8125 159.03125 88.25 159.804688 88.25 C 159.925781 88.25 160.054688 88.265625 160.191406 88.289062 C 161.191406 88.484375 163.527344 89.191406 163.480469 90.15625 C 163.441406 91.050781 163.347656 92.136719 162.945312 92.136719 "/><path style=" stroke:none;fill-rule:nonzero;fill:#ffffff;fill-opacity:1;" d="M 150.511719 84.769531 C 150.433594 84.769531 150.398438 84.738281 150.414062 84.660156 C 150.527344 84.058594 148.6875 84.167969 149.453125 83.285156 C 150.207031 82.394531 150.914062 82.152344 150.914062 82.152344 C 150.980469 82.140625 151.082031 82.136719 151.203125 82.136719 C 151.4375 82.136719 151.75 82.15625 152.027344 82.179688 C 152.304688 82.199219 152.546875 82.21875 152.65625 82.21875 C 152.683594 82.21875 152.703125 82.214844 152.707031 82.214844 L 153.5 82.300781 C 153.464844 82.640625 153.453125 82.8125 153.417969 83.15625 C 153.417969 83.15625 151.035156 84.769531 150.511719 84.769531 "/><path style=" stroke:none;fill-rule:nonzero;fill:#ffffff;fill-opacity:1;" d="M 135.53125 86.785156 C 132.890625 86.785156 131.222656 85.421875 131.222656 85.421875 C 133.152344 84.96875 134.128906 84.75 136.085938 84.339844 C 136.132812 84.0625 136.164062 83.921875 136.210938 83.640625 C 134.597656 83.980469 133.796875 84.160156 132.199219 84.535156 C 132.269531 84.175781 132.308594 83.996094 132.382812 83.644531 C 132.382812 83.644531 133.910156 83.527344 134.152344 83.140625 C 134.398438 82.75 134.359375 82.464844 132.820312 82.320312 C 132.785156 82.316406 132.75 82.316406 132.714844 82.316406 C 131.136719 82.316406 128.0625 85.316406 128.0625 85.316406 C 127.691406 84.601562 127.503906 84.25 127.148438 83.554688 C 132.179688 78.910156 135.277344 77.726562 137.132812 77.726562 C 139.058594 77.726562 139.636719 79.003906 139.636719 79.003906 C 140.808594 79.144531 141.398438 79.21875 142.59375 79.386719 C 143.277344 78.867188 143.617188 78.613281 144.300781 78.101562 C 144.488281 78.765625 144.585938 79.101562 144.785156 79.773438 C 145.5 78.949219 145.855469 78.53125 146.5625 77.710938 C 147.339844 77.582031 147.738281 77.515625 148.519531 77.398438 C 148.519531 77.398438 146.375 80.703125 146.960938 80.703125 C 146.964844 80.703125 146.976562 80.703125 146.988281 80.699219 C 147.015625 80.699219 147.039062 80.695312 147.066406 80.695312 C 147.738281 80.695312 148.621094 81.863281 148.621094 81.863281 C 148.621094 81.863281 147.097656 82.976562 145.316406 84.210938 C 144.675781 84.660156 144.152344 84.796875 143.667969 84.796875 C 143.292969 84.796875 142.933594 84.710938 142.558594 84.625 C 142.179688 84.539062 141.78125 84.457031 141.316406 84.457031 C 141.207031 84.457031 141.089844 84.464844 140.972656 84.472656 C 139.226562 84.636719 140.023438 86.195312 136.707031 86.691406 C 136.300781 86.753906 135.90625 86.785156 135.53125 86.785156 "/><path style=" stroke:none;fill-rule:nonzero;fill:#ffffff;fill-opacity:1;" d="M 85.113281 118.429688 C 85.074219 118.429688 85.046875 118.402344 85.042969 118.332031 C 85.011719 117.894531 85.589844 117.203125 85.9375 116.757812 C 86.160156 116.464844 86.609375 116.128906 86.777344 116.128906 C 86.867188 116.128906 86.882812 116.222656 86.742188 116.472656 C 86.605469 116.714844 86.59375 116.78125 86.640625 116.78125 C 86.667969 116.78125 86.714844 116.757812 86.769531 116.738281 C 86.820312 116.71875 86.886719 116.695312 86.941406 116.695312 C 87.023438 116.695312 87.089844 116.734375 87.125 116.867188 C 87.257812 117.363281 87.414062 117.578125 87 117.792969 C 86.914062 117.835938 86.820312 117.859375 86.71875 117.859375 C 86.355469 117.859375 85.972656 117.601562 85.972656 117.601562 C 85.972656 117.601562 85.335938 118.429688 85.113281 118.429688 "/><path style=" stroke:none;fill-rule:nonzero;fill:#ffffff;fill-opacity:1;" d="M 84.449219 120.933594 C 84.449219 120.933594 84.429688 119.425781 86.042969 118.8125 C 86.210938 118.753906 86.332031 118.726562 86.421875 118.726562 C 87.210938 118.726562 85.347656 120.894531 85.347656 120.894531 C 84.984375 120.910156 84.804688 120.917969 84.449219 120.933594 "/><path style=" stroke:none;fill-rule:nonzero;fill:#ffffff;fill-opacity:1;" d="M 83.105469 131.054688 C 83.105469 131.054688 81.410156 130.785156 81.386719 129.417969 C 81.386719 129.417969 82.046875 127.21875 83.703125 127.21875 C 83.804688 127.21875 83.910156 127.226562 84.023438 127.246094 C 85.914062 127.554688 84.710938 130.316406 84.894531 130.585938 C 85.074219 130.863281 83.105469 131.054688 83.105469 131.054688 "/><path style=" stroke:none;fill-rule:nonzero;fill:#ffffff;fill-opacity:1;" d="M 154.085938 79.484375 C 153.625 79.484375 153.085938 79.382812 153.085938 79.382812 C 153.085938 79.382812 153.355469 78.605469 151.539062 77.976562 C 151.496094 77.664062 151.472656 77.507812 151.429688 77.199219 C 151.488281 77.164062 151.914062 77.15625 152.335938 77.15625 C 152.765625 77.15625 153.1875 77.167969 153.1875 77.167969 C 153.1875 77.167969 153.40625 77.640625 153.816406 77.640625 C 153.863281 77.640625 153.914062 77.632812 153.964844 77.617188 C 154.472656 77.480469 154.75 76.074219 154.75 76.074219 C 155.15625 76.023438 155.355469 76 155.765625 75.953125 C 156.894531 75.535156 157.460938 75.328125 158.59375 74.925781 C 158.59375 74.925781 158.261719 77.84375 155.96875 78.371094 C 155.054688 78.46875 154.871094 78.996094 154.6875 79.320312 C 154.617188 79.445312 154.367188 79.484375 154.085938 79.484375 "/><path style=" stroke:none;fill-rule:nonzero;fill:#ffffff;fill-opacity:1;" d="M 159.453125 77.359375 C 159.328125 77.359375 159.1875 77.347656 159.035156 77.328125 C 159.035156 77.328125 158.574219 75.6875 161.265625 74.757812 C 162.445312 74.347656 163.113281 74.234375 163.492188 74.234375 C 163.980469 74.234375 163.988281 74.421875 163.988281 74.421875 C 163.742188 75.148438 163.613281 75.515625 163.359375 76.246094 C 163.359375 76.246094 162.390625 75.929688 161.695312 75.929688 C 161.445312 75.929688 161.226562 75.972656 161.105469 76.085938 C 160.6875 76.460938 160.722656 77.359375 159.453125 77.359375 "/><path style=" stroke:none;fill-rule:nonzero;fill:#ffffff;fill-opacity:1;" d="M 180.121094 94.023438 C 179.285156 94.023438 177.707031 93.785156 177.644531 93.761719 C 177.574219 93.738281 173.753906 92.078125 173.558594 89.273438 C 173.558594 89.316406 173.460938 89.335938 173.304688 89.335938 C 172.761719 89.335938 171.53125 89.109375 171.53125 89.109375 C 171.53125 89.109375 170.925781 90.125 169.675781 90.125 C 169.5 90.125 169.304688 90.101562 169.097656 90.054688 C 167.496094 89.683594 168.148438 87.976562 171.6875 87.976562 C 171.773438 87.976562 171.855469 87.980469 171.945312 87.984375 C 173.886719 88.027344 173.890625 88.035156 173.890625 88.035156 C 174.46875 86.910156 174.785156 86.289062 176.820312 85.523438 C 176.855469 85.511719 176.894531 85.507812 176.933594 85.507812 C 177.511719 85.507812 178.886719 86.625 178.886719 86.625 C 179.527344 86.261719 179.847656 86.082031 180.484375 85.722656 C 180.484375 85.722656 175.699219 81.386719 174.988281 79.828125 C 174.785156 79.382812 174.523438 79.214844 174.246094 79.214844 C 173.546875 79.214844 172.722656 80.234375 172.308594 80.539062 C 172.058594 80.722656 171.722656 80.777344 171.417969 80.777344 C 171.011719 80.777344 170.660156 80.683594 170.660156 80.683594 C 170.660156 80.683594 168.785156 80.015625 167.722656 80.015625 C 167.457031 80.015625 167.246094 80.058594 167.121094 80.160156 C 166.871094 80.375 166.394531 80.457031 165.914062 80.457031 C 165.242188 80.457031 164.570312 80.300781 164.539062 80.164062 C 164.476562 79.9375 163.777344 78.257812 163.777344 78.257812 C 163.777344 78.257812 166.296875 74.578125 169.414062 74.578125 C 169.640625 74.578125 169.875 74.601562 170.109375 74.644531 C 170.105469 74.90625 170.101562 75.039062 170.09375 75.296875 C 170.40625 75.40625 170.5625 75.457031 170.878906 75.566406 C 170.878906 75.566406 171.160156 75.671875 171.484375 75.671875 C 171.863281 75.671875 172.304688 75.523438 172.402344 74.886719 C 173.109375 74.863281 173.464844 74.851562 174.175781 74.835938 C 175.480469 75.832031 176.148438 76.339844 177.488281 77.371094 C 178.398438 77.015625 178.855469 76.839844 179.761719 76.5 C 179.761719 76.5 180.949219 78.882812 185.152344 80.289062 C 185.25 80.824219 185.300781 81.089844 185.398438 81.625 C 185.398438 81.625 186.882812 84.832031 188.40625 85.546875 C 189.921875 86.265625 186.839844 88.433594 186.839844 88.433594 C 185.441406 87.671875 184.738281 87.300781 183.351562 86.566406 C 183.351562 86.566406 183.261719 86.550781 183.140625 86.550781 C 182.746094 86.550781 181.980469 86.730469 182.539062 88.269531 C 183.277344 90.289062 183.058594 91.230469 182.480469 92.054688 C 182.402344 92.164062 182.316406 92.207031 182.214844 92.207031 C 181.929688 92.207031 181.558594 91.789062 181.140625 91.367188 C 180.730469 90.949219 180.269531 90.527344 179.808594 90.527344 C 179.726562 90.527344 179.652344 90.539062 179.570312 90.566406 C 178.410156 90.953125 179.214844 92.039062 180.46875 92.496094 C 181.722656 92.945312 180.914062 93.75 180.59375 93.960938 C 180.523438 94.007812 180.351562 94.023438 180.121094 94.023438 "/><path style=" stroke:none;fill-rule:nonzero;fill:#ffffff;fill-opacity:1;" d="M 177.09375 74.0625 C 176.695312 74.058594 176.394531 74.058594 176.09375 74.058594 C 175.792969 74.058594 175.488281 74.058594 175.089844 74.0625 C 175.101562 73.855469 175.105469 73.753906 175.117188 73.550781 C 174.664062 73.550781 174.269531 73.550781 173.898438 73.550781 C 172.671875 73.550781 171.757812 73.5625 170.28125 73.597656 C 170.265625 73.433594 170.257812 73.351562 170.242188 73.191406 C 170.242188 73.191406 166.40625 73.402344 166.300781 73.410156 C 166.300781 73.367188 166.386719 71.050781 168.671875 71.050781 C 169.515625 71.050781 170.652344 71.367188 172.195312 72.222656 C 174.882812 72.097656 176.242188 72.0625 178.925781 72.042969 C 178.925781 72.042969 179.476562 72.90625 177.09375 74.0625 M 166.300781 73.410156 C 166.296875 73.410156 166.296875 73.410156 166.300781 73.410156 "/><path style=" stroke:none;fill-rule:nonzero;fill:#ffffff;fill-opacity:1;" d="M 174.605469 67.742188 C 174.605469 67.742188 170.78125 67.324219 170.730469 67.179688 C 170.136719 65.464844 173.71875 64.25 175.167969 64.25 C 175.289062 64.25 175.386719 64.257812 175.476562 64.277344 C 176.628906 64.488281 177.710938 66.269531 176.410156 66.320312 C 175.105469 66.371094 174.605469 67.742188 174.605469 67.742188 "/><g clip-rule="nonzero" clip-path="url(#77cf0b67a3)"><path style=" stroke:none;fill-rule:nonzero;fill:#ffffff;fill-opacity:1;" d="M 180.570312 71.8125 C 180.167969 71.8125 179.746094 71.507812 179.746094 71.507812 C 179.746094 71.507812 178.210938 70.191406 177.917969 70.191406 C 177.910156 70.191406 177.90625 70.195312 177.902344 70.195312 C 177.675781 70.269531 176.457031 70.363281 176.457031 70.363281 C 176.457031 70.363281 175.136719 70.730469 174.464844 70.730469 C 174.324219 70.730469 174.210938 70.710938 174.144531 70.675781 C 173.761719 70.453125 172.4375 69.097656 172.4375 69.097656 C 173.839844 69.066406 174.800781 69.054688 175.882812 69.054688 C 176.503906 69.054688 177.171875 69.058594 177.976562 69.066406 C 177.976562 68.765625 177.976562 68.621094 177.976562 68.320312 C 177.503906 68.316406 177.269531 68.3125 176.796875 68.308594 C 176.882812 67.953125 176.925781 67.773438 177.003906 67.414062 C 177.671875 67.417969 178.003906 67.421875 178.660156 67.429688 C 178.664062 67.710938 178.667969 67.851562 178.671875 68.128906 C 179.132812 68.136719 179.359375 68.140625 179.820312 68.152344 C 179.820312 68.152344 177.953125 66.015625 179.136719 66.015625 C 179.144531 66.015625 179.152344 66.015625 179.15625 66.015625 C 179.257812 66.015625 185.628906 66.273438 186.453125 66.332031 L 186.535156 66.335938 C 186.925781 65.957031 187.125 65.765625 187.507812 65.390625 C 184.539062 65.007812 183.042969 64.855469 180.039062 64.621094 C 180.03125 64.21875 180.03125 64.015625 180.023438 63.613281 C 182.90625 63.492188 185.292969 63.425781 187.496094 63.425781 C 191.816406 63.425781 195.4375 63.679688 200.746094 64.25 L 200.792969 64.253906 L 200.792969 64.257812 C 201.023438 67.042969 194.144531 66.167969 189.550781 67.246094 C 189.550781 67.246094 181.523438 70.394531 181.179688 71.34375 C 181.050781 71.699219 180.816406 71.8125 180.570312 71.8125 "/></g><path style=" stroke:none;fill-rule:nonzero;fill:#ffffff;fill-opacity:1;" d="M 207.261719 98.773438 C 206.367188 98.773438 205.421875 98.421875 204.769531 97.292969 C 203.226562 94.625 200.210938 96.273438 201.421875 90.652344 C 202.632812 85.027344 199.855469 86.410156 201.523438 85.582031 C 203.191406 84.757812 203.710938 79.457031 203.710938 79.457031 L 202.515625 78.738281 C 202.515625 78.738281 201.65625 72.910156 198.921875 72.804688 C 189.917969 72.457031 190.734375 68.480469 190.734375 68.480469 C 190.679688 68.175781 191.367188 68.144531 192.492188 68.144531 C 192.621094 68.144531 192.761719 68.144531 192.902344 68.144531 C 193.046875 68.148438 193.195312 68.148438 193.347656 68.148438 C 195.757812 68.148438 199.425781 68.050781 202.546875 66.339844 C 202.894531 66.242188 203.265625 66.203125 203.65625 66.203125 C 206.601562 66.203125 210.625 68.660156 212.367188 68.945312 C 217.703125 69.585938 220.285156 70.046875 225.265625 71.25 C 229.058594 72.820312 230.929688 73.664062 234.617188 75.46875 C 234.617188 75.46875 236.292969 76.515625 237.472656 77.699219 C 238.652344 78.882812 241.332031 79.460938 241.332031 79.460938 C 241.332031 79.460938 241.574219 80.199219 240.769531 80.199219 C 240.464844 80.199219 240.007812 80.09375 239.332031 79.796875 C 237.636719 79.0625 237.335938 78.949219 237.3125 78.949219 C 237.304688 78.949219 237.347656 78.972656 237.347656 78.972656 C 237.097656 79.554688 236.964844 79.855469 236.683594 80.464844 C 236.683594 80.464844 237.390625 80.949219 237.332031 81.417969 C 237.265625 81.882812 236.765625 83.875 236.371094 84.292969 C 236.167969 84.511719 234.875 84.644531 233.644531 84.644531 C 232.867188 84.644531 232.113281 84.59375 231.664062 84.472656 C 232.679688 85.273438 235.296875 87.6875 235.6875 88.40625 C 235.863281 88.734375 235.695312 88.839844 235.398438 88.839844 C 234.855469 88.839844 233.871094 88.46875 233.871094 88.46875 C 233.871094 88.46875 231.597656 85.785156 231.101562 85.785156 C 231.085938 85.785156 231.066406 85.792969 231.054688 85.800781 C 230.691406 86.042969 231.273438 86.613281 231.277344 87.054688 C 231.277344 87.285156 231.03125 87.316406 230.777344 87.316406 C 230.730469 87.316406 230.6875 87.3125 230.640625 87.3125 C 230.597656 87.3125 230.554688 87.3125 230.511719 87.3125 C 230.378906 87.3125 230.269531 87.320312 230.222656 87.371094 C 230.082031 87.527344 231.109375 88.316406 231.535156 88.316406 C 231.5625 88.316406 231.589844 88.3125 231.609375 88.304688 C 231.679688 88.28125 231.789062 88.273438 231.917969 88.273438 C 232.445312 88.273438 233.320312 88.429688 233.320312 88.429688 C 233.320312 88.429688 234.503906 89.753906 234.417969 89.992188 C 234.386719 90.058594 233.953125 90.085938 233.328125 90.085938 C 231.714844 90.085938 228.820312 89.921875 228.226562 89.902344 C 227.394531 89.871094 226.019531 89.480469 225.820312 88.773438 C 225.792969 88.671875 225.675781 88.628906 225.5 88.628906 C 224.425781 88.628906 221.082031 90.230469 220.691406 90.941406 C 220.378906 91.507812 218.070312 91.691406 216.390625 91.691406 C 215.605469 91.691406 214.960938 91.652344 214.71875 91.59375 C 214.710938 91.589844 214.699219 91.589844 214.6875 91.589844 C 213.859375 91.589844 210.066406 97.523438 209.78125 97.898438 C 209.617188 98.121094 208.488281 98.773438 207.261719 98.773438 "/><path style=" stroke:none;fill-rule:nonzero;fill:#ffffff;fill-opacity:1;" d="M 240.15625 100.382812 C 239.808594 100.382812 239.5625 100.355469 239.472656 100.296875 C 239.011719 99.984375 235.398438 98.582031 234.855469 97.691406 C 234.828125 97.585938 234.816406 97.53125 234.792969 97.425781 C 234.839844 97.214844 235.566406 95.703125 236.902344 95.703125 C 237.03125 95.703125 237.160156 95.714844 237.300781 95.746094 C 238.738281 96.058594 240.207031 96.546875 240.871094 96.546875 C 240.941406 96.546875 241 96.542969 241.050781 96.53125 C 241.074219 96.523438 241.097656 96.519531 241.125 96.519531 C 241.773438 96.519531 243.871094 97.820312 244.445312 98.921875 C 244.9375 99.847656 241.652344 100.382812 240.15625 100.382812 "/><path style=" stroke:none;fill-rule:nonzero;fill:#ffffff;fill-opacity:1;" d="M 130.714844 173.316406 C 130.238281 172.414062 130.007812 171.964844 129.539062 171.070312 C 129.722656 170.542969 129.8125 170.277344 130 169.75 C 130.46875 169.730469 130.707031 169.71875 131.179688 169.703125 C 131.195312 169.296875 131.203125 169.089844 131.222656 168.679688 C 130.820312 168.695312 130.617188 168.707031 130.222656 168.722656 C 130.273438 167.824219 130.304688 167.378906 130.355469 166.480469 C 131.816406 166.417969 132.542969 166.386719 134.015625 166.328125 C 134.132812 167.382812 134.195312 167.910156 134.316406 168.96875 C 133.589844 169.0625 133.222656 169.109375 132.496094 169.199219 C 132.597656 169.621094 132.648438 169.832031 132.75 170.253906 C 132.75 170.253906 132.636719 170.226562 132.46875 170.226562 C 132.082031 170.226562 131.429688 170.363281 131.269531 171.25 C 131.035156 172.527344 131.804688 173.277344 131.804688 173.277344 C 131.367188 173.296875 131.152344 173.304688 130.714844 173.316406 "/><path style=" stroke:none;fill-rule:nonzero;fill:#ffffff;fill-opacity:1;" d="M 135.710938 173.605469 C 135.347656 173.605469 135.066406 173.175781 135.085938 172.632812 C 135.101562 172.09375 135.417969 171.636719 135.789062 171.625 C 135.792969 171.625 135.796875 171.625 135.800781 171.625 C 136.167969 171.625 136.445312 172.058594 136.429688 172.597656 C 136.414062 173.140625 136.097656 173.59375 135.726562 173.605469 C 135.722656 173.605469 135.714844 173.605469 135.710938 173.605469 "/><path style=" stroke:none;fill-rule:nonzero;fill:#ffffff;fill-opacity:1;" d="M 135.9375 175.5 C 135.414062 175.5 135.003906 175.265625 135.011719 174.96875 C 135.023438 174.660156 135.472656 174.398438 136.019531 174.378906 C 136.039062 174.378906 136.058594 174.378906 136.074219 174.378906 C 136.597656 174.378906 137.003906 174.613281 136.996094 174.914062 C 136.988281 175.21875 136.539062 175.484375 135.988281 175.496094 C 135.96875 175.5 135.957031 175.5 135.9375 175.5 "/><path style=" stroke:none;fill-rule:nonzero;fill:#ffffff;fill-opacity:1;" d="M 136.707031 179.050781 C 135.914062 179.050781 135.289062 178.585938 135.304688 178.003906 C 135.316406 177.40625 135.996094 176.90625 136.808594 176.886719 C 136.832031 176.882812 136.847656 176.882812 136.867188 176.882812 C 137.660156 176.882812 138.285156 177.34375 138.269531 177.929688 C 138.253906 178.527344 137.578125 179.027344 136.757812 179.050781 C 136.738281 179.050781 136.726562 179.050781 136.707031 179.050781 "/><path style=" stroke:none;fill-rule:nonzero;fill:#ffffff;fill-opacity:1;" d="M 133.222656 183.144531 C 132.90625 183.144531 132.703125 183.132812 132.703125 183.132812 C 132.703125 183.132812 131.082031 182.484375 129.746094 182.484375 C 129.445312 182.484375 129.160156 182.515625 128.910156 182.597656 C 128.792969 182.636719 128.699219 182.652344 128.628906 182.652344 C 127.859375 182.652344 129.371094 180.683594 129.371094 180.683594 C 129.371094 180.683594 126.648438 178.117188 122.730469 177.808594 C 122.730469 177.808594 122.476562 177.734375 122.097656 177.734375 C 121.492188 177.734375 120.554688 177.925781 119.792969 178.925781 C 119.078125 178.886719 118.722656 178.867188 118.007812 178.828125 C 118.136719 178.257812 119.347656 175.722656 122.898438 175.722656 C 122.914062 175.722656 122.9375 175.722656 122.953125 175.722656 C 126.546875 175.75 127.023438 175.765625 129.726562 177.332031 C 132.425781 178.894531 136.65625 180.964844 136.785156 182.132812 C 136.882812 183.042969 134.339844 183.144531 133.222656 183.144531 "/><path style=" stroke:none;fill-rule:nonzero;fill:#ffffff;fill-opacity:1;" d="M 128.464844 187.800781 C 128.050781 187.503906 127.84375 187.363281 127.429688 187.070312 C 127.429688 187.070312 127.4375 185.441406 128.894531 185.441406 C 129.300781 185.441406 129.816406 185.566406 130.480469 185.886719 C 132 186.722656 131.878906 187.070312 132.019531 187.570312 C 130.59375 187.664062 129.878906 187.707031 128.464844 187.800781 "/><path style=" stroke:none;fill-rule:nonzero;fill:#ffffff;fill-opacity:1;" d="M 140.800781 187.550781 C 140.046875 187.550781 138.867188 186.675781 138.933594 186.445312 C 138.960938 186.355469 138.859375 186.308594 138.714844 186.308594 C 138.386719 186.308594 137.8125 186.539062 137.75 187.0625 C 137.722656 187.324219 137.476562 187.40625 137.164062 187.40625 C 136.570312 187.40625 135.730469 187.09375 135.730469 187.09375 C 135.199219 186.859375 134.933594 186.746094 134.40625 186.515625 C 134.546875 186.117188 134.621094 185.917969 134.757812 185.511719 C 136.3125 185.488281 137.089844 185.476562 138.648438 185.449219 C 138.648438 185.449219 137.699219 183.539062 138.160156 183.046875 C 138.335938 182.859375 139.160156 182.804688 140.113281 182.804688 C 141.660156 182.804688 143.542969 182.957031 143.542969 182.957031 C 143.542969 182.957031 146.761719 184.234375 146.703125 185.714844 C 146.652344 187.195312 141.8125 186.792969 141.234375 187.394531 C 141.125 187.503906 140.976562 187.550781 140.800781 187.550781 "/><path style=" stroke:none;fill-rule:nonzero;fill:#ffffff;fill-opacity:1;" d="M 151.773438 187.972656 C 151.101562 187.972656 150.550781 187.542969 150.4375 186.964844 C 150.210938 187.039062 149.960938 187.078125 149.699219 187.082031 C 149.6875 187.082031 149.683594 187.082031 149.671875 187.082031 C 148.679688 187.082031 147.882812 186.53125 147.890625 185.851562 C 147.898438 185.160156 148.71875 184.589844 149.726562 184.578125 C 149.738281 184.578125 149.75 184.578125 149.757812 184.578125 C 150.597656 184.578125 151.292969 184.976562 151.480469 185.511719 C 151.585938 185.484375 151.699219 185.46875 151.808594 185.464844 C 151.816406 185.464844 151.820312 185.464844 151.824219 185.464844 C 152.582031 185.464844 153.1875 186.019531 153.1875 186.707031 C 153.179688 187.398438 152.550781 187.96875 151.785156 187.972656 C 151.78125 187.972656 151.777344 187.972656 151.773438 187.972656 "/><path style=" stroke:none;fill-rule:nonzero;fill:#ffffff;fill-opacity:1;" d="M 155.976562 187.433594 C 155.679688 187.433594 155.390625 187.25 155.242188 186.925781 C 155.128906 186.664062 155.132812 186.371094 155.234375 186.128906 C 155.097656 186.019531 155.007812 185.851562 155.007812 185.652344 C 155.011719 185.320312 155.253906 185.050781 155.554688 185.046875 C 155.554688 185.046875 155.558594 185.046875 155.558594 185.046875 C 155.855469 185.046875 156.09375 185.3125 156.089844 185.648438 C 156.324219 185.707031 156.535156 185.875 156.652344 186.132812 C 156.855469 186.582031 156.707031 187.125 156.316406 187.34375 C 156.210938 187.40625 156.089844 187.433594 155.976562 187.433594 "/><path style=" stroke:none;fill-rule:nonzero;fill:#ffffff;fill-opacity:1;" d="M 158.269531 188.835938 C 157.976562 188.835938 157.6875 188.644531 157.539062 188.324219 C 157.332031 187.871094 157.484375 187.328125 157.871094 187.113281 C 157.980469 187.050781 158.097656 187.023438 158.21875 187.023438 C 158.511719 187.023438 158.800781 187.210938 158.945312 187.53125 C 159.152344 187.980469 159.007812 188.527344 158.613281 188.742188 C 158.503906 188.808594 158.390625 188.835938 158.269531 188.835938 "/><path style=" stroke:none;fill-rule:nonzero;fill:#ffffff;fill-opacity:1;" d="M 161.710938 195.296875 C 161.410156 195.296875 161.121094 194.964844 160.96875 194.40625 C 160.867188 194.019531 160.855469 193.59375 160.914062 193.214844 C 160.621094 193.214844 160.324219 193.03125 160.175781 192.707031 C 160.035156 192.398438 160.058594 192.054688 160.210938 191.792969 C 160.179688 191.796875 160.148438 191.800781 160.117188 191.800781 C 159.820312 191.800781 159.53125 191.613281 159.382812 191.289062 L 159.335938 191.148438 L 159.261719 191.203125 C 159.148438 191.265625 159.035156 191.296875 158.914062 191.296875 C 158.621094 191.296875 158.328125 191.101562 158.179688 190.777344 C 157.972656 190.324219 158.125 189.785156 158.515625 189.5625 C 158.625 189.5 158.738281 189.472656 158.859375 189.472656 C 159.152344 189.472656 159.445312 189.660156 159.589844 189.988281 L 159.644531 190.125 L 159.714844 190.070312 C 159.824219 190.015625 159.941406 189.988281 160.054688 189.988281 C 160.351562 189.988281 160.648438 190.167969 160.796875 190.492188 C 160.933594 190.796875 160.910156 191.144531 160.757812 191.402344 C 160.789062 191.398438 160.824219 191.398438 160.851562 191.398438 C 161.148438 191.398438 161.441406 191.585938 161.589844 191.910156 C 161.628906 191.992188 161.648438 192.074219 161.664062 192.164062 C 161.957031 192.171875 162.238281 192.492188 162.386719 193.046875 C 162.597656 193.824219 162.445312 194.765625 162.054688 195.140625 C 161.945312 195.246094 161.828125 195.296875 161.710938 195.296875 "/><path style=" stroke:none;fill-rule:nonzero;fill:#ffffff;fill-opacity:1;" d="M 160.523438 189.179688 C 160.226562 189.179688 159.9375 188.992188 159.789062 188.671875 C 159.578125 188.21875 159.734375 187.675781 160.121094 187.457031 C 160.230469 187.398438 160.351562 187.363281 160.464844 187.363281 C 160.761719 187.363281 161.054688 187.554688 161.199219 187.878906 C 161.40625 188.332031 161.257812 188.875 160.867188 189.089844 C 160.757812 189.152344 160.640625 189.179688 160.523438 189.179688 "/><path style=" stroke:none;fill-rule:nonzero;fill:#ffffff;fill-opacity:1;" d="M 156.917969 190.390625 C 156.726562 190.390625 156.484375 190.289062 156.226562 190.074219 C 155.6875 189.628906 155.277344 188.875 155.316406 188.390625 C 155.339844 188.136719 155.476562 188.011719 155.679688 188.011719 C 155.871094 188.011719 156.109375 188.117188 156.367188 188.328125 C 156.910156 188.777344 157.320312 189.527344 157.28125 190.011719 C 157.257812 190.261719 157.121094 190.390625 156.917969 190.390625 "/><path style=" stroke:none;fill-rule:nonzero;fill:#ffffff;fill-opacity:1;" d="M 159.246094 201.59375 C 158.769531 201.59375 158.535156 201.59375 158.054688 201.59375 C 158.058594 200.699219 158.058594 200.253906 158.058594 199.363281 C 158.457031 199.363281 158.660156 199.363281 159.058594 199.359375 C 159.0625 198.546875 159.0625 198.140625 159.0625 197.332031 C 159.464844 197.328125 159.667969 197.328125 160.070312 197.328125 C 160.070312 196.515625 160.070312 196.109375 160.074219 195.300781 C 160.550781 195.300781 160.789062 195.300781 161.265625 195.300781 C 161.261719 196.183594 161.261719 196.628906 161.261719 197.523438 C 160.859375 197.523438 160.65625 197.523438 160.253906 197.523438 C 160.253906 198.332031 160.253906 198.738281 160.25 199.550781 C 159.851562 199.554688 159.648438 199.554688 159.246094 199.554688 C 159.246094 200.367188 159.246094 200.777344 159.246094 201.59375 "/><path style=" stroke:none;fill-rule:nonzero;fill:#ffffff;fill-opacity:1;" d="M 164 199.367188 C 163.882812 199.367188 163.742188 197.519531 163.742188 197.519531 C 164.414062 197.757812 164.75 197.878906 165.425781 198.121094 C 165.332031 198.613281 165.285156 198.863281 165.191406 199.355469 C 165.191406 199.355469 164.722656 199.289062 164.375 199.289062 C 164.195312 199.289062 164.050781 199.304688 164.015625 199.355469 C 164.007812 199.363281 164.003906 199.367188 164 199.367188 "/><g clip-rule="nonzero" clip-path="url(#0df597f397)"><path style=" stroke:none;fill-rule:nonzero;fill:#ffffff;fill-opacity:1;" d="M 166.125 338.226562 C 165.628906 337.597656 165.261719 337.4375 164.933594 337.4375 C 164.761719 337.4375 164.605469 337.484375 164.445312 337.527344 C 164.289062 337.574219 164.128906 337.621094 163.960938 337.621094 C 163.890625 337.621094 163.820312 337.613281 163.75 337.59375 C 162.976562 337.398438 163.570312 335.808594 162.808594 335.808594 C 162.679688 335.808594 162.53125 335.820312 162.371094 335.820312 C 161.566406 335.820312 160.464844 335.582031 160.050781 332.785156 C 159.542969 329.425781 155.269531 326.011719 155.269531 326.011719 C 155.246094 325.546875 155.238281 325.316406 155.222656 324.855469 C 155.757812 324.617188 156.027344 324.496094 156.570312 324.25 C 156.675781 323.5 156.730469 323.121094 156.84375 322.363281 C 156.257812 321.597656 155.96875 321.207031 155.378906 320.433594 C 155.363281 319.660156 155.355469 319.273438 155.339844 318.496094 C 154.015625 316.730469 153.34375 315.84375 151.992188 314.050781 C 151.53125 312.296875 151.292969 311.417969 150.828125 309.640625 C 149.257812 300.308594 147.773438 290.964844 146.386719 281.601562 C 149.199219 271.65625 137.730469 266.140625 134.503906 261.78125 C 133.984375 261.078125 129.324219 256.023438 128.316406 251.78125 C 127.308594 247.542969 123.992188 243.605469 122.542969 241.617188 C 121.097656 239.617188 122.03125 236.792969 122.609375 235.765625 C 123.183594 234.738281 123.441406 234.414062 122.328125 233.367188 C 121.210938 232.316406 120.96875 230.550781 121.476562 230.234375 C 121.984375 229.921875 126.324219 222.992188 127.390625 219.722656 C 128.464844 216.453125 126.273438 211.335938 126.273438 211.335938 C 126.34375 210.882812 126.382812 210.660156 126.457031 210.207031 C 126.273438 209.59375 126.175781 209.28125 125.992188 208.664062 C 125.4375 208.148438 124.960938 207.964844 124.5625 207.964844 C 123.652344 207.964844 123.179688 208.925781 123.179688 208.925781 C 123.179688 208.925781 123.148438 211.300781 122.175781 211.445312 C 122.144531 211.449219 122.117188 211.449219 122.082031 211.449219 C 121.0625 211.449219 118.738281 209.316406 117.613281 209.210938 C 116.457031 209.105469 112.523438 204.773438 112.523438 204.773438 C 112.523438 204.773438 112.738281 202.980469 112.050781 202.703125 C 111.375 202.421875 110.3125 199.800781 110.3125 199.800781 C 110.183594 199.257812 110.121094 198.984375 109.996094 198.445312 C 109.726562 198.480469 109.472656 198.496094 109.21875 198.496094 C 106.675781 198.496094 104.667969 196.710938 100.285156 192.921875 C 99.476562 192.277344 98.953125 192.054688 98.507812 192.054688 C 97.996094 192.054688 97.585938 192.347656 96.972656 192.644531 C 96.355469 192.9375 95.53125 193.230469 94.1875 193.230469 C 94.15625 193.230469 94.128906 193.226562 94.101562 193.226562 C 90.152344 193.195312 81.296875 185.003906 81.296875 185.003906 C 81.296875 185.003906 81.890625 183.640625 82.105469 180.828125 C 82.320312 178.011719 78.125 173.5625 78.125 173.5625 C 78.242188 172.824219 78.296875 172.457031 78.414062 171.722656 C 77.503906 170.0625 77.0625 169.246094 76.195312 167.640625 C 76.183594 165.894531 76.183594 165.027344 76.199219 163.300781 C 75.746094 162.648438 75.285156 162.394531 74.875 162.394531 C 73.960938 162.394531 73.296875 163.652344 73.484375 164.589844 C 74.140625 166.910156 74.484375 168.089844 75.21875 170.480469 C 75.214844 171.527344 75.214844 172.050781 75.222656 173.101562 C 75.363281 174.011719 75.4375 174.46875 75.585938 175.386719 C 75.957031 176.609375 76.152344 177.226562 76.542969 178.464844 C 76.429688 178.484375 76.324219 178.492188 76.214844 178.492188 C 73.949219 178.492188 73.1875 174.507812 73.613281 174.007812 C 74.058594 173.480469 73.421875 173 72.019531 172.140625 C 70.625 171.285156 71.886719 169.683594 72.253906 168.699219 C 72.621094 167.71875 71.113281 165.265625 71.113281 165.265625 C 71.113281 165.265625 71.675781 162.527344 72.066406 160.996094 C 72.457031 159.46875 69.089844 158.269531 69.089844 158.269531 C 69.34375 155.863281 69.492188 154.667969 69.8125 152.308594 C 67.996094 150.464844 70.304688 147.011719 70.761719 146.90625 C 71.21875 146.804688 72.1875 146.535156 72.660156 144.800781 C 73.140625 143.0625 80.644531 134.121094 80.644531 134.121094 C 80.644531 134.121094 83.117188 133.773438 83.683594 133.074219 C 84.25 132.375 88.296875 128.863281 85.535156 127.496094 C 82.773438 126.128906 85.125 124.191406 85.125 124.191406 C 84.171875 124.039062 85.988281 121.199219 86.683594 120.378906 C 87.375 119.558594 87.640625 118.230469 88.304688 115.972656 C 88.675781 114.699219 86.300781 114.101562 83.878906 114.101562 C 82.011719 114.101562 80.113281 114.457031 79.421875 115.125 C 77.839844 116.65625 75.117188 118.320312 73.265625 118.878906 C 71.414062 119.445312 56.953125 131.167969 56.953125 131.167969 C 56.117188 131.453125 55.703125 131.601562 54.886719 131.898438 L 54.878906 131.902344 L 54.894531 131.894531 C 55.1875 131.664062 64.628906 124.367188 64.21875 124.292969 C 64.207031 124.289062 64.191406 124.289062 64.183594 124.289062 C 63.738281 124.289062 62.707031 125.515625 61.992188 125.832031 C 61.835938 125.902344 61.703125 125.929688 61.597656 125.929688 C 61.195312 125.929688 61.15625 125.503906 61.597656 125.15625 C 62.160156 124.722656 64.234375 123.328125 64.503906 122.273438 C 64.777344 121.21875 66.382812 119.945312 67.042969 119.285156 C 67.707031 118.632812 72.351562 115.980469 72.351562 115.980469 C 73.570312 114.863281 74.183594 114.304688 75.402344 113.179688 C 75.402344 113.179688 75.445312 113.023438 75.304688 113.023438 C 75.203125 113.023438 75.007812 113.105469 74.625 113.394531 C 73.96875 113.898438 70.722656 116.28125 70.179688 116.28125 C 69.980469 116.28125 70.15625 115.949219 70.976562 115.0625 C 74.011719 111.804688 77.460938 110.722656 77.460938 110.722656 C 78.21875 110.050781 78.597656 109.714844 79.355469 109.039062 C 79.355469 109.039062 79.21875 109.085938 79.085938 109.085938 C 78.859375 109.085938 78.644531 108.949219 79.121094 108.214844 C 79.886719 107.039062 81.53125 105.949219 81.53125 105.949219 C 82.503906 105.355469 82.996094 105.054688 83.984375 104.472656 C 90.773438 98.832031 99.128906 94.625 107.988281 93.773438 C 107.988281 93.773438 110.738281 93.242188 112.476562 91.96875 C 114.070312 90.8125 119.011719 87.933594 119.941406 87.933594 C 120.023438 87.933594 120.078125 87.960938 120.089844 88.011719 C 120.128906 88.1875 120.386719 88.25 120.726562 88.25 C 121.570312 88.25 122.949219 87.863281 122.949219 87.863281 C 124.253906 87.488281 124.90625 87.300781 126.222656 86.949219 C 126.078125 87.335938 126.964844 87.449219 128.027344 87.449219 C 129.46875 87.449219 131.230469 87.246094 131.230469 87.246094 C 130.75 87.890625 130.515625 88.207031 130.039062 88.855469 C 131.386719 88.488281 132.0625 88.3125 133.417969 87.96875 C 134.085938 87.917969 134.417969 87.894531 135.089844 87.84375 C 134.722656 88.566406 135.164062 89.738281 135.691406 89.734375 C 135.820312 89.734375 135.953125 89.664062 136.082031 89.5 C 136.679688 88.722656 139.453125 85.5625 140.957031 85.5625 C 141.078125 85.5625 141.199219 85.582031 141.304688 85.628906 C 141.820312 85.859375 142.644531 85.933594 143.464844 85.933594 C 144.8125 85.933594 146.15625 85.738281 146.15625 85.738281 C 146.960938 85.632812 147.367188 85.582031 148.171875 85.484375 C 148.273438 86.546875 148.769531 86.789062 149.195312 86.789062 C 149.554688 86.789062 149.859375 86.621094 149.859375 86.621094 C 150.765625 85.800781 151.222656 85.390625 152.125 84.574219 C 152.777344 84.410156 153.105469 84.328125 153.757812 84.164062 C 155.199219 82.160156 153.945312 81.230469 153.945312 81.230469 C 156.09375 80.195312 157.160156 79.691406 159.292969 78.707031 C 158.910156 79.839844 158.722656 80.410156 158.339844 81.554688 C 159.578125 81.8125 160.207031 81.949219 161.464844 82.234375 C 161.464844 82.234375 162.027344 82.347656 161.035156 83.09375 C 160.050781 83.84375 160.277344 84.660156 160.515625 85.167969 C 160.527344 85.195312 160.554688 85.207031 160.589844 85.207031 C 161.21875 85.207031 165.09375 81.316406 165.09375 81.316406 C 165.09375 81.316406 167.316406 81.175781 167.964844 81.175781 C 168.046875 81.175781 168.101562 81.179688 168.125 81.183594 C 168.132812 81.183594 168.144531 81.1875 168.15625 81.1875 C 168.199219 81.1875 168.265625 81.175781 168.34375 81.171875 C 168.425781 81.160156 168.515625 81.152344 168.609375 81.152344 C 169.152344 81.152344 169.761719 81.433594 168.382812 83.632812 C 166.601562 86.476562 165.128906 86.578125 164.925781 86.578125 C 164.910156 86.578125 164.902344 86.578125 164.902344 86.578125 L 159.734375 87.214844 C 159.734375 87.214844 156.386719 87.433594 155.652344 87.867188 C 154.917969 88.300781 156.570312 90.050781 156.570312 90.050781 C 154.988281 90.667969 154.195312 90.988281 152.617188 91.628906 C 152.617188 91.628906 150.066406 91.898438 149.828125 91.921875 C 149.722656 92.648438 149.664062 93.011719 149.554688 93.738281 C 142.519531 95.457031 139.128906 102.097656 139.128906 102.097656 C 139.480469 102.195312 139.652344 102.25 140.003906 102.351562 C 140.488281 103.453125 140.734375 104.011719 141.238281 105.132812 C 141.945312 105.066406 142.296875 105.039062 143.011719 104.980469 C 144.207031 105.726562 144.8125 106.105469 146.03125 106.882812 C 150.992188 107.042969 149.976562 108.28125 149.976562 108.28125 C 147.601562 113.230469 148.621094 114.171875 149.742188 114.171875 C 150.429688 114.171875 151.164062 113.816406 151.164062 113.816406 C 151.851562 112.753906 152.574219 109.363281 154.746094 108.253906 C 161.613281 105.234375 160.800781 101.578125 160.800781 101.578125 C 160.867188 100.625 160.898438 100.152344 160.964844 99.207031 C 161.0625 99.289062 161.160156 99.328125 161.257812 99.328125 C 161.867188 99.328125 162.382812 97.765625 163.117188 96.207031 C 163.855469 94.644531 164.808594 93.082031 166.296875 93.082031 C 166.316406 93.082031 166.339844 93.082031 166.363281 93.082031 C 167.105469 93.105469 177.203125 93.121094 174.273438 97.421875 C 172.367188 100.210938 173.253906 100.703125 174.109375 100.703125 C 174.574219 100.703125 175.027344 100.558594 175.027344 100.558594 C 177.542969 98.976562 178.796875 98.203125 181.242188 96.699219 C 181.242188 96.699219 182.265625 102.617188 181.449219 103.378906 C 180.636719 104.144531 183.398438 107 183.398438 107 C 183.34375 107.515625 183.316406 107.773438 183.253906 108.289062 C 184.535156 108.316406 185.171875 108.335938 186.441406 108.375 C 188.167969 115.738281 172.933594 116.371094 167.828125 117.027344 C 167.605469 117.515625 167.496094 117.757812 167.269531 118.246094 C 168.792969 118.328125 169.554688 118.375 171.082031 118.46875 C 166.691406 124.007812 171.214844 124.386719 172.53125 124.386719 C 172.742188 124.386719 172.867188 124.375 172.867188 124.375 C 173.746094 124.367188 174.183594 124.367188 175.0625 124.363281 C 175.019531 124.785156 174.996094 125 174.949219 125.417969 C 174.9375 125.417969 174.921875 125.417969 174.910156 125.417969 C 173.613281 125.417969 165.769531 130.246094 165.769531 130.246094 C 165.769531 130.246094 164.90625 129.023438 164.582031 129.023438 C 164.566406 129.023438 164.550781 129.027344 164.539062 129.035156 C 164.539062 129.035156 170.820312 126.207031 168.425781 125.839844 C 157.816406 127.136719 156.585938 130.707031 156.585938 130.707031 C 156.351562 131.703125 156.238281 132.203125 156 133.207031 C 151.792969 133.550781 150.46875 137.644531 148 138.183594 C 145.527344 138.722656 143.78125 141.960938 143.78125 141.960938 C 143.234375 141.992188 142.960938 142.007812 142.421875 142.039062 C 142.492188 142.6875 142.121094 149.734375 137.945312 151.160156 C 130.667969 153.351562 128.964844 158.667969 128.964844 158.667969 C 128.835938 161.597656 128.78125 163.070312 128.6875 166.035156 C 128.859375 166.121094 128.945312 166.167969 129.117188 166.253906 C 129.230469 167.226562 128.527344 171.136719 127.0625 171.136719 C 126.984375 171.136719 126.898438 171.121094 126.8125 171.097656 C 123.371094 170.386719 125.304688 162.707031 125.304688 162.707031 C 124.429688 162.011719 123.992188 161.664062 123.128906 160.980469 C 122.578125 161.171875 122.105469 161.25 121.675781 161.25 C 120.039062 161.25 119.113281 160.109375 117.558594 159.984375 C 117.503906 159.980469 117.457031 159.976562 117.410156 159.976562 C 115.605469 159.976562 115.800781 162.769531 113.46875 163.5 C 113.167969 163.59375 112.914062 163.632812 112.6875 163.632812 C 111.976562 163.632812 111.5625 163.234375 111.039062 162.835938 C 110.523438 162.4375 109.898438 162.035156 108.773438 162.035156 C 108.515625 162.035156 108.238281 162.058594 107.929688 162.101562 C 104.425781 162.613281 99.796875 167.117188 99.796875 167.117188 C 99.109375 168.867188 98.769531 169.746094 98.101562 171.496094 C 91.664062 182.589844 99.078125 186.4375 99.078125 186.4375 C 100.039062 186.808594 100.910156 186.96875 101.6875 186.96875 C 106.316406 186.96875 107.859375 181.367188 107.859375 181.367188 C 110.539062 179.960938 112.0625 179.496094 112.914062 179.496094 C 114.519531 179.496094 113.707031 181.148438 113.707031 181.148438 C 112.171875 185.585938 111.417969 187.8125 109.964844 192.257812 C 111.175781 192.078125 112.203125 192 113.074219 192 C 118.941406 192 117.859375 195.535156 117.859375 195.535156 C 117.515625 198.664062 117.355469 200.246094 117.054688 203.386719 C 116.496094 205.347656 119.773438 207.960938 120.929688 207.960938 C 121.023438 207.960938 121.105469 207.945312 121.167969 207.90625 C 121.996094 207.410156 123.265625 206.605469 125.277344 206.554688 C 125.304688 206.550781 125.332031 206.550781 125.359375 206.550781 C 127.335938 206.550781 129.101562 208.40625 129.101562 208.40625 C 131.167969 207.285156 133.433594 202.867188 133.433594 202.867188 C 133.433594 202.867188 134.015625 203.039062 134.675781 203.039062 C 135.328125 203.039062 136.058594 202.871094 136.367188 202.199219 C 136.992188 200.855469 138.417969 199.894531 138.417969 199.894531 C 139.191406 199.890625 139.578125 199.890625 140.355469 199.886719 C 140.335938 200.347656 140.320312 200.582031 140.300781 201.042969 C 139.796875 201.457031 139.542969 201.660156 139.039062 202.070312 C 138.789062 203.6875 138.664062 204.496094 138.421875 206.105469 C 138.902344 206.796875 139.144531 207.140625 139.628906 207.835938 C 139.636719 207.84375 139.652344 207.84375 139.664062 207.84375 C 140.003906 207.84375 140.015625 205.617188 140.601562 203.054688 C 140.976562 201.40625 142.480469 200.714844 143.378906 200.714844 C 143.925781 200.714844 144.25 200.972656 143.960938 201.425781 C 143.21875 202.59375 150.722656 205.226562 152.582031 205.226562 C 152.636719 205.226562 152.6875 205.226562 152.734375 205.21875 C 152.785156 205.214844 152.847656 205.210938 152.910156 205.210938 C 153.53125 205.210938 154.710938 205.46875 156.023438 205.898438 C 156.023438 205.898438 156.792969 204.148438 157.398438 203.710938 C 157.679688 203.507812 158.152344 203.472656 158.59375 203.472656 C 158.746094 203.472656 158.898438 203.476562 159.035156 203.476562 C 159.167969 203.484375 159.292969 203.488281 159.394531 203.488281 C 159.523438 203.488281 159.617188 203.480469 159.652344 203.453125 C 159.804688 203.34375 159.941406 202.203125 160.621094 202.203125 C 160.742188 202.203125 160.882812 202.242188 161.042969 202.328125 C 162.097656 202.890625 160.839844 204.449219 160.0625 204.886719 C 159.558594 205.164062 159.125 206.253906 158.992188 207.117188 C 160.578125 207.917969 161.890625 208.894531 162.144531 209.898438 C 162.75 212.308594 166.167969 215.359375 172.964844 215.359375 C 173.226562 215.359375 173.496094 215.355469 173.769531 215.347656 C 181.109375 220.851562 177.5625 222.28125 179.324219 223.644531 C 181.082031 225.003906 180.144531 226.363281 180.144531 226.363281 C 179.433594 227.636719 175.902344 231.953125 175.984375 232.710938 C 176 232.867188 176.074219 232.929688 176.199219 232.929688 C 176.679688 232.929688 177.875 232 179.113281 231.867188 C 179.1875 231.859375 179.265625 231.851562 179.339844 231.851562 C 180.785156 231.851562 181.835938 233.371094 181.835938 233.371094 C 183.890625 232.148438 184.917969 231.535156 186.96875 230.308594 C 193.539062 231.777344 190.417969 235.398438 190.640625 236.152344 C 190.671875 236.261719 190.742188 236.304688 190.839844 236.304688 C 191.410156 236.304688 192.886719 234.699219 192.886719 234.699219 C 192.886719 234.699219 192.347656 234.152344 193.855469 234.152344 C 194.992188 234.152344 197.277344 234.460938 201.820312 235.539062 C 212.398438 238.054688 209.898438 244.527344 209.898438 244.527344 C 208.8125 247.742188 201.703125 251.621094 201.941406 258.75 C 203.285156 269.605469 196.496094 279.40625 196.496094 279.40625 C 196.496094 279.40625 194.207031 279.429688 193.484375 279.535156 C 192.765625 279.644531 186.269531 282.953125 185.867188 284.964844 C 187.273438 292.40625 184.132812 293.027344 184.132812 293.027344 C 184.101562 294.238281 184.09375 294.84375 184.066406 296.046875 C 181.679688 299.234375 180.503906 300.804688 178.207031 303.886719 C 178.148438 303.917969 178.078125 303.929688 177.988281 303.929688 C 177.527344 303.929688 176.628906 303.582031 175.679688 303.238281 C 174.734375 302.890625 173.738281 302.542969 173.066406 302.542969 C 172.78125 302.542969 172.554688 302.605469 172.421875 302.765625 C 178.574219 311.578125 172.53125 312.121094 172.53125 312.121094 C 171.148438 312.097656 170.457031 312.082031 169.078125 312.042969 C 169.308594 312.914062 169.425781 313.351562 169.65625 314.214844 C 169.179688 315.320312 168.945312 315.867188 168.488281 316.960938 C 167.117188 316.515625 166.4375 316.289062 165.0625 315.824219 C 166.234375 317.042969 166.8125 317.648438 167.960938 318.851562 C 167.972656 319.246094 167.980469 319.441406 167.992188 319.835938 C 167.574219 320.382812 167.367188 320.652344 166.949219 321.195312 C 167.105469 321.816406 167.179688 322.125 167.328125 322.746094 C 166.839844 323.894531 166.59375 324.464844 166.117188 325.59375 C 167.226562 326.945312 167.777344 327.613281 168.859375 328.9375 C 168.082031 330.84375 167.703125 331.78125 166.96875 333.640625 C 167.449219 334.710938 167.6875 335.242188 168.15625 336.300781 C 167.335938 337.082031 166.925781 337.460938 166.125 338.226562 M 136.101562 125.179688 C 136.167969 125.179688 136.21875 125.183594 136.25 125.203125 C 136.511719 125.324219 137.53125 126.203125 134.667969 127.007812 C 131.804688 127.816406 127.402344 135.046875 127.402344 135.046875 C 127.402344 135.046875 127.703125 136.371094 128.085938 136.371094 C 128.191406 136.371094 128.300781 136.269531 128.417969 136.007812 C 128.945312 134.820312 135.359375 127.390625 136.269531 127.308594 C 136.304688 127.304688 136.34375 127.304688 136.382812 127.304688 C 137.242188 127.304688 137.980469 128.148438 137.628906 128.324219 C 137.269531 128.503906 136.433594 130.175781 136.761719 131.292969 C 136.871094 131.664062 137.074219 131.808594 137.3125 131.808594 C 137.796875 131.808594 138.421875 131.230469 138.691406 130.75 C 139.085938 130.042969 139.902344 129.082031 140.332031 129.082031 C 140.339844 129.082031 140.347656 129.085938 140.355469 129.085938 C 140.386719 129.089844 140.421875 129.089844 140.464844 129.089844 C 141.03125 129.089844 142.675781 128.785156 142.59375 127.226562 C 142.542969 126.261719 141.824219 125.9375 141.042969 125.9375 C 140.46875 125.9375 139.863281 126.113281 139.460938 126.34375 C 139.292969 126.4375 139.125 126.476562 138.960938 126.476562 C 138.191406 126.476562 137.507812 125.589844 137.488281 125.160156 C 137.46875 124.628906 138.015625 122.164062 135.328125 121.335938 C 135.121094 121.269531 134.886719 121.238281 134.640625 121.238281 C 133.210938 121.238281 131.257812 122.238281 129.691406 123.230469 C 128.128906 124.226562 126.949219 125.21875 127.085938 125.21875 C 127.085938 125.21875 127.09375 125.21875 127.101562 125.214844 C 127.117188 125.210938 127.132812 125.207031 127.152344 125.207031 C 127.363281 125.207031 127.714844 125.578125 128.050781 125.949219 C 128.386719 126.324219 128.714844 126.695312 128.902344 126.695312 C 128.972656 126.695312 129.027344 126.632812 129.039062 126.480469 C 129.132812 125.644531 131.585938 124.492188 132.300781 124.492188 C 132.417969 124.492188 132.488281 124.523438 132.492188 124.597656 C 132.503906 125.097656 134.300781 125.542969 134.300781 125.542969 C 134.300781 125.542969 135.613281 125.179688 136.101562 125.179688 M 139.84375 132.660156 C 139.644531 132.660156 139.363281 132.957031 139.054688 133.332031 C 138.515625 133.992188 137.019531 134.183594 135.875 134.429688 C 134.734375 134.675781 135.730469 135.363281 136.417969 135.640625 C 136.417969 135.640625 136.492188 135.644531 136.609375 135.644531 C 137.003906 135.644531 137.890625 135.628906 138.332031 135.496094 C 138.914062 135.320312 140.195312 134.25 140.121094 133.253906 C 140.09375 132.824219 139.992188 132.660156 139.84375 132.660156 M 146.285156 128.980469 C 145.886719 128.980469 145.449219 129.613281 144.800781 129.910156 C 144.003906 130.273438 143.40625 130.699219 143.371094 131.164062 C 143.371094 131.164062 146.222656 131.054688 146.457031 130.730469 C 146.6875 130.40625 147.023438 129.53125 146.554688 129.101562 C 146.464844 129.015625 146.375 128.980469 146.285156 128.980469 "/></g><path style=" stroke:none;fill-rule:nonzero;fill:#ffffff;fill-opacity:1;" d="M 252.996094 122.398438 C 251.492188 121.804688 251.34375 119.835938 251.59375 119.609375 C 251.847656 119.382812 252.082031 118.390625 251.703125 118.246094 C 251.320312 118.105469 250.933594 116.867188 250.933594 116.867188 C 250.933594 116.867188 251.183594 116.421875 251.53125 116.421875 C 251.644531 116.421875 251.761719 116.46875 251.886719 116.59375 C 251.980469 116.683594 252.074219 116.722656 252.171875 116.722656 C 252.636719 116.722656 253.144531 115.902344 253.144531 115.902344 C 253.144531 115.902344 255.511719 116.507812 255.929688 116.667969 C 256.347656 116.832031 257.125 118.273438 256.882812 118.304688 C 256.636719 118.324219 256.148438 119.296875 256.148438 119.296875 C 256.148438 119.296875 257.472656 121.601562 256.648438 121.601562 C 256.597656 121.601562 256.546875 121.59375 256.488281 121.578125 C 256.351562 121.542969 256.203125 121.53125 256.042969 121.53125 C 254.828125 121.53125 252.996094 122.398438 252.996094 122.398438 "/><path style=" stroke:none;fill-rule:nonzero;fill:#ffffff;fill-opacity:1;" d="M 266.328125 126.550781 C 265.761719 126.550781 263.628906 125.726562 263.628906 125.726562 C 263.085938 125.71875 262.636719 125.71875 262.207031 125.71875 C 261.375 125.71875 260.648438 125.726562 259.554688 125.742188 C 259.003906 125.402344 258.726562 125.226562 258.171875 124.882812 C 258.171875 124.882812 260.894531 124.628906 260.996094 124.382812 C 261.097656 124.128906 259.109375 123.65625 259.023438 123.167969 C 258.941406 122.679688 258.105469 122.746094 258.257812 122.175781 C 258.40625 121.609375 258.414062 120.6875 259.414062 120.554688 C 260.410156 120.421875 260.363281 119.558594 259.445312 118.21875 C 258.550781 117.835938 258.101562 117.640625 257.207031 117.261719 C 257.257812 117.136719 256.671875 115.398438 256.671875 115.398438 C 256.441406 115.332031 256.324219 115.296875 256.09375 115.226562 C 256.058594 114.714844 256.042969 114.460938 256.003906 113.953125 C 256.003906 113.953125 255.984375 112.835938 256.71875 112.835938 C 256.898438 112.835938 257.125 112.902344 257.410156 113.070312 C 258.851562 113.914062 258.261719 114.164062 258.261719 114.164062 C 258.765625 114.371094 259.019531 114.480469 259.523438 114.691406 C 259.523438 114.691406 259.144531 116.140625 259.101562 116.257812 C 259.054688 116.378906 260.226562 116.953125 260.226562 116.953125 C 260.226562 116.953125 264.175781 121.339844 264.722656 123.1875 C 265.34375 123.210938 265.65625 123.222656 266.273438 123.25 C 266.273438 123.25 267.015625 123.289062 266.699219 124.652344 C 266.589844 125.113281 266.429688 125.246094 266.265625 125.246094 C 266.15625 125.246094 266.039062 125.183594 265.941406 125.125 C 265.84375 125.066406 265.761719 125 265.703125 125 C 265.65625 125 265.628906 125.050781 265.636719 125.191406 C 265.667969 125.875 266.542969 126.210938 266.464844 126.5 C 266.453125 126.535156 266.410156 126.550781 266.328125 126.550781 "/><path style=" stroke:none;fill-rule:nonzero;fill:#ffffff;fill-opacity:1;" d="M 287.320312 124.707031 C 286.851562 124.480469 286.617188 124.367188 286.144531 124.140625 C 285.996094 123.855469 285.921875 123.714844 285.777344 123.425781 C 285.726562 123.191406 285.703125 123.078125 285.652344 122.84375 C 285.886719 122.957031 286.007812 123.015625 286.238281 123.132812 C 286.550781 123.535156 286.707031 123.734375 287.019531 124.136719 C 287.136719 124.363281 287.199219 124.480469 287.320312 124.707031 "/><path style=" stroke:none;fill-rule:nonzero;fill:#ffffff;fill-opacity:1;" d="M 307.964844 162.703125 C 307.914062 162.703125 307.851562 162.695312 307.789062 162.679688 C 306.695312 162.433594 306.144531 162.304688 305.035156 162.058594 C 304.566406 161.957031 304.082031 161.46875 303.953125 160.980469 C 303.839844 160.550781 304.023438 160.257812 304.378906 160.257812 C 304.433594 160.257812 304.492188 160.265625 304.554688 160.28125 C 305.660156 160.539062 306.207031 160.667969 307.300781 160.929688 C 307.757812 161.042969 308.242188 161.523438 308.378906 162 C 308.496094 162.417969 308.316406 162.703125 307.964844 162.703125 "/><path style=" stroke:none;fill-rule:nonzero;fill:#ffffff;fill-opacity:1;" d="M 291.667969 155.730469 C 291.667969 155.730469 287.4375 154.542969 287.394531 153.230469 C 287.363281 152.425781 287.617188 152.269531 287.820312 152.269531 C 287.949219 152.269531 288.058594 152.332031 288.058594 152.332031 C 288.285156 152.378906 291.636719 153.535156 291.636719 153.535156 C 291.652344 154.40625 291.660156 154.847656 291.667969 155.730469 "/><path style=" stroke:none;fill-rule:nonzero;fill:#ffffff;fill-opacity:1;" d="M 291.234375 157.769531 C 290.816406 157.6875 290.605469 157.648438 290.1875 157.5625 C 290.074219 157.054688 290.015625 156.796875 289.898438 156.285156 C 290.585938 156.628906 290.929688 156.800781 291.613281 157.144531 C 291.464844 157.394531 291.386719 157.519531 291.234375 157.769531 "/><path style=" stroke:none;fill-rule:nonzero;fill:#ffffff;fill-opacity:1;" d="M 281.953125 145.601562 C 281.679688 145.601562 280.824219 145.316406 280.824219 145.316406 C 280.824219 145.316406 279.695312 143.410156 279.980469 143.207031 C 280.121094 143.105469 280.449219 143.078125 280.753906 143.078125 C 281.066406 143.078125 281.347656 143.105469 281.347656 143.105469 C 281.347656 143.105469 282.207031 145.550781 282.003906 145.59375 C 281.988281 145.597656 281.976562 145.601562 281.953125 145.601562 "/><path style=" stroke:none;fill-rule:nonzero;fill:#ffffff;fill-opacity:1;" d="M 282.390625 150.113281 C 282.046875 150.039062 281.871094 150.003906 281.523438 149.929688 C 281.523438 149.929688 278.46875 146.058594 280.75 145.816406 C 281.375 146.039062 281.679688 146.152344 282.296875 146.378906 C 282.652344 147.761719 282.820312 148.453125 283.148438 149.851562 C 282.847656 149.953125 282.691406 150.007812 282.390625 150.113281 "/><path style=" stroke:none;fill-rule:nonzero;fill:#ffffff;fill-opacity:1;" d="M 275.253906 147.113281 C 274.988281 147.0625 274.855469 147.03125 274.59375 146.980469 C 274.5 146.53125 274.449219 146.304688 274.351562 145.859375 C 274.695312 146.046875 274.867188 146.140625 275.214844 146.324219 C 275.226562 146.640625 275.234375 146.796875 275.253906 147.113281 "/><path style=" stroke:none;fill-rule:nonzero;fill:#ffffff;fill-opacity:1;" d="M 272.078125 148.449219 C 271.695312 148.382812 271.503906 148.347656 271.121094 148.277344 C 271.085938 147.847656 271.066406 147.636719 271.027344 147.207031 C 271.464844 147.292969 271.683594 147.332031 272.125 147.414062 C 272.0625 147.113281 272.03125 146.964844 271.972656 146.664062 C 272.078125 146.609375 272.128906 146.578125 272.234375 146.519531 C 272.1875 146.3125 272.160156 146.207031 272.105469 146 C 272.191406 146.0625 273.640625 146.300781 273.640625 146.300781 C 273.746094 146.824219 273.804688 147.085938 273.910156 147.605469 C 273.777344 147.582031 273.714844 147.570312 273.582031 147.542969 C 273.605469 147.695312 273.613281 147.773438 273.636719 147.925781 C 273.03125 147.808594 272.730469 147.75 272.125 147.636719 C 272.101562 147.960938 272.09375 148.125 272.078125 148.449219 "/><path style=" stroke:none;fill-rule:nonzero;fill:#ffffff;fill-opacity:1;" d="M 230.695312 189.789062 C 230.691406 189.789062 230.691406 189.789062 230.6875 189.789062 C 230.097656 189.78125 229.800781 189.773438 229.207031 189.761719 C 228.902344 189.757812 228.648438 189.476562 228.640625 189.132812 C 228.636719 188.792969 228.871094 188.519531 229.175781 188.519531 C 229.179688 188.519531 229.179688 188.519531 229.183594 188.519531 C 229.78125 188.53125 230.074219 188.539062 230.664062 188.546875 C 230.972656 188.554688 231.226562 188.839844 231.230469 189.179688 C 231.238281 189.515625 230.996094 189.789062 230.695312 189.789062 "/><path style=" stroke:none;fill-rule:nonzero;fill:#ffffff;fill-opacity:1;" d="M 234.371094 191.257812 C 234.367188 191.257812 234.363281 191.257812 234.359375 191.257812 C 234.082031 191.253906 233.84375 190.992188 233.835938 190.671875 C 233.835938 190.574219 233.832031 190.523438 233.832031 190.425781 C 233.824219 190.109375 234.050781 189.855469 234.324219 189.855469 C 234.328125 189.855469 234.332031 189.855469 234.335938 189.855469 C 234.621094 189.863281 234.855469 190.125 234.859375 190.441406 C 234.863281 190.542969 234.863281 190.59375 234.863281 190.691406 C 234.871094 191.003906 234.652344 191.257812 234.371094 191.257812 "/><path style=" stroke:none;fill-rule:nonzero;fill:#ffffff;fill-opacity:1;" d="M 233.449219 193.890625 C 233.449219 193.890625 233.445312 193.890625 233.445312 193.890625 C 233.09375 193.882812 232.914062 193.878906 232.5625 193.875 C 232.316406 193.871094 232.113281 193.648438 232.109375 193.375 C 232.105469 193.101562 232.300781 192.878906 232.539062 192.878906 C 232.542969 192.878906 232.546875 192.878906 232.546875 192.878906 C 232.902344 192.886719 233.078125 192.886719 233.433594 192.894531 C 233.679688 192.898438 233.878906 193.121094 233.882812 193.394531 C 233.882812 193.667969 233.691406 193.890625 233.449219 193.890625 "/><path style=" stroke:none;fill-rule:nonzero;fill:#ffffff;fill-opacity:1;" d="M 232.066406 191.21875 C 232.066406 191.21875 232.0625 191.21875 232.0625 191.21875 L 231.953125 191.21875 C 231.777344 191.214844 231.632812 191.054688 231.628906 190.863281 C 231.628906 190.667969 231.765625 190.515625 231.933594 190.515625 C 231.933594 190.515625 231.933594 190.515625 231.9375 190.515625 L 232.046875 190.515625 C 232.222656 190.519531 232.367188 190.679688 232.371094 190.871094 C 232.371094 191.066406 232.234375 191.21875 232.066406 191.21875 "/><path style=" stroke:none;fill-rule:nonzero;fill:#ffffff;fill-opacity:1;" d="M 234.960938 193.90625 C 234.960938 193.90625 234.957031 193.90625 234.953125 193.90625 C 234.804688 193.90625 234.734375 193.902344 234.589844 193.902344 C 234.199219 193.894531 233.882812 193.542969 233.878906 193.109375 C 233.871094 192.679688 234.175781 192.332031 234.554688 192.332031 C 234.554688 192.332031 234.558594 192.332031 234.5625 192.332031 C 234.710938 192.335938 234.785156 192.335938 234.929688 192.339844 C 235.316406 192.34375 235.632812 192.699219 235.640625 193.132812 C 235.648438 193.5625 235.34375 193.90625 234.960938 193.90625 "/><path style=" stroke:none;fill-rule:nonzero;fill:#ffffff;fill-opacity:1;" d="M 309.707031 161.21875 C 309.675781 161.21875 309.640625 161.210938 309.605469 161.203125 C 309.398438 161.152344 309.296875 161.125 309.09375 161.078125 C 308.835938 161.011719 308.5625 160.742188 308.488281 160.476562 C 308.417969 160.25 308.507812 160.097656 308.691406 160.097656 C 308.726562 160.097656 308.757812 160.101562 308.796875 160.113281 C 309.003906 160.164062 309.105469 160.1875 309.308594 160.242188 L 309.398438 160.273438 C 308.15625 159.34375 306.914062 157.902344 306.644531 156.238281 C 306.023438 155.730469 305.707031 155.476562 305.082031 154.964844 C 305.0625 154.59375 305.054688 154.40625 305.03125 154.035156 C 305.8125 154.246094 306.203125 154.351562 306.976562 154.566406 C 306.976562 154.566406 307.640625 154.519531 307.9375 154.242188 C 308.859375 156.765625 309.304688 158.078125 310.089844 160.605469 L 310.105469 160.65625 L 310.140625 160.769531 L 310.136719 160.769531 C 309.996094 160.683594 309.847656 160.589844 309.699219 160.488281 C 309.800781 160.59375 309.875 160.714844 309.914062 160.835938 C 309.984375 161.0625 309.894531 161.21875 309.707031 161.21875 "/><path style=" stroke:none;fill-rule:nonzero;fill:#ffffff;fill-opacity:1;" d="M 285.347656 280.738281 C 284.359375 280.738281 284.269531 279.195312 286.152344 277.195312 C 288.726562 274.449219 284.484375 272.121094 285.527344 270.109375 C 286.566406 268.09375 285.105469 257.4375 286.101562 255.703125 C 287.101562 253.964844 286.199219 251.054688 291.25 244.390625 C 290.121094 241.5625 290.644531 235.894531 290.367188 235.28125 C 290.367188 235.28125 291.359375 234.851562 291.578125 233.671875 C 291.667969 233.214844 291.574219 233.042969 291.410156 233.042969 C 291.148438 233.042969 290.695312 233.46875 290.441406 233.871094 C 290.382812 233.960938 290.316406 234.003906 290.246094 234.003906 C 289.8125 234.003906 289.230469 232.476562 289.5 231.964844 C 289.816406 231.367188 286.324219 228.550781 286.582031 227.480469 C 286.839844 226.414062 287.277344 223.324219 288.003906 222.164062 C 288.726562 221 289.0625 218.445312 288.613281 217.882812 C 288.589844 217.855469 288.542969 217.839844 288.484375 217.839844 C 288.203125 217.839844 287.617188 218.121094 287.617188 218.121094 C 287.617188 218.121094 287.085938 218.625 286.523438 218.625 C 286.414062 218.625 286.300781 218.609375 286.191406 218.558594 C 285.53125 218.277344 287.046875 216.609375 287.046875 216.609375 C 286.207031 216.003906 285.351562 215.421875 285.351562 215.421875 C 284.003906 215.789062 283.324219 215.972656 281.957031 216.34375 C 281.957031 216.34375 282.757812 212.199219 279.121094 212.199219 C 278.8125 212.199219 278.476562 212.226562 278.101562 212.289062 C 273.546875 213.070312 270.5625 216.03125 268.964844 216.03125 C 268.886719 216.03125 268.804688 216.023438 268.730469 216.007812 C 268.023438 215.851562 266.722656 215.59375 265.289062 215.59375 C 263.617188 215.59375 261.765625 215.9375 260.453125 217.175781 C 260.1875 217.433594 259.855469 217.542969 259.480469 217.542969 C 256.441406 217.542969 250.414062 210.070312 250.238281 209.054688 C 250.039062 207.910156 249.621094 206.519531 249.621094 206.519531 C 249.621094 206.519531 246.246094 201.65625 245.703125 201.53125 C 245.164062 201.40625 242.71875 200.226562 243.523438 198.457031 C 244.320312 196.679688 243.695312 194.71875 243.304688 193.921875 C 242.910156 193.121094 244.386719 190.832031 245.117188 189.761719 C 245.847656 188.6875 245.53125 183.984375 244.792969 182.9375 C 244.050781 181.890625 242.191406 178.578125 247.179688 172.136719 C 252.167969 165.699219 255.460938 162.667969 255.460938 162.667969 C 255.675781 160.304688 255.773438 159.132812 255.9375 156.808594 C 255.9375 156.808594 260.066406 154.667969 260.734375 152.507812 C 260.953125 151.804688 261.164062 151.554688 261.390625 151.554688 C 261.847656 151.554688 262.339844 152.617188 262.9375 152.917969 C 263.808594 153.355469 265.910156 154.238281 266.167969 154.238281 C 266.175781 154.238281 266.175781 154.238281 266.183594 154.238281 C 267.375 153.960938 271.617188 152.144531 273.289062 152.144531 C 273.445312 152.144531 273.582031 152.164062 273.691406 152.199219 C 274.925781 152.617188 281.671875 153.589844 281.671875 153.589844 C 281.671875 153.589844 282.269531 153.285156 283.042969 153.285156 C 284.355469 153.285156 286.171875 154.160156 286.425781 158.871094 C 287.328125 161.164062 292.796875 162.636719 293.394531 162.976562 C 293.394531 162.976562 295.304688 164.773438 295.363281 165.785156 C 295.421875 166.792969 298.804688 167.394531 299.597656 168.089844 C 299.726562 168.207031 299.871094 168.253906 300.011719 168.253906 C 300.71875 168.253906 301.480469 167.0625 301.480469 167.0625 C 301.480469 167.0625 300.066406 163.933594 301.484375 163.933594 C 301.511719 163.933594 301.539062 163.933594 301.566406 163.9375 C 303.117188 164.058594 304.269531 164.691406 304.269531 164.691406 C 306.128906 165.902344 307.050781 166.496094 308.886719 167.675781 C 310.257812 168.015625 310.945312 168.1875 312.292969 168.53125 L 312.300781 168.53125 L 312.347656 168.757812 C 319.941406 205.394531 315.242188 239.300781 297.691406 272.363281 L 297.660156 272.425781 L 297.648438 272.429688 C 295.167969 274.773438 293.121094 276.671875 292.902344 276.703125 C 292.296875 276.789062 288.84375 278.28125 286.765625 280.046875 C 286.207031 280.523438 285.71875 280.738281 285.347656 280.738281 "/><path style=" stroke:none;fill-rule:nonzero;fill:#ffffff;fill-opacity:1;" d="M 302.105469 158.625 C 302 158.625 301.941406 158.511719 301.941406 158.511719 C 301.941406 158.511719 299.492188 155.691406 299.339844 155.3125 C 299.273438 155.144531 299.492188 155.097656 299.753906 155.097656 C 300.078125 155.097656 300.460938 155.171875 300.460938 155.171875 C 300.425781 154.890625 300.414062 154.75 300.378906 154.472656 C 300.378906 154.472656 297.546875 153.835938 297.160156 152.925781 C 296.769531 152.015625 294.496094 148.367188 294.496094 148.367188 C 294.496094 148.367188 292.984375 146.5625 291.21875 145.605469 C 289.453125 144.644531 286.980469 141.949219 286.457031 141.796875 C 285.929688 141.652344 285.113281 141.078125 284.808594 140.21875 C 284.703125 139.933594 284.449219 139.808594 284.195312 139.808594 C 283.683594 139.808594 283.160156 140.304688 283.796875 140.96875 C 284.742188 141.96875 287.453125 144.269531 288.386719 145.644531 C 289.320312 147.023438 292.839844 149.070312 293.878906 149.859375 C 294.914062 150.640625 294.964844 151.207031 294.964844 151.207031 C 293.996094 150.945312 293.511719 150.8125 292.539062 150.550781 C 292.539062 150.550781 293.027344 150.976562 293.21875 151.8125 C 293.410156 152.648438 293.113281 153.859375 292.859375 153.859375 C 292.855469 153.859375 292.855469 153.859375 292.851562 153.859375 C 292.597656 153.84375 291.636719 153.535156 291.636719 153.535156 C 291.382812 152.484375 291.253906 151.964844 290.988281 150.921875 C 290.988281 150.921875 286.511719 146.023438 285.316406 146.023438 C 285.292969 146.023438 285.265625 146.027344 285.242188 146.035156 C 285.214844 146.039062 285.1875 146.042969 285.160156 146.042969 C 284.027344 146.042969 281.035156 141.636719 280.992188 141.058594 C 280.972656 140.777344 280.417969 140.554688 279.78125 140.554688 C 279.078125 140.554688 278.277344 140.824219 277.980469 141.574219 C 277.796875 142.042969 277.386719 142.214844 276.910156 142.214844 C 275.929688 142.214844 274.660156 141.496094 274.433594 141.15625 C 274.304688 140.96875 273.910156 140.832031 273.507812 140.832031 C 272.851562 140.832031 272.1875 141.199219 272.683594 142.292969 C 273.105469 143.210938 273.132812 143.433594 273.0625 143.433594 C 273 143.433594 272.855469 143.246094 272.855469 143.246094 C 272.855469 143.246094 268.886719 145.601562 268.953125 147.6875 C 269.019531 149.726562 267.238281 150.96875 266.480469 150.96875 C 266.460938 150.96875 266.445312 150.96875 266.425781 150.964844 C 265.703125 150.902344 262.574219 150.53125 262.574219 150.53125 C 262.574219 150.53125 262.058594 150.859375 261.265625 150.859375 C 260.898438 150.859375 260.476562 150.789062 260.019531 150.589844 C 258.785156 150.058594 258.996094 148.5 258.667969 148.5 C 258.605469 148.5 258.527344 148.550781 258.417969 148.675781 C 258.417969 148.675781 257.90625 148.855469 257.328125 148.855469 C 256.679688 148.855469 255.9375 148.625 255.726562 147.648438 C 255.328125 145.800781 255.546875 141.109375 255.441406 139.769531 C 255.339844 138.441406 253.964844 136.273438 256.277344 136.273438 C 256.289062 136.273438 256.304688 136.273438 256.320312 136.273438 C 258.664062 136.300781 260.875 138.308594 261.6875 138.308594 C 261.699219 138.308594 261.703125 138.308594 261.714844 138.308594 C 261.824219 138.300781 261.960938 138.296875 262.105469 138.296875 C 263.035156 138.296875 264.5625 138.410156 264.726562 138.445312 C 264.929688 138.445312 265.855469 135.035156 264.941406 133.617188 C 264.023438 132.195312 260.621094 130.449219 260.117188 129.558594 C 259.617188 128.667969 260.699219 128.707031 263.027344 128.414062 C 263.429688 128.363281 263.777344 128.34375 264.078125 128.34375 C 264.546875 128.34375 264.902344 128.390625 265.183594 128.433594 C 265.460938 128.480469 265.660156 128.527344 265.808594 128.527344 C 265.976562 128.527344 266.082031 128.46875 266.164062 128.296875 C 266.421875 127.757812 266.914062 126.355469 267.96875 126.355469 C 268.078125 126.355469 268.191406 126.375 268.316406 126.40625 C 268.390625 126.421875 268.460938 126.433594 268.542969 126.433594 C 269.839844 126.433594 271.695312 123.890625 271.695312 123.890625 C 272.726562 124.230469 273.238281 124.40625 274.257812 124.761719 C 274.257812 124.761719 275.191406 124.335938 274.625 123.871094 C 274.0625 123.402344 272.015625 121.023438 272.453125 120.660156 C 272.867188 120.324219 273.375 119.464844 273.707031 119.464844 C 273.730469 119.464844 273.75 119.46875 273.773438 119.476562 C 274.101562 119.605469 274.777344 121.996094 274.777344 121.996094 C 274.777344 121.996094 275.152344 121.894531 275.59375 121.894531 C 275.914062 121.894531 276.269531 121.945312 276.554688 122.117188 C 277.230469 122.535156 278.417969 123.859375 278.054688 123.988281 C 278.015625 124 277.96875 124.007812 277.914062 124.007812 C 277.753906 124.007812 277.535156 123.953125 277.320312 123.894531 C 277.105469 123.839844 276.902344 123.789062 276.753906 123.789062 C 276.648438 123.789062 276.574219 123.816406 276.566406 123.894531 C 276.507812 124.207031 276.953125 125.398438 277.355469 125.398438 C 277.390625 125.398438 277.429688 125.386719 277.464844 125.367188 C 277.542969 125.320312 277.664062 125.300781 277.8125 125.300781 C 278.488281 125.300781 279.722656 125.699219 279.722656 125.699219 C 280.300781 126.199219 280.585938 126.449219 281.160156 126.949219 C 282.320312 126.972656 282.890625 126.992188 284.019531 127.050781 C 284.84375 127.558594 285.25 127.816406 286.074219 128.324219 C 286.6875 128.015625 286.984375 127.871094 287.5625 127.597656 C 287.023438 126.480469 286.75 125.917969 286.191406 124.8125 C 286.894531 125.140625 287.246094 125.308594 287.941406 125.640625 C 288.359375 125.941406 288.570312 126.089844 288.984375 126.386719 C 288.984375 126.386719 289.453125 126.273438 288.914062 125.621094 C 288.402344 125 287.070312 123.488281 287.40625 123.488281 C 287.421875 123.488281 287.4375 123.488281 287.464844 123.496094 C 287.976562 123.644531 289.882812 124.898438 289.882812 124.898438 C 289.882812 124.898438 291.316406 125.402344 291.773438 125.402344 C 291.90625 125.402344 291.953125 125.355469 291.839844 125.234375 C 291.839844 125.234375 289.40625 123.429688 289.226562 123.429688 C 289.226562 123.429688 289.226562 123.429688 289.222656 123.429688 C 289.21875 123.429688 289.214844 123.429688 289.210938 123.429688 C 289 123.429688 287.589844 123.027344 287.398438 122.875 C 287.207031 122.714844 284.488281 121.042969 284.351562 120.761719 C 284.214844 120.476562 281.851562 118.796875 282.03125 117.355469 C 282.210938 115.914062 282.355469 115.480469 281.65625 114.824219 C 281.371094 114.550781 280.84375 114.390625 280.34375 114.390625 C 279.632812 114.390625 278.980469 114.707031 279.117188 115.460938 C 279.355469 116.75 278.335938 116.285156 278.527344 116.816406 C 278.722656 117.351562 280.820312 119.5 281.308594 119.691406 C 281.792969 119.886719 281.878906 121.027344 281.878906 121.027344 C 281.878906 121.027344 280.640625 121.207031 281.066406 122.796875 C 281.367188 123.90625 280.738281 124.238281 280.167969 124.238281 C 279.925781 124.238281 279.691406 124.179688 279.542969 124.09375 C 279.058594 123.796875 276.984375 121.894531 276.984375 121.894531 C 276.984375 121.894531 274.179688 117.699219 273.480469 117.3125 C 273.386719 117.261719 273.292969 117.238281 273.203125 117.238281 C 272.9375 117.238281 272.695312 117.417969 272.476562 117.597656 C 272.261719 117.777344 272.0625 117.957031 271.910156 117.957031 C 271.875 117.957031 271.839844 117.945312 271.8125 117.925781 C 271.050781 117.628906 270.671875 117.480469 269.902344 117.1875 C 269.902344 117.1875 268.132812 115.96875 267.910156 115.082031 C 267.683594 114.199219 266.746094 112.4375 266.746094 112.4375 C 266.746094 112.4375 265.769531 110.402344 267.394531 110.402344 C 267.722656 110.402344 268.164062 110.488281 268.742188 110.691406 C 269.03125 110.804688 269.28125 110.859375 269.503906 110.859375 C 270.390625 110.859375 270.8125 110.027344 271.339844 109.195312 C 271.871094 108.363281 272.511719 107.53125 273.851562 107.53125 C 274.886719 107.53125 276.339844 108.03125 278.480469 109.410156 C 278.480469 109.410156 282.820312 112.28125 286.359375 115.800781 C 286.574219 116.011719 286.789062 116.21875 287 116.421875 L 287.035156 116.453125 C 287.601562 117.183594 287.882812 117.550781 288.441406 118.292969 L 288.4375 118.289062 C 288.273438 118.175781 288.160156 118.105469 288.117188 118.101562 C 288.113281 118.101562 288.113281 118.101562 288.113281 118.101562 C 288.039062 118.101562 288.476562 118.574219 289.148438 119.253906 L 289.191406 119.304688 C 289.367188 119.542969 289.535156 119.789062 289.710938 120.027344 C 290.191406 120.695312 290.667969 121.359375 291.132812 122.03125 C 291.398438 122.402344 291.65625 122.777344 291.914062 123.152344 C 292.410156 123.875 292.894531 124.597656 293.375 125.328125 C 293.589844 125.652344 293.804688 125.976562 294.011719 126.300781 C 294.636719 127.265625 295.25 128.234375 295.847656 129.214844 C 295.90625 129.304688 295.964844 129.398438 296.019531 129.488281 C 296.691406 130.589844 297.34375 131.699219 297.984375 132.816406 C 298.121094 133.058594 298.253906 133.300781 298.386719 133.542969 C 298.871094 134.398438 299.347656 135.261719 299.816406 136.132812 C 300.011719 136.496094 300.199219 136.855469 300.386719 137.214844 C 300.789062 137.984375 301.1875 138.757812 301.578125 139.53125 C 301.769531 139.921875 301.964844 140.308594 302.164062 140.707031 C 302.542969 141.484375 302.921875 142.277344 303.289062 143.066406 C 303.457031 143.433594 303.632812 143.796875 303.800781 144.160156 C 304.253906 145.15625 304.695312 146.160156 305.128906 147.167969 C 305.1875 147.300781 305.246094 147.433594 305.304688 147.5625 L 305.304688 147.566406 C 305.199219 148.078125 305.34375 149.066406 305.148438 149.636719 C 304.910156 150.34375 306.203125 151.027344 306.800781 152.0625 C 306.875 152.183594 307.042969 152.328125 307.273438 152.480469 L 307.285156 152.492188 C 307.382812 152.75 307.433594 152.878906 307.527344 153.136719 L 307.515625 153.128906 C 307.171875 152.878906 306.761719 152.796875 306.371094 152.796875 C 305.617188 152.796875 304.9375 153.105469 304.9375 153.105469 C 304.9375 153.105469 303.507812 152.328125 303 152.058594 C 302.925781 152.019531 302.859375 152 302.796875 152 C 302.453125 152 302.324219 152.582031 302.101562 153 C 302.03125 153.132812 301.925781 153.1875 301.800781 153.1875 C 301.46875 153.1875 301.019531 152.785156 300.910156 152.550781 C 300.882812 152.480469 300.820312 152.449219 300.75 152.449219 C 300.460938 152.449219 300.011719 152.945312 300.828125 153.761719 C 301.851562 154.777344 303.25 156.203125 302.742188 157.640625 C 302.460938 158.445312 302.242188 158.625 302.105469 158.625 "/><path style=" stroke:none;fill-rule:nonzero;fill:#ffffff;fill-opacity:1;" d="M 285.027344 221.878906 C 284.78125 221.878906 284.605469 221.667969 284.625 221.390625 L 284.640625 221.210938 C 284.664062 220.925781 284.890625 220.675781 285.152344 220.660156 C 285.164062 220.660156 285.171875 220.660156 285.179688 220.660156 C 285.425781 220.660156 285.609375 220.871094 285.585938 221.148438 L 285.570312 221.328125 C 285.550781 221.613281 285.316406 221.863281 285.058594 221.878906 C 285.046875 221.878906 285.039062 221.878906 285.027344 221.878906 "/><path style=" stroke:none;fill-rule:nonzero;fill:#ffffff;fill-opacity:1;" d="M 283.757812 224 C 283.46875 224 283.265625 223.757812 283.292969 223.433594 C 283.324219 223.09375 283.59375 222.804688 283.898438 222.78125 C 284.113281 222.765625 284.222656 222.757812 284.441406 222.742188 C 284.449219 222.742188 284.460938 222.742188 284.472656 222.742188 C 284.761719 222.742188 284.96875 222.988281 284.941406 223.3125 C 284.914062 223.644531 284.640625 223.933594 284.335938 223.960938 C 284.121094 223.976562 284.011719 223.984375 283.800781 224 C 283.785156 224 283.769531 224 283.757812 224 "/><path style=" stroke:none;fill-rule:nonzero;fill:#04a1c4;fill-opacity:1;" d="M 297.738281 42.4375 C 298.066406 42.109375 298.601562 42.109375 298.929688 42.4375 L 300.109375 43.617188 C 300.742188 44.28125 300.042969 44.898438 299.558594 45.359375 C 299.558594 45.359375 300.519531 46.441406 300.613281 46.675781 L 301.300781 45.988281 C 302.28125 45.007812 302.28125 43.414062 301.300781 42.4375 L 300.109375 41.246094 C 299.128906 40.265625 297.539062 40.265625 296.558594 41.246094 L 295.871094 41.941406 C 295.871094 41.941406 296.785156 42.585938 297.1875 42.988281 Z M 297.738281 42.4375 "/><path style=" stroke:none;fill-rule:nonzero;fill:#04a1c4;fill-opacity:1;" d="M 299.257812 46.539062 L 296.007812 43.289062 C 295.195312 42.484375 293.8125 42.496094 293.03125 43.28125 C 292.398438 43.929688 288.492188 47.777344 288.15625 48.207031 L 288.132812 48.183594 L 284.320312 52 C 287.363281 52.625 289.929688 55.183594 290.542969 58.234375 L 299.265625 49.515625 C 300.074219 48.742188 300.078125 47.316406 299.257812 46.539062 Z M 292.78125 53.015625 L 290.820312 54.976562 C 290.660156 55.144531 290.445312 55.226562 290.226562 55.226562 C 289.515625 55.25 289.105469 54.289062 289.640625 53.792969 L 291.601562 51.835938 C 292.378906 51.054688 293.550781 52.234375 292.78125 53.015625 Z M 295.746094 50.050781 C 295.386719 50.328125 294.488281 51.566406 293.96875 51.480469 C 293.25 51.507812 292.839844 50.550781 293.375 50.050781 L 294.566406 48.867188 C 295.335938 48.097656 296.515625 49.28125 295.746094 50.050781 Z M 297.394531 48.382812 C 297.21875 48.496094 296.972656 48.558594 296.769531 48.507812 C 296.613281 48.472656 296.445312 48.390625 296.339844 48.273438 C 295.679688 47.664062 296.441406 46.558594 297.253906 46.910156 C 297.863281 47.148438 297.949219 48.03125 297.394531 48.382812 Z M 297.394531 48.382812 "/><path style=" stroke:none;fill-rule:nonzero;fill:#04a1c4;fill-opacity:1;" d="M 276.285156 60.449219 C 274.207031 60.492188 275.894531 64.902344 276.933594 65.609375 C 277.65625 66.667969 282.089844 68.335938 282.125 66.25 C 282.074219 65.789062 281.664062 65.460938 281.199219 65.507812 C 280.058594 65.632812 278.933594 65.238281 278.121094 64.425781 C 277.3125 63.621094 276.917969 62.507812 277.035156 61.367188 C 277.082031 60.90625 276.746094 60.496094 276.285156 60.449219 Z M 276.285156 60.449219 "/><path style=" stroke:none;fill-rule:nonzero;fill:#04a1c4;fill-opacity:1;" d="M 280.773438 73.355469 C 281.527344 73.335938 282.867188 73.46875 282.792969 72.363281 C 282.742188 71.902344 282.316406 71.574219 281.871094 71.621094 C 275.769531 72.445312 270.136719 66.832031 270.917969 60.734375 C 271.027344 59.652344 269.371094 59.472656 269.25 60.566406 C 268.40625 67.195312 274.113281 73.511719 280.773438 73.355469 Z M 280.773438 73.355469 "/><path style=" stroke:none;fill-rule:nonzero;fill:#04a1c4;fill-opacity:1;" d="M 282.535156 77.738281 C 272.617188 79.03125 263.566406 70.027344 264.796875 60.105469 C 264.910156 59.023438 263.242188 58.835938 263.128906 59.933594 C 261.792969 70.941406 271.757812 80.8125 282.71875 79.40625 C 283.800781 79.277344 283.636719 77.628906 282.535156 77.738281 Z M 282.535156 77.738281 "/><path style=" stroke:none;fill-rule:nonzero;fill:#04a1c4;fill-opacity:1;" d="M 289.875 60.175781 C 289.851562 59.605469 289.742188 59.035156 289.589844 58.492188 L 289.582031 58.5 C 288.863281 55.945312 286.792969 53.875 284.238281 53.15625 L 284.246094 53.144531 C 283.578125 52.964844 282.867188 52.839844 282.160156 52.863281 L 282.144531 52.878906 C 279.746094 52.6875 275.695312 54.515625 277.738281 57.351562 C 277.738281 57.421875 279.316406 58.964844 279.40625 59.058594 C 277.738281 61.683594 281.058594 65 283.675781 63.332031 C 283.785156 63.433594 285.308594 64.984375 285.386719 65.007812 C 285.496094 65.082031 285.605469 65.167969 285.710938 65.226562 C 285.722656 65.234375 285.730469 65.234375 285.738281 65.242188 C 287.128906 66.023438 288.625 65.175781 289.207031 63.757812 C 289.65625 62.78125 289.902344 61.65625 289.859375 60.59375 L 289.875 60.574219 C 289.875 60.441406 289.882812 60.308594 289.875 60.175781 Z M 282.386719 62.066406 C 281.421875 62.269531 280.464844 61.332031 280.671875 60.359375 L 280.679688 60.332031 L 282.402344 62.058594 Z M 287.855469 62.652344 C 287.636719 63.3125 287.183594 64.328125 286.359375 63.667969 L 279.070312 56.378906 C 278.769531 56.101562 278.828125 55.59375 279.136719 55.339844 C 282.578125 53.160156 287.511719 55.53125 288.109375 59.511719 C 288.125 59.5625 288.132812 59.613281 288.140625 59.671875 C 288.140625 59.695312 288.148438 59.730469 288.160156 59.761719 C 288.300781 60.691406 288.226562 61.671875 287.855469 62.652344 Z M 287.855469 62.652344 "/><path style=" stroke:none;fill-rule:nonzero;fill:#04a1c4;fill-opacity:1;" d="M 309.25 62.664062 L 301.636719 55.050781 C 300.738281 54.15625 299.171875 54.15625 298.277344 55.050781 L 297.238281 56.089844 L 295.703125 54.554688 L 294.515625 55.738281 C 294.8125 56.039062 295.742188 56.957031 296.054688 57.269531 L 295.007812 58.308594 C 294.085938 59.238281 294.085938 60.746094 295.007812 61.667969 C 296.425781 63.09375 301.125 67.78125 302.625 69.28125 C 303.507812 70.203125 305.105469 70.207031 305.980469 69.28125 L 309.25 66.023438 C 310.171875 65.136719 310.171875 63.542969 309.25 62.664062 Z M 305.296875 61.082031 L 303.761719 62.613281 L 301.683594 60.539062 L 303.21875 59.003906 Z M 299.457031 56.230469 C 299.726562 55.964844 300.195312 55.964844 300.453125 56.230469 L 302.035156 57.816406 L 300.496094 59.347656 L 298.417969 57.269531 Z M 296.199219 60.488281 C 295.488281 59.730469 296.78125 59.027344 297.238281 58.460938 L 299.316406 60.539062 L 297.78125 62.070312 Z M 298.960938 63.25 L 300.496094 61.71875 L 302.582031 63.796875 L 301.039062 65.335938 Z M 304.800781 68.101562 C 304.53125 68.359375 304.082031 68.371094 303.8125 68.101562 L 302.230469 66.519531 L 303.761719 64.984375 L 305.839844 67.0625 Z M 308.058594 64.835938 L 307.019531 65.871094 L 304.945312 63.796875 L 306.484375 62.261719 L 308.058594 63.847656 C 308.335938 64.105469 308.335938 64.574219 308.058594 64.835938 Z M 308.058594 64.835938 "/><g clip-rule="nonzero" clip-path="url(#5b32cc9f49)"><path style=" stroke:none;fill-rule:nonzero;fill:#04a1c4;fill-opacity:1;" d="M 286.457031 45.308594 L 287.496094 44.269531 C 288.425781 43.347656 288.425781 41.839844 287.496094 40.910156 L 285.324219 38.734375 L 279.882812 33.296875 C 278.984375 32.402344 277.417969 32.402344 276.523438 33.296875 L 273.265625 36.5625 C 272.34375 37.445312 272.34375 39.035156 273.265625 39.921875 L 280.878906 47.535156 C 281.757812 48.457031 283.347656 48.457031 284.238281 47.535156 L 285.277344 46.5 L 286.808594 48.03125 L 287.988281 46.84375 C 287.628906 46.484375 286.824219 45.675781 286.457031 45.308594 Z M 283.542969 39.328125 L 282.007812 40.859375 L 279.929688 38.785156 L 281.464844 37.25 Z M 278.207031 34.277344 C 278.605469 34.164062 279.816406 35.679688 280.285156 36.070312 L 278.75 37.601562 L 276.671875 35.523438 C 276.984375 35.28125 277.753906 34.21875 278.207031 34.277344 Z M 274.445312 38.734375 C 274.3125 38.609375 274.242188 38.433594 274.242188 38.238281 C 274.175781 37.796875 275.25 37.007812 275.484375 36.707031 L 277.5625 38.785156 L 276.027344 40.316406 Z M 277.21875 41.507812 L 278.75 39.972656 L 280.828125 42.050781 L 279.296875 43.582031 Z M 283.046875 46.347656 C 282.789062 46.617188 282.328125 46.617188 282.058594 46.347656 L 280.476562 44.765625 L 282.007812 43.230469 L 284.085938 45.308594 Z M 285.277344 44.128906 L 283.199219 42.050781 L 284.730469 40.507812 L 286.3125 42.09375 C 286.582031 42.367188 286.582031 42.8125 286.3125 43.089844 Z M 285.277344 44.128906 "/></g></g></svg>