<svg xmlns="http://www.w3.org/2000/svg" xmlns:xlink="http://www.w3.org/1999/xlink" width="500" zoomAndPan="magnify" viewBox="0 0 375 374.999991" height="500" preserveAspectRatio="xMidYMid meet" version="1.2"><defs><clipPath id="5ec91fdd43"><path d="M 64 63.582031 L 311.082031 63.582031 L 311.082031 311 L 64 311 Z M 64 63.582031 "/></clipPath></defs><g id="6c2e409f9f"><g clip-rule="nonzero" clip-path="url(#5ec91fdd43)"><path style=" stroke:none;fill-rule:nonzero;fill:#ffffff;fill-opacity:1;" d="M 304.222656 63.855469 C 243.496094 63.855469 187.332031 89.867188 147.972656 132.453125 L 70.988281 132.453125 C 68.214844 132.453125 65.714844 134.125 64.652344 136.6875 C 63.589844 139.25 64.175781 142.199219 66.136719 144.160156 L 110.621094 188.644531 C 106.019531 198.769531 102.15625 209.332031 99.15625 220.308594 C 98.503906 222.683594 99.179688 225.222656 100.921875 226.964844 L 147.96875 274.011719 C 149.273438 275.316406 151.023438 276.019531 152.820312 276.019531 C 153.425781 276.019531 154.03125 275.941406 154.628906 275.777344 C 165.605469 272.777344 176.167969 268.914062 186.292969 264.3125 L 230.773438 308.796875 C 232.085938 310.109375 233.839844 310.804688 235.625 310.804688 C 236.507812 310.804688 237.398438 310.636719 238.246094 310.285156 C 240.8125 309.222656 242.484375 306.722656 242.484375 303.945312 L 242.484375 226.964844 C 285.070312 187.605469 311.082031 131.441406 311.082031 70.714844 C 311.082031 66.925781 308.011719 63.855469 304.222656 63.855469 Z M 154.820312 261.464844 L 113.472656 220.113281 C 130.203125 163.414062 171.039062 118.40625 222.847656 95.082031 L 279.855469 152.089844 C 256.53125 203.894531 211.523438 244.734375 154.820312 261.464844 Z M 297.242188 77.695312 C 296.5 98.753906 292.417969 119.148438 285.464844 138.292969 L 236.640625 89.472656 C 255.789062 82.523438 276.183594 78.4375 297.242188 77.695312 Z M 87.550781 146.171875 L 136.335938 146.171875 C 129.148438 155.40625 122.695312 165.265625 117.070312 175.6875 Z M 228.765625 287.382812 L 199.246094 257.867188 C 209.667969 252.242188 219.53125 245.792969 228.765625 238.605469 Z M 228.765625 287.382812 "/></g><path style=" stroke:none;fill-rule:nonzero;fill:#ffffff;fill-opacity:1;" d="M 70.988281 310.804688 C 72.746094 310.804688 74.5 310.136719 75.839844 308.796875 L 103.28125 281.359375 C 105.960938 278.679688 105.960938 274.335938 103.28125 271.660156 C 100.601562 268.980469 96.253906 268.980469 93.582031 271.660156 L 66.140625 299.097656 C 63.460938 301.777344 63.460938 306.121094 66.140625 308.796875 C 67.476562 310.136719 69.234375 310.804688 70.988281 310.804688 Z M 70.988281 310.804688 "/><path style=" stroke:none;fill-rule:nonzero;fill:#ffffff;fill-opacity:1;" d="M 100.4375 308.796875 C 101.777344 310.136719 103.53125 310.804688 105.289062 310.804688 C 107.042969 310.804688 108.800781 310.136719 110.140625 308.796875 L 130.71875 288.21875 C 133.398438 285.539062 133.398438 281.195312 130.71875 278.519531 C 128.039062 275.839844 123.695312 275.839844 121.019531 278.519531 L 100.441406 299.097656 C 97.757812 301.773438 97.757812 306.121094 100.4375 308.796875 Z M 100.4375 308.796875 "/><path style=" stroke:none;fill-rule:nonzero;fill:#ffffff;fill-opacity:1;" d="M 70.988281 276.507812 C 72.746094 276.507812 74.5 275.839844 75.839844 274.5 L 96.421875 253.921875 C 99.101562 251.242188 99.101562 246.898438 96.421875 244.21875 C 93.742188 241.539062 89.394531 241.539062 86.71875 244.21875 L 66.140625 264.800781 C 63.460938 267.476562 63.460938 271.820312 66.140625 274.5 C 67.476562 275.839844 69.234375 276.507812 70.988281 276.507812 Z M 70.988281 276.507812 "/><path style=" stroke:none;fill-rule:nonzero;fill:#ffffff;fill-opacity:1;" d="M 201.324219 139.3125 C 182.410156 139.3125 167.027344 154.699219 167.027344 173.613281 C 167.027344 192.523438 182.410156 207.910156 201.324219 207.910156 C 220.238281 207.910156 235.625 192.523438 235.625 173.613281 C 235.625 154.699219 220.238281 139.3125 201.324219 139.3125 Z M 201.324219 194.191406 C 189.976562 194.191406 180.746094 184.960938 180.746094 173.613281 C 180.746094 162.261719 189.976562 153.03125 201.324219 153.03125 C 212.671875 153.03125 221.902344 162.261719 221.902344 173.613281 C 221.902344 184.960938 212.671875 194.191406 201.324219 194.191406 Z M 201.324219 194.191406 "/><g style="fill:#000000;fill-opacity:1;"><g transform="translate(186.595509, 178.958462)"><path style="stroke:none" d="M 0.015625 -0.484375 L 0.015625 -0.546875 L 0.125 -0.546875 L 0.125 -0.734375 L 0.203125 -0.734375 L 0.203125 -0.546875 L 0.328125 -0.546875 L 0.328125 -0.484375 L 0.203125 -0.484375 L 0.203125 0 L 0.125 0 L 0.125 -0.484375 Z M 0.015625 -0.484375 "/></g></g><g style="fill:#000000;fill-opacity:1;"><g transform="translate(186.93458, 178.958462)"><path style="stroke:none" d="M 0.328125 -0.046875 C 0.367188 -0.046875 0.40625 -0.0546875 0.4375 -0.078125 C 0.476562 -0.109375 0.503906 -0.140625 0.515625 -0.171875 L 0.59375 -0.171875 C 0.570312 -0.117188 0.535156 -0.0703125 0.484375 -0.03125 C 0.429688 0 0.378906 0.015625 0.328125 0.015625 C 0.273438 0.015625 0.222656 0.00390625 0.171875 -0.015625 C 0.128906 -0.046875 0.09375 -0.0820312 0.0625 -0.125 C 0.0390625 -0.164062 0.03125 -0.210938 0.03125 -0.265625 C 0.03125 -0.316406 0.0390625 -0.363281 0.0625 -0.40625 C 0.09375 -0.457031 0.128906 -0.492188 0.171875 -0.515625 C 0.222656 -0.546875 0.273438 -0.5625 0.328125 -0.5625 C 0.378906 -0.5625 0.425781 -0.546875 0.46875 -0.515625 C 0.507812 -0.492188 0.539062 -0.457031 0.5625 -0.40625 C 0.59375 -0.363281 0.609375 -0.316406 0.609375 -0.265625 L 0.609375 -0.25 L 0.109375 -0.25 C 0.109375 -0.207031 0.117188 -0.171875 0.140625 -0.140625 C 0.160156 -0.117188 0.1875 -0.0976562 0.21875 -0.078125 C 0.25 -0.0546875 0.285156 -0.046875 0.328125 -0.046875 Z M 0.328125 -0.5 C 0.285156 -0.5 0.25 -0.488281 0.21875 -0.46875 C 0.195312 -0.457031 0.175781 -0.4375 0.15625 -0.40625 C 0.132812 -0.375 0.117188 -0.34375 0.109375 -0.3125 L 0.53125 -0.3125 C 0.519531 -0.363281 0.492188 -0.40625 0.453125 -0.4375 C 0.421875 -0.476562 0.378906 -0.5 0.328125 -0.5 Z M 0.328125 -0.5 "/></g></g><g style="fill:#000000;fill-opacity:1;"><g transform="translate(187.584715, 178.958462)"><path style="stroke:none" d="M 0.09375 0 L 0.015625 0 L 0.203125 -0.28125 L 0.015625 -0.546875 L 0.09375 -0.546875 L 0.234375 -0.34375 L 0.390625 -0.546875 L 0.46875 -0.546875 L 0.28125 -0.28125 L 0.46875 0 L 0.390625 0 L 0.234375 -0.21875 Z M 0.09375 0 "/></g></g><g style="fill:#000000;fill-opacity:1;"><g transform="translate(188.064816, 178.958462)"><path style="stroke:none" d="M 0.015625 -0.484375 L 0.015625 -0.546875 L 0.125 -0.546875 L 0.125 -0.734375 L 0.203125 -0.734375 L 0.203125 -0.546875 L 0.328125 -0.546875 L 0.328125 -0.484375 L 0.203125 -0.484375 L 0.203125 0 L 0.125 0 L 0.125 -0.484375 Z M 0.015625 -0.484375 "/></g></g></g></svg>