<svg xmlns="http://www.w3.org/2000/svg" xmlns:xlink="http://www.w3.org/1999/xlink" width="500" zoomAndPan="magnify" viewBox="0 0 375 374.999991" height="500" preserveAspectRatio="xMidYMid meet" version="1.2"><defs><clipPath id="763f9c8a08"><path d="M 192 246 L 311.625 246 L 311.625 337.5 L 192 337.5 Z M 192 246 "/></clipPath><clipPath id="1b61a4996a"><path d="M 63.375 59 L 177 59 L 177 154 L 63.375 154 Z M 63.375 59 "/></clipPath><clipPath id="35480d0270"><path d="M 64 37.5 L 177 37.5 L 177 151 L 64 151 Z M 64 37.5 "/></clipPath><clipPath id="47d2279248"><path d="M 192 223 L 311.625 223 L 311.625 335 L 192 335 Z M 192 223 "/></clipPath></defs><g id="51c686d706"><path style=" stroke:none;fill-rule:nonzero;fill:#867665;fill-opacity:1;" d="M 256.582031 151.253906 L 255.609375 148.972656 L 263.339844 145.671875 C 263.667969 145.535156 263.902344 145.226562 263.984375 144.832031 C 264.074219 144.390625 263.960938 143.894531 263.679688 143.503906 L 255.472656 132.117188 C 255.296875 131.875 254.996094 131.746094 254.730469 131.796875 L 250.445312 132.644531 L 249.960938 130.21875 L 254.253906 129.371094 C 255.46875 129.128906 256.738281 129.636719 257.480469 130.667969 L 265.691406 142.058594 C 266.382812 143.015625 266.640625 144.210938 266.40625 145.335938 C 266.164062 146.519531 265.375 147.496094 264.3125 147.949219 L 256.582031 151.253906 "/><path style=" stroke:none;fill-rule:nonzero;fill:#867665;fill-opacity:1;" d="M 267.660156 175.089844 L 266.6875 172.808594 L 274.414062 169.507812 C 274.742188 169.371094 274.976562 169.0625 275.058594 168.667969 C 275.152344 168.226562 275.039062 167.730469 274.753906 167.339844 L 266.546875 155.953125 C 266.371094 155.707031 266.074219 155.578125 265.804688 155.636719 L 261.519531 156.484375 L 261.039062 154.050781 L 265.328125 153.203125 C 266.542969 152.964844 267.8125 153.472656 268.554688 154.5 L 276.765625 165.894531 C 277.453125 166.851562 277.71875 168.046875 277.484375 169.171875 C 277.238281 170.355469 276.453125 171.332031 275.386719 171.789062 L 267.660156 175.089844 "/><path style=" stroke:none;fill-rule:nonzero;fill:#b5a699;fill-opacity:1;" d="M 265.101562 195.40625 L 290.511719 209.523438 L 291.214844 208.582031 L 265.101562 190.230469 L 265.101562 195.40625 "/><path style=" stroke:none;fill-rule:nonzero;fill:#b5a699;fill-opacity:1;" d="M 256.039062 176.398438 L 253.089844 187.742188 L 268.015625 180.65625 L 273.421875 172.742188 L 256.039062 176.398438 "/><path style=" stroke:none;fill-rule:nonzero;fill:#b5a699;fill-opacity:1;" d="M 236.171875 136.96875 L 234.789062 145.15625 L 247.996094 141.234375 L 253.558594 133.316406 L 236.171875 136.96875 "/><path style=" stroke:none;fill-rule:nonzero;fill:#b5a699;fill-opacity:1;" d="M 254.386719 161.5 L 251.4375 172.847656 L 265.953125 167.652344 L 271.773438 157.847656 L 254.386719 161.5 "/><path style=" stroke:none;fill-rule:nonzero;fill:#d0c7b8;fill-opacity:1;" d="M 258.292969 166.199219 L 265.207031 175.28125 L 273.355469 172.804688 L 266.445312 164.136719 L 258.292969 166.199219 "/><path style=" stroke:none;fill-rule:nonzero;fill:#d0c7b8;fill-opacity:1;" d="M 227.753906 122.070312 L 239.578125 137.59375 L 253.515625 133.363281 L 241.691406 118.539062 L 227.753906 122.070312 "/><path style=" stroke:none;fill-rule:nonzero;fill:#d0c7b8;fill-opacity:1;" d="M 246 146.554688 L 257.824219 162.082031 L 271.761719 157.84375 L 259.9375 143.027344 L 246 146.554688 "/><g clip-rule="nonzero" clip-path="url(#763f9c8a08)"><path style=" stroke:none;fill-rule:nonzero;fill:#d57b31;fill-opacity:1;" d="M 192.46875 249.457031 L 251.457031 337.5 L 310.957031 302.871094 L 311.566406 300.449219 L 192.820312 246.984375 L 192.46875 249.457031 "/></g><path style=" stroke:none;fill-rule:nonzero;fill:#b5a699;fill-opacity:1;" d="M 200.761719 53.789062 L 188.761719 141.652344 L 192.996094 141.300781 L 202.523438 52.730469 L 200.761719 53.789062 "/><path style=" stroke:none;fill-rule:nonzero;fill:#eae2d8;fill-opacity:1;" d="M 220.640625 118.714844 L 207.933594 121.773438 L 235.695312 220.578125 L 248.398438 213.285156 L 269.570312 194.9375 L 271.691406 181.527344 L 228.636719 120.597656 L 220.640625 118.714844 "/><path style=" stroke:none;fill-rule:nonzero;fill:#fbf8ed;fill-opacity:1;" d="M 208.953125 125.40625 L 225.308594 183.617188 C 231.777344 184.636719 238.671875 185.195312 245.832031 185.195312 C 254.929688 185.195312 263.597656 184.300781 271.503906 182.691406 L 271.691406 181.527344 L 228.945312 121.03125 C 221.734375 121.949219 215 123.445312 208.953125 125.40625 "/><path style=" stroke:none;fill-rule:nonzero;fill:#504450;fill-opacity:1;" d="M 165.390625 157.195312 L 151.527344 137.109375 L 148.238281 137.617188 L 161.878906 158.878906 L 165.390625 157.195312 "/><g clip-rule="nonzero" clip-path="url(#1b61a4996a)"><path style=" stroke:none;fill-rule:nonzero;fill:#d57b31;fill-opacity:1;" d="M 175.066406 129.132812 L 176.585938 127.183594 L 64.691406 59.367188 L 63.457031 61.132812 L 123.125 153.652344 L 175.066406 129.132812 "/></g><g clip-rule="nonzero" clip-path="url(#35480d0270)"><path style=" stroke:none;fill-rule:nonzero;fill:#eab641;fill-opacity:1;" d="M 176.828125 127.191406 L 120.132812 37.5 L 64.394531 59.542969 L 124.183594 150.300781 L 176.828125 127.191406 "/></g><path style=" stroke:none;fill-rule:nonzero;fill:#f5eb8f;fill-opacity:1;" d="M 120.574219 38.199219 L 93.914062 104.347656 L 124.1875 150.296875 L 129.246094 148.078125 L 152.914062 89.355469 L 120.574219 38.199219 "/><path style=" stroke:none;fill-rule:nonzero;fill:#b5a699;fill-opacity:1;" d="M 207.933594 121.773438 L 216.875 126.007812 L 260.394531 189.527344 L 259.925781 199.640625 L 235.695312 220.578125 L 225.816406 218.699219 L 192.175781 148.828125 L 207.933594 121.773438 "/><path style=" stroke:none;fill-rule:nonzero;fill:#867665;fill-opacity:1;" d="M 210.570312 138.035156 C 206.90625 135.75 203.496094 134.710938 200.371094 134.757812 L 192.175781 148.828125 L 225.816406 218.699219 L 235.695312 220.578125 L 244.410156 213.046875 C 252.949219 183.132812 227.527344 148.601562 210.570312 138.035156 "/><path style=" stroke:none;fill-rule:nonzero;fill:#d0c7b8;fill-opacity:1;" d="M 224.167969 192.585938 L 214.976562 221.519531 L 229.972656 213.398438 Z M 224.167969 192.585938 "/><path style=" stroke:none;fill-rule:nonzero;fill:#eae2d8;fill-opacity:1;" d="M 205.113281 137.066406 L 198.996094 135.65625 L 149.59375 152.238281 L 184.644531 221.992188 L 240.28125 191.410156 L 240.871094 185.292969 L 205.113281 137.066406 "/><path style=" stroke:none;fill-rule:nonzero;fill:#fbf8ed;fill-opacity:1;" d="M 151.519531 156.074219 L 159.007812 170.972656 C 167.296875 168.582031 176.351562 165.695312 185.78125 162.394531 C 196.566406 158.621094 206.625 154.722656 215.433594 150.984375 L 205.128906 137.089844 C 197.230469 139.398438 188.671875 142.140625 179.78125 145.253906 C 169.5625 148.832031 159.988281 152.515625 151.519531 156.074219 "/><path style=" stroke:none;fill-rule:nonzero;fill:#b5a699;fill-opacity:1;" d="M 170.765625 242.929688 L 216.875 219.875 L 240.28125 191.410156 L 190.175781 214.34375 L 176.410156 223.167969 L 170.765625 242.929688 "/><path style=" stroke:none;fill-rule:nonzero;fill:#928778;fill-opacity:1;" d="M 165.117188 242.222656 L 130.773438 189.527344 L 149.59375 152.238281 L 155.238281 153.53125 L 189.46875 207.640625 L 190.175781 214.34375 L 170.765625 242.929688 L 165.117188 242.222656 "/><path style=" stroke:none;fill-rule:nonzero;fill:#292328;fill-opacity:1;" d="M 164.011719 236.375 L 134.800781 191.558594 L 150.804688 159.84375 L 155.609375 160.945312 L 184.71875 206.960938 L 185.320312 212.664062 L 168.8125 236.972656 L 164.011719 236.375 "/><path style=" stroke:none;fill-rule:nonzero;fill:#d0c7b8;fill-opacity:1;" d="M 179.410156 237.105469 C 183.179688 239.101562 187.675781 239.167969 191.5 237.285156 L 227.246094 219.679688 C 229.875 218.386719 230.964844 215.21875 229.695312 212.582031 L 179.410156 237.105469 "/><path style=" stroke:none;fill-rule:nonzero;fill:#504450;fill-opacity:1;" d="M 207.402344 216.164062 L 222.957031 237.925781 L 226.269531 237.523438 L 210.992188 214.757812 L 207.402344 216.164062 "/><path style=" stroke:none;fill-rule:nonzero;fill:#867665;fill-opacity:1;" d="M 184.105469 233.0625 C 185.671875 232.097656 186.714844 231.042969 186.441406 230.707031 C 186.164062 230.371094 184.667969 230.882812 183.105469 231.847656 C 181.539062 232.8125 180.496094 233.871094 180.773438 234.207031 C 181.046875 234.542969 182.542969 234.027344 184.105469 233.0625 "/><path style=" stroke:none;fill-rule:nonzero;fill:#867665;fill-opacity:1;" d="M 229.925781 200.664062 C 231.488281 199.695312 232.535156 198.640625 232.257812 198.304688 C 231.980469 197.96875 230.488281 198.480469 228.921875 199.449219 C 227.355469 200.414062 226.3125 201.46875 226.589844 201.804688 C 226.863281 202.140625 228.359375 201.628906 229.925781 200.664062 "/><path style=" stroke:none;fill-rule:nonzero;fill:#867665;fill-opacity:1;" d="M 193.394531 218 C 194.957031 217.03125 196.003906 215.976562 195.726562 215.640625 C 195.449219 215.304688 193.957031 215.816406 192.390625 216.785156 C 190.824219 217.75 189.78125 218.804688 190.058594 219.140625 C 190.335938 219.476562 191.828125 218.964844 193.394531 218 "/><path style=" stroke:none;fill-rule:nonzero;fill:#292328;fill-opacity:1;" d="M 211.609375 218.214844 C 217.046875 214.859375 220.675781 211.191406 219.714844 210.027344 C 218.75 208.859375 213.558594 210.632812 208.121094 213.992188 C 202.679688 217.347656 199.050781 221.011719 200.015625 222.179688 C 200.976562 223.347656 206.167969 221.570312 211.609375 218.214844 "/><path style=" stroke:none;fill-rule:nonzero;fill:#504450;fill-opacity:1;" d="M 212.875 220.460938 C 215.589844 218.785156 215.730469 214.886719 215.25 214.304688 C 214.769531 213.722656 212.179688 214.609375 209.464844 216.28125 C 206.746094 217.957031 204.9375 219.789062 205.417969 220.371094 C 205.898438 220.953125 210.160156 222.136719 212.875 220.460938 "/><g clip-rule="nonzero" clip-path="url(#47d2279248)"><path style=" stroke:none;fill-rule:nonzero;fill:#eab641;fill-opacity:1;" d="M 192.878906 247.164062 L 252.164062 334.675781 L 311.566406 300.449219 L 246.28125 223.167969 L 192.878906 247.164062 "/></g><path style=" stroke:none;fill-rule:nonzero;fill:#f5eb8f;fill-opacity:1;" d="M 246.28125 223.167969 L 244.046875 224.171875 L 220.914062 288.550781 L 252.164062 334.675781 L 254.359375 333.410156 L 279.738281 262.773438 L 246.28125 223.167969 "/><path style=" stroke:none;fill-rule:nonzero;fill:#504450;fill-opacity:1;" d="M 170.46875 190.171875 C 169.648438 187.882812 167.542969 186.5625 163.019531 187.566406 C 158.496094 188.574219 155.496094 191.246094 156.320312 193.539062 C 157.144531 195.828125 161.476562 196.875 166.003906 195.871094 C 170.527344 194.867188 171.292969 192.464844 170.46875 190.171875 "/><path style=" stroke:none;fill-rule:nonzero;fill:#504450;fill-opacity:1;" d="M 157.824219 175.820312 C 157 173.53125 154.902344 172.214844 150.375 173.21875 C 145.851562 174.222656 142.851562 176.894531 143.675781 179.1875 C 144.5 181.480469 148.835938 182.523438 153.359375 181.519531 C 157.882812 180.515625 158.648438 178.117188 157.824219 175.820312 "/><path style=" stroke:none;fill-rule:nonzero;fill:#504450;fill-opacity:1;" d="M 175.882812 214.699219 C 175.058594 212.40625 173.011719 211.277344 168.65625 212.839844 C 164.300781 214.40625 161.4375 217.535156 162.261719 219.824219 C 163.085938 222.121094 167.28125 222.707031 171.640625 221.144531 C 175.996094 219.578125 176.707031 216.992188 175.882812 214.699219 "/><path style=" stroke:none;fill-rule:nonzero;fill:#d0c7b8;fill-opacity:1;" d="M 168.082031 204.027344 C 161.816406 182.144531 146.210938 165.023438 133.730469 167.527344 C 132.882812 167.699219 121.714844 170.589844 121.714844 170.589844 L 124.863281 174.667969 C 120.417969 183.078125 120.679688 197.574219 126.214844 212.390625 C 132.375 228.882812 143.320312 240.808594 153.023438 243.125 L 154.710938 247.339844 L 161.824219 242.222656 C 169.355469 236.460938 173.308594 222.25 168.082031 204.027344 "/><path style=" stroke:none;fill-rule:nonzero;fill:#b5a699;fill-opacity:1;" d="M 139.164062 216.839844 C 139.164062 225.121094 149.144531 231.835938 161.453125 231.835938 C 164.085938 231.835938 166.609375 231.527344 168.957031 230.964844 C 171.050781 223.941406 171.136719 214.671875 168.082031 204.027344 C 167.929688 203.488281 167.765625 202.957031 167.601562 202.425781 C 165.648438 202.050781 163.589844 201.84375 161.453125 201.84375 C 149.144531 201.84375 139.164062 208.558594 139.164062 216.839844 "/><path style=" stroke:none;fill-rule:nonzero;fill:#eae2d8;fill-opacity:1;" d="M 152.648438 207.070312 C 158.308594 207.070312 163.589844 205.9375 168.070312 203.980469 C 162.816406 185.675781 151.027344 170.722656 140.011719 167.808594 C 130.152344 171.132812 123.339844 178.222656 123.339844 186.433594 C 123.339844 197.832031 136.460938 207.070312 152.648438 207.070312 "/><path style=" stroke:none;fill-rule:nonzero;fill:#928778;fill-opacity:1;" d="M 160.113281 208.078125 C 153.402344 185.191406 136.910156 167.265625 123.824219 169.890625 C 110.742188 172.515625 107.671875 194.34375 116.261719 216.832031 C 124.171875 237.539062 139.269531 251.339844 150.535156 249.101562 C 161.804688 246.859375 166.289062 229.148438 160.113281 208.078125 "/><path style=" stroke:none;fill-rule:nonzero;fill:#363b5c;fill-opacity:1;" d="M 198.054688 247.871094 L 252.867188 330.441406 L 308.085938 299.183594 L 245.34375 227.636719 L 198.054688 247.871094 "/><path style=" stroke:none;fill-rule:nonzero;fill:#525983;fill-opacity:1;" d="M 201.472656 249.40625 L 254.21875 327.371094 L 305.171875 298.53125 L 245.105469 230.734375 L 201.472656 249.40625 "/><path style=" stroke:none;fill-rule:nonzero;fill:#98b7d8;fill-opacity:1;" d="M 248.261719 234.296875 C 242.441406 246.765625 233.277344 262.558594 219.804688 276.503906 L 253.042969 325.636719 C 257.078125 306.183594 271.367188 288.855469 285.246094 276.042969 L 248.261719 234.296875 "/><path style=" stroke:none;fill-rule:nonzero;fill:#363b5c;fill-opacity:1;" d="M 171.652344 125.367188 L 119.246094 42.140625 L 69.820312 60.675781 L 124.941406 146.96875 L 171.652344 125.367188 "/><path style=" stroke:none;fill-rule:nonzero;fill:#eae2d8;fill-opacity:1;" d="M 184.789062 41.421875 L 200.0625 61.527344 L 201.84375 61.273438 L 203.878906 53.636719 L 194.207031 41.929688 L 184.789062 41.421875 "/><path style=" stroke:none;fill-rule:nonzero;fill:#3c323b;fill-opacity:1;" d="M 158.441406 208.183594 C 152.222656 186.960938 136.929688 170.34375 124.796875 172.777344 C 112.671875 175.210938 109.824219 195.449219 117.789062 216.296875 C 125.121094 235.496094 139.117188 248.292969 149.5625 246.214844 C 160.011719 244.136719 164.167969 227.714844 158.441406 208.183594 "/><path style=" stroke:none;fill-rule:nonzero;fill:#292328;fill-opacity:1;" d="M 156.863281 209.839844 C 151.21875 190.570312 137.738281 175.363281 127.210938 177.433594 C 116.691406 179.503906 114.4375 197.785156 121.59375 216.738281 C 128.183594 234.191406 140.496094 245.921875 149.554688 244.15625 C 158.621094 242.390625 162.054688 227.578125 156.863281 209.839844 "/><path style=" stroke:none;fill-rule:nonzero;fill:#292328;fill-opacity:1;" d="M 158.441406 208.183594 C 152.222656 186.960938 136.929688 170.34375 124.796875 172.777344 C 118.710938 173.996094 114.960938 179.707031 113.746094 187.730469 C 125.644531 186.691406 140.0625 202.863281 146.058594 223.316406 C 148.585938 231.9375 149.1875 239.949219 148.171875 246.390625 C 148.640625 246.355469 149.105469 246.304688 149.5625 246.214844 C 160.011719 244.136719 164.167969 227.714844 158.441406 208.183594 "/><path style=" stroke:none;fill-rule:nonzero;fill:#504450;fill-opacity:1;" d="M 156.03125 208.417969 C 150.820312 190.578125 136.988281 176.058594 128.144531 177.714844 C 119.308594 179.367188 117.828125 196.121094 124.3125 213.707031 C 130.28125 229.898438 140.957031 240.96875 148.566406 239.558594 C 156.183594 238.144531 160.832031 224.84375 156.03125 208.417969 "/><path style=" stroke:none;fill-rule:nonzero;fill:#b5a699;fill-opacity:1;" d="M 151.835938 218.640625 C 146.625 200.800781 132.792969 186.28125 123.953125 187.9375 C 122.632812 188.183594 121.484375 188.773438 120.492188 189.644531 C 119.808594 196.25 121.054688 204.875 124.3125 213.707031 C 130.28125 229.898438 140.957031 240.96875 148.566406 239.558594 C 150.386719 239.21875 152.035156 238.195312 153.429688 236.621094 C 154.183594 231.546875 153.800781 225.355469 151.835938 218.640625 "/><path style=" stroke:none;fill-rule:nonzero;fill:#d0c7b8;fill-opacity:1;" d="M 122.347656 199.472656 C 122.988281 203.476562 124.097656 207.742188 125.6875 212.058594 C 130.695312 225.636719 139.011719 235.609375 146.054688 237.640625 C 145.585938 233.59375 144.609375 229.316406 143.09375 224.996094 C 138.480469 211.859375 130.195312 202.105469 122.347656 199.472656 "/><path style=" stroke:none;fill-rule:nonzero;fill:#76685c;fill-opacity:1;" d="M 212.640625 147.21875 L 204.253906 150.308594 L 215.816406 169.714844 L 193.875 178.292969 L 173.214844 147.609375 L 173.136719 147.492188 L 168.476562 145.898438 L 167.191406 146.332031 L 172.609375 148.1875 L 193.558594 179.300781 L 217.023438 170.128906 L 205.472656 150.738281 L 213.152344 147.910156 L 212.640625 147.21875 "/><path style=" stroke:none;fill-rule:nonzero;fill:#d0c7b8;fill-opacity:1;" d="M 182.46875 171.472656 L 177.351562 174.234375 L 194.761719 201.054688 L 234.511719 184.507812 L 233.550781 180.792969 L 182.46875 171.472656 "/><path style=" stroke:none;fill-rule:nonzero;fill:#fbf8ed;fill-opacity:1;" d="M 217.363281 159.476562 L 182.367188 171.261719 L 197.675781 195.917969 L 233.703125 180.628906 L 217.363281 159.476562 "/><path style=" stroke:none;fill-rule:nonzero;fill:#525983;fill-opacity:1;" d="M 169.367188 124.519531 L 118.503906 44.222656 L 72.007812 61.65625 L 125.820312 144.539062 L 169.367188 124.519531 "/><path style=" stroke:none;fill-rule:nonzero;fill:#98b7d8;fill-opacity:1;" d="M 92.714844 93.554688 L 113.523438 125.597656 C 122.390625 109.246094 134.839844 95.859375 145.25 86.449219 L 126.492188 56.832031 C 119.660156 65.332031 109.097656 77.167969 92.714844 93.554688 "/><path style=" stroke:none;fill-rule:nonzero;fill:#363b5c;fill-opacity:1;" d="M 264.863281 322.773438 L 207.761719 245.796875 L 212.003906 242.648438 L 269.105469 319.625 L 264.863281 322.773438 "/><path style=" stroke:none;fill-rule:nonzero;fill:#363b5c;fill-opacity:1;" d="M 278.101562 315.390625 L 220.179688 240.679688 L 224.355469 237.441406 L 282.277344 312.152344 L 278.101562 315.390625 "/><path style=" stroke:none;fill-rule:nonzero;fill:#363b5c;fill-opacity:1;" d="M 292.21875 307.03125 L 231.199219 236.035156 L 235.210938 232.589844 L 296.234375 303.585938 L 292.21875 307.03125 "/><path style=" stroke:none;fill-rule:nonzero;fill:#363b5c;fill-opacity:1;" d="M 243.230469 313.433594 L 240.796875 308.742188 L 292.390625 281.914062 L 294.828125 286.601562 L 243.230469 313.433594 "/><path style=" stroke:none;fill-rule:nonzero;fill:#363b5c;fill-opacity:1;" d="M 231.589844 297.378906 L 229.320312 292.605469 L 280.503906 268.25 L 282.773438 273.023438 L 231.589844 297.378906 "/><path style=" stroke:none;fill-rule:nonzero;fill:#363b5c;fill-opacity:1;" d="M 219.570312 280.269531 L 217.402344 275.449219 L 266.933594 253.160156 L 269.097656 257.984375 L 219.570312 280.269531 "/><path style=" stroke:none;fill-rule:nonzero;fill:#363b5c;fill-opacity:1;" d="M 210.253906 265.21875 L 208.140625 260.371094 L 256.023438 239.527344 L 258.132812 244.375 L 210.253906 265.21875 "/><path style=" stroke:none;fill-rule:nonzero;fill:#363b5c;fill-opacity:1;" d="M 156.78125 131.867188 L 106.628906 48.488281 L 111.164062 45.761719 L 161.3125 129.140625 L 156.78125 131.867188 "/><path style=" stroke:none;fill-rule:nonzero;fill:#363b5c;fill-opacity:1;" d="M 146.492188 136.042969 L 93.863281 52.664062 L 98.335938 49.84375 L 150.960938 133.222656 L 146.492188 136.042969 "/><path style=" stroke:none;fill-rule:nonzero;fill:#363b5c;fill-opacity:1;" d="M 134.519531 142.230469 L 81.480469 58.027344 L 85.953125 55.207031 L 138.992188 139.414062 L 134.519531 142.230469 "/><path style=" stroke:none;fill-rule:nonzero;fill:#363b5c;fill-opacity:1;" d="M 85.171875 84.429688 L 83.085938 79.574219 L 129.726562 59.554688 L 131.8125 64.414062 L 85.171875 84.429688 "/><path style=" stroke:none;fill-rule:nonzero;fill:#363b5c;fill-opacity:1;" d="M 95.6875 101.152344 L 93.621094 96.289062 L 140.265625 76.476562 L 142.328125 81.339844 L 95.6875 101.152344 "/><path style=" stroke:none;fill-rule:nonzero;fill:#363b5c;fill-opacity:1;" d="M 107.097656 118.257812 L 104.910156 113.445312 L 150.726562 92.601562 L 152.914062 97.414062 L 107.097656 118.257812 "/><path style=" stroke:none;fill-rule:nonzero;fill:#363b5c;fill-opacity:1;" d="M 117.210938 133.941406 L 115.023438 129.132812 L 160.425781 108.492188 L 162.617188 113.304688 L 117.210938 133.941406 "/><path style=" stroke:none;fill-rule:nonzero;fill:#76685c;fill-opacity:1;" d="M 213.480469 165.683594 C 213.109375 165.683594 212.742188 165.746094 212.390625 165.863281 L 194.019531 172.050781 C 193.078125 172.367188 192.347656 173.085938 192.011719 174.019531 C 191.675781 174.953125 191.785156 175.976562 192.308594 176.816406 L 199.390625 188.226562 C 200.097656 189.363281 201.589844 189.84375 202.828125 189.3125 L 222.957031 180.773438 C 223.644531 180.480469 224.167969 179.871094 224.359375 179.148438 C 224.546875 178.425781 224.386719 177.640625 223.929688 177.050781 L 216.183594 167.011719 C 215.539062 166.183594 214.527344 165.683594 213.480469 165.683594 Z M 201.746094 191.183594 C 200.207031 191.183594 198.800781 190.40625 197.988281 189.097656 L 190.90625 177.6875 C 190.113281 176.414062 189.949219 174.875 190.457031 173.460938 C 190.964844 172.050781 192.074219 170.964844 193.496094 170.488281 L 211.863281 164.300781 C 213.863281 163.625 216.199219 164.335938 217.488281 166.003906 L 225.238281 176.039062 C 226.003906 177.03125 226.273438 178.351562 225.957031 179.566406 C 225.636719 180.78125 224.757812 181.800781 223.601562 182.292969 L 203.472656 190.835938 C 202.921875 191.066406 202.339844 191.183594 201.746094 191.183594 "/><path style=" stroke:none;fill-rule:nonzero;fill:#eae2d8;fill-opacity:1;" d="M 259.9375 143.027344 L 252.351562 144.945312 C 252.824219 150.351562 258.851562 156.214844 267.394531 159.023438 C 267.476562 159.050781 267.558594 159.070312 267.640625 159.097656 L 271.761719 157.84375 L 259.9375 143.027344 "/><path style=" stroke:none;fill-rule:nonzero;fill:#eae2d8;fill-opacity:1;" d="M 233.910156 120.507812 C 234.328125 124.332031 237.8125 128.984375 243.171875 132.3125 C 244.953125 133.417969 246.773438 134.269531 248.542969 134.871094 L 253.515625 133.363281 L 241.691406 118.539062 L 233.910156 120.507812 "/><path style=" stroke:none;fill-rule:nonzero;fill:#eae2d8;fill-opacity:1;" d="M 266.445312 164.136719 L 265.660156 164.335938 C 265.0625 164.964844 264.652344 165.695312 264.492188 166.511719 C 263.953125 169.273438 266.339844 172.167969 270.125 173.785156 L 273.355469 172.804688 L 266.445312 164.136719 "/><g style="fill:#000000;fill-opacity:1;"><g transform="translate(169.58059, 200.838688)"><path style="stroke:none" d="M 0.734375 -1.875 C 0.640625 -1.875 0.5625 -1.84375 0.5 -1.78125 C 0.445312 -1.726562 0.421875 -1.65625 0.421875 -1.5625 C 0.421875 -1.488281 0.445312 -1.421875 0.5 -1.359375 C 0.550781 -1.304688 0.640625 -1.265625 0.765625 -1.234375 C 0.929688 -1.179688 1.054688 -1.117188 1.140625 -1.046875 C 1.234375 -0.984375 1.296875 -0.914062 1.328125 -0.84375 C 1.359375 -0.769531 1.375 -0.675781 1.375 -0.5625 C 1.375 -0.375 1.3125 -0.222656 1.1875 -0.109375 C 1.070312 -0.00390625 0.914062 0.046875 0.71875 0.046875 C 0.601562 0.046875 0.492188 0.0195312 0.390625 -0.03125 C 0.296875 -0.0820312 0.222656 -0.15625 0.171875 -0.25 C 0.117188 -0.351562 0.09375 -0.46875 0.09375 -0.59375 L 0.09375 -0.609375 L 0.359375 -0.609375 C 0.359375 -0.472656 0.390625 -0.367188 0.453125 -0.296875 C 0.515625 -0.222656 0.601562 -0.1875 0.71875 -0.1875 C 0.84375 -0.1875 0.9375 -0.21875 1 -0.28125 C 1.070312 -0.34375 1.109375 -0.4375 1.109375 -0.5625 C 1.109375 -0.65625 1.078125 -0.734375 1.015625 -0.796875 C 0.953125 -0.859375 0.859375 -0.910156 0.734375 -0.953125 C 0.597656 -1.003906 0.488281 -1.050781 0.40625 -1.09375 C 0.332031 -1.132812 0.269531 -1.191406 0.21875 -1.265625 C 0.175781 -1.335938 0.15625 -1.429688 0.15625 -1.546875 C 0.15625 -1.703125 0.207031 -1.832031 0.3125 -1.9375 C 0.425781 -2.050781 0.566406 -2.109375 0.734375 -2.109375 C 0.835938 -2.109375 0.929688 -2.082031 1.015625 -2.03125 C 1.109375 -1.988281 1.175781 -1.925781 1.21875 -1.84375 C 1.269531 -1.757812 1.296875 -1.660156 1.296875 -1.546875 L 1.03125 -1.546875 C 1.03125 -1.648438 1 -1.726562 0.9375 -1.78125 C 0.882812 -1.84375 0.816406 -1.875 0.734375 -1.875 Z M 0.734375 -1.875 "/></g></g><g style="fill:#000000;fill-opacity:1;"><g transform="translate(171.039526, 200.838688)"><path style="stroke:none" d="M 2.0625 -0.359375 C 1.976562 -0.234375 1.863281 -0.132812 1.71875 -0.0625 C 1.582031 0.0078125 1.429688 0.046875 1.265625 0.046875 C 1.054688 0.046875 0.867188 0 0.703125 -0.09375 C 0.535156 -0.1875 0.398438 -0.316406 0.296875 -0.484375 C 0.203125 -0.648438 0.15625 -0.832031 0.15625 -1.03125 C 0.15625 -1.238281 0.203125 -1.421875 0.296875 -1.578125 C 0.398438 -1.742188 0.535156 -1.875 0.703125 -1.96875 C 0.878906 -2.0625 1.066406 -2.109375 1.265625 -2.109375 C 1.429688 -2.109375 1.582031 -2.070312 1.71875 -2 C 1.863281 -1.925781 1.976562 -1.828125 2.0625 -1.703125 L 2.078125 -1.703125 L 2.078125 -2.0625 L 2.34375 -2.0625 L 2.34375 0 L 2.078125 0 L 2.078125 -0.359375 Z M 2.09375 -1.03125 C 2.09375 -1.175781 2.054688 -1.3125 1.984375 -1.4375 C 1.910156 -1.570312 1.804688 -1.675781 1.671875 -1.75 C 1.546875 -1.832031 1.410156 -1.875 1.265625 -1.875 C 1.109375 -1.875 0.960938 -1.835938 0.828125 -1.765625 C 0.703125 -1.691406 0.601562 -1.585938 0.53125 -1.453125 C 0.457031 -1.328125 0.421875 -1.1875 0.421875 -1.03125 C 0.421875 -0.875 0.457031 -0.726562 0.53125 -0.59375 C 0.601562 -0.46875 0.703125 -0.367188 0.828125 -0.296875 C 0.960938 -0.222656 1.109375 -0.1875 1.265625 -0.1875 C 1.410156 -0.1875 1.546875 -0.222656 1.671875 -0.296875 C 1.804688 -0.378906 1.910156 -0.484375 1.984375 -0.609375 C 2.054688 -0.734375 2.09375 -0.875 2.09375 -1.03125 Z M 2.09375 -1.03125 "/></g></g><g style="fill:#000000;fill-opacity:1;"><g transform="translate(173.607704, 200.838688)"><path style="stroke:none" d="M 0.046875 -1.828125 L 0.046875 -2.0625 L 0.484375 -2.0625 L 0.484375 -2.78125 L 0.75 -2.78125 L 0.75 -2.0625 L 1.25 -2.0625 L 1.25 -1.828125 L 0.75 -1.828125 L 0.75 0 L 0.484375 0 L 0.484375 -1.828125 Z M 0.046875 -1.828125 "/></g></g></g></svg>