<svg xmlns="http://www.w3.org/2000/svg" xmlns:xlink="http://www.w3.org/1999/xlink" width="500" zoomAndPan="magnify" viewBox="0 0 375 374.999991" height="500" preserveAspectRatio="xMidYMid meet" version="1.2"><defs><clipPath id="2a889e5c96"><path d="M 281 98 L 314.960938 98 L 314.960938 177 L 281 177 Z M 281 98 "/></clipPath><clipPath id="75b6ad17ac"><path d="M 76 21.324219 L 299 21.324219 L 299 112 L 76 112 Z M 76 21.324219 "/></clipPath><clipPath id="ddb62ec982"><path d="M 65 237 L 310 237 L 310 353.574219 L 65 353.574219 Z M 65 237 "/></clipPath><clipPath id="780432e402"><path d="M 109 303 L 122 303 L 122 353.574219 L 109 353.574219 Z M 109 303 "/></clipPath><clipPath id="d616da69e7"><path d="M 259 303 L 271 303 L 271 353.574219 L 259 353.574219 Z M 259 303 "/></clipPath></defs><g id="85ecdf6cf7"><path style=" stroke:none;fill-rule:nonzero;fill:#ffffff;fill-opacity:1;" d="M 76.710938 176.375 C 67.550781 176.375 60.097656 168.921875 60.097656 159.761719 L 60.097656 115.464844 C 60.097656 106.304688 67.550781 98.851562 76.710938 98.851562 C 85.871094 98.851562 93.324219 106.304688 93.324219 115.464844 L 93.324219 159.761719 C 93.324219 168.921875 85.871094 176.375 76.710938 176.375 Z M 76.710938 109.925781 C 73.652344 109.925781 71.171875 112.40625 71.171875 115.464844 L 71.171875 159.761719 C 71.171875 162.820312 73.652344 165.300781 76.710938 165.300781 C 79.765625 165.300781 82.246094 162.820312 82.246094 159.761719 L 82.246094 115.464844 C 82.246094 112.40625 79.765625 109.925781 76.710938 109.925781 Z M 76.710938 109.925781 "/><g clip-rule="nonzero" clip-path="url(#2a889e5c96)"><path style=" stroke:none;fill-rule:nonzero;fill:#ffffff;fill-opacity:1;" d="M 298.210938 176.375 C 289.050781 176.375 281.597656 168.921875 281.597656 159.761719 L 281.597656 115.464844 C 281.597656 106.304688 289.050781 98.851562 298.210938 98.851562 C 307.371094 98.851562 314.824219 106.304688 314.824219 115.464844 L 314.824219 159.761719 C 314.824219 168.921875 307.371094 176.375 298.210938 176.375 Z M 298.210938 109.925781 C 295.152344 109.925781 292.671875 112.40625 292.671875 115.464844 L 292.671875 159.761719 C 292.671875 162.820312 295.152344 165.300781 298.210938 165.300781 C 301.265625 165.300781 303.746094 162.820312 303.746094 159.761719 L 303.746094 115.464844 C 303.746094 112.40625 301.265625 109.925781 298.210938 109.925781 Z M 298.210938 109.925781 "/></g><g clip-rule="nonzero" clip-path="url(#75b6ad17ac)"><path style=" stroke:none;fill-rule:nonzero;fill:#ffffff;fill-opacity:1;" d="M 293.226562 111.171875 C 290.851562 111.171875 288.652344 109.632812 287.925781 107.234375 C 274.609375 63.179688 233.300781 32.402344 187.460938 32.402344 C 141.621094 32.402344 100.3125 63.179688 86.992188 107.234375 C 86.105469 110.164062 83.023438 111.824219 80.089844 110.933594 C 77.160156 110.054688 75.503906 106.957031 76.390625 104.035156 C 91.109375 55.335938 136.78125 21.324219 187.460938 21.324219 C 238.140625 21.324219 283.8125 55.335938 298.53125 104.035156 C 299.417969 106.957031 297.761719 110.054688 294.832031 110.933594 C 294.296875 111.09375 293.757812 111.171875 293.226562 111.171875 Z M 293.226562 111.171875 "/></g><path style=" stroke:none;fill-rule:nonzero;fill:#ffffff;fill-opacity:1;" d="M 264.984375 209.601562 C 261.929688 209.601562 259.449219 207.125 259.449219 204.0625 C 259.449219 201 261.929688 198.527344 264.984375 198.527344 C 280.253906 198.527344 292.671875 186.105469 292.671875 170.839844 C 292.671875 167.777344 295.152344 165.300781 298.210938 165.300781 C 301.265625 165.300781 303.746094 167.777344 303.746094 170.839844 C 303.746094 192.207031 286.359375 209.601562 264.984375 209.601562 Z M 264.984375 209.601562 "/><path style=" stroke:none;fill-rule:nonzero;fill:#ffffff;fill-opacity:1;" d="M 253.910156 226.210938 L 220.683594 226.210938 C 211.527344 226.210938 204.074219 218.757812 204.074219 209.601562 L 204.074219 198.527344 C 204.074219 189.367188 211.527344 181.914062 220.683594 181.914062 L 253.910156 181.914062 C 263.070312 181.914062 270.523438 189.367188 270.523438 198.527344 L 270.523438 209.601562 C 270.523438 218.757812 263.070312 226.210938 253.910156 226.210938 Z M 220.683594 192.988281 C 217.628906 192.988281 215.148438 195.46875 215.148438 198.527344 L 215.148438 209.601562 C 215.148438 212.65625 217.628906 215.136719 220.683594 215.136719 L 253.910156 215.136719 C 256.96875 215.136719 259.449219 212.65625 259.449219 209.601562 L 259.449219 198.527344 C 259.449219 195.46875 256.96875 192.988281 253.910156 192.988281 Z M 220.683594 192.988281 "/><path style=" stroke:none;fill-rule:nonzero;fill:#ffffff;fill-opacity:1;" d="M 187.460938 226.210938 C 138.601562 226.210938 98.859375 186.464844 98.859375 137.613281 C 98.859375 88.761719 138.601562 49.011719 187.460938 49.011719 C 236.316406 49.011719 276.058594 88.761719 276.058594 137.613281 C 276.058594 156.890625 269.890625 175.273438 258.222656 190.785156 C 257.175781 192.175781 255.539062 192.988281 253.792969 192.988281 L 220.683594 192.988281 C 217.628906 192.988281 215.148438 195.46875 215.148438 198.527344 L 215.148438 209.601562 C 215.148438 211.25 215.917969 212.472656 216.558594 213.207031 C 217.792969 214.617188 218.230469 216.550781 217.726562 218.355469 C 217.222656 220.15625 215.839844 221.578125 214.058594 222.144531 C 205.445312 224.84375 196.496094 226.210938 187.460938 226.210938 Z M 187.460938 60.089844 C 144.710938 60.089844 109.933594 94.863281 109.933594 137.613281 C 109.933594 180.363281 144.710938 215.136719 187.460938 215.136719 C 193.207031 215.136719 198.910156 214.507812 204.492188 213.25 C 204.214844 212.058594 204.074219 210.835938 204.074219 209.601562 L 204.074219 198.527344 C 204.074219 189.367188 211.527344 181.914062 220.683594 181.914062 L 250.976562 181.914062 C 260.152344 168.820312 264.984375 153.5625 264.984375 137.613281 C 264.984375 94.863281 230.210938 60.089844 187.460938 60.089844 Z M 187.460938 60.089844 "/><g clip-rule="nonzero" clip-path="url(#ddb62ec982)"><path style=" stroke:none;fill-rule:nonzero;fill:#ffffff;fill-opacity:1;" d="M 303.746094 353.574219 L 71.171875 353.574219 C 68.117188 353.574219 65.636719 351.101562 65.636719 348.039062 L 65.636719 301.582031 C 65.636719 266.132812 94.480469 237.289062 129.929688 237.289062 L 244.984375 237.289062 C 280.441406 237.289062 309.285156 266.132812 309.285156 301.582031 L 309.285156 348.039062 C 309.285156 351.101562 306.804688 353.574219 303.746094 353.574219 Z M 76.710938 342.5 L 298.210938 342.5 L 298.210938 301.582031 C 298.210938 272.234375 274.332031 248.363281 244.988281 248.363281 L 129.929688 248.363281 C 100.585938 248.363281 76.710938 272.242188 76.710938 301.582031 Z M 76.710938 342.5 "/></g><g clip-rule="nonzero" clip-path="url(#780432e402)"><path style=" stroke:none;fill-rule:nonzero;fill:#ffffff;fill-opacity:1;" d="M 115.472656 353.574219 C 112.414062 353.574219 109.933594 351.101562 109.933594 348.039062 L 109.933594 309.273438 C 109.933594 306.214844 112.414062 303.738281 115.472656 303.738281 C 118.53125 303.738281 121.011719 306.214844 121.011719 309.273438 L 121.011719 348.039062 C 121.011719 351.101562 118.53125 353.574219 115.472656 353.574219 Z M 115.472656 353.574219 "/></g><g clip-rule="nonzero" clip-path="url(#d616da69e7)"><path style=" stroke:none;fill-rule:nonzero;fill:#ffffff;fill-opacity:1;" d="M 264.984375 353.574219 C 261.929688 353.574219 259.449219 351.101562 259.449219 348.039062 L 259.449219 309.273438 C 259.449219 306.214844 261.929688 303.738281 264.984375 303.738281 C 268.042969 303.738281 270.523438 306.214844 270.523438 309.273438 L 270.523438 348.039062 C 270.523438 351.101562 268.042969 353.574219 264.984375 353.574219 Z M 264.984375 353.574219 "/></g><g style="fill:#ffffff;fill-opacity:1;"><g transform="translate(185.671824, 178.958462)"><path style="stroke:none" d="M 0.1875 -0.5 C 0.164062 -0.5 0.144531 -0.488281 0.125 -0.46875 C 0.113281 -0.457031 0.109375 -0.441406 0.109375 -0.421875 C 0.109375 -0.398438 0.113281 -0.378906 0.125 -0.359375 C 0.144531 -0.347656 0.171875 -0.335938 0.203125 -0.328125 C 0.242188 -0.316406 0.273438 -0.300781 0.296875 -0.28125 C 0.328125 -0.257812 0.34375 -0.238281 0.34375 -0.21875 C 0.351562 -0.195312 0.359375 -0.175781 0.359375 -0.15625 C 0.359375 -0.101562 0.34375 -0.0625 0.3125 -0.03125 C 0.28125 0 0.238281 0.015625 0.1875 0.015625 C 0.15625 0.015625 0.125 0.0078125 0.09375 0 C 0.0703125 -0.0195312 0.0546875 -0.0390625 0.046875 -0.0625 C 0.0351562 -0.09375 0.03125 -0.125 0.03125 -0.15625 L 0.09375 -0.15625 C 0.09375 -0.125 0.0976562 -0.0976562 0.109375 -0.078125 C 0.128906 -0.0546875 0.15625 -0.046875 0.1875 -0.046875 C 0.21875 -0.046875 0.242188 -0.0507812 0.265625 -0.0625 C 0.285156 -0.0820312 0.296875 -0.109375 0.296875 -0.140625 C 0.296875 -0.171875 0.285156 -0.191406 0.265625 -0.203125 C 0.253906 -0.222656 0.234375 -0.238281 0.203125 -0.25 C 0.160156 -0.269531 0.128906 -0.285156 0.109375 -0.296875 C 0.0859375 -0.304688 0.0703125 -0.316406 0.0625 -0.328125 C 0.0507812 -0.347656 0.046875 -0.375 0.046875 -0.40625 C 0.046875 -0.445312 0.0546875 -0.484375 0.078125 -0.515625 C 0.109375 -0.546875 0.148438 -0.5625 0.203125 -0.5625 C 0.222656 -0.5625 0.242188 -0.550781 0.265625 -0.53125 C 0.296875 -0.519531 0.316406 -0.503906 0.328125 -0.484375 C 0.335938 -0.460938 0.34375 -0.4375 0.34375 -0.40625 L 0.28125 -0.40625 C 0.269531 -0.4375 0.257812 -0.457031 0.25 -0.46875 C 0.238281 -0.488281 0.21875 -0.5 0.1875 -0.5 Z M 0.1875 -0.5 "/></g></g><g style="fill:#ffffff;fill-opacity:1;"><g transform="translate(186.059905, 178.958462)"><path style="stroke:none" d="M 0.46875 -0.078125 C 0.457031 -0.046875 0.4375 -0.0195312 0.40625 0 C 0.375 0.0078125 0.335938 0.015625 0.296875 0.015625 C 0.253906 0.015625 0.210938 0.0078125 0.171875 0 C 0.140625 -0.0195312 0.113281 -0.046875 0.09375 -0.078125 C 0.0703125 -0.117188 0.0625 -0.171875 0.0625 -0.234375 L 0.0625 -0.546875 L 0.125 -0.546875 L 0.125 -0.234375 C 0.125 -0.109375 0.179688 -0.046875 0.296875 -0.046875 C 0.328125 -0.046875 0.351562 -0.0507812 0.375 -0.0625 C 0.40625 -0.0820312 0.425781 -0.109375 0.4375 -0.140625 C 0.457031 -0.171875 0.46875 -0.207031 0.46875 -0.25 L 0.46875 -0.546875 L 0.546875 -0.546875 L 0.546875 0 L 0.46875 0 Z M 0.46875 -0.078125 "/></g></g><g style="fill:#ffffff;fill-opacity:1;"><g transform="translate(186.668033, 178.958462)"><path style="stroke:none" d="M 0.140625 -0.546875 L 0.140625 -0.453125 C 0.160156 -0.484375 0.1875 -0.507812 0.21875 -0.53125 C 0.257812 -0.550781 0.300781 -0.5625 0.34375 -0.5625 C 0.40625 -0.5625 0.457031 -0.546875 0.5 -0.515625 C 0.539062 -0.492188 0.570312 -0.460938 0.59375 -0.421875 C 0.625 -0.378906 0.640625 -0.332031 0.640625 -0.28125 C 0.640625 -0.21875 0.625 -0.164062 0.59375 -0.125 C 0.570312 -0.0820312 0.539062 -0.046875 0.5 -0.015625 C 0.457031 0.00390625 0.40625 0.015625 0.34375 0.015625 C 0.300781 0.015625 0.257812 0.00390625 0.21875 -0.015625 C 0.1875 -0.0351562 0.160156 -0.0625 0.140625 -0.09375 L 0.140625 0.1875 L 0.0625 0.1875 L 0.0625 -0.546875 Z M 0.34375 -0.5 C 0.3125 -0.5 0.273438 -0.488281 0.234375 -0.46875 C 0.203125 -0.445312 0.175781 -0.414062 0.15625 -0.375 C 0.132812 -0.34375 0.125 -0.304688 0.125 -0.265625 C 0.125 -0.234375 0.132812 -0.195312 0.15625 -0.15625 C 0.175781 -0.125 0.203125 -0.0976562 0.234375 -0.078125 C 0.265625 -0.0546875 0.300781 -0.046875 0.34375 -0.046875 C 0.382812 -0.046875 0.421875 -0.0546875 0.453125 -0.078125 C 0.492188 -0.0976562 0.523438 -0.125 0.546875 -0.15625 C 0.566406 -0.1875 0.578125 -0.222656 0.578125 -0.265625 C 0.578125 -0.304688 0.566406 -0.34375 0.546875 -0.375 C 0.523438 -0.414062 0.492188 -0.445312 0.453125 -0.46875 C 0.421875 -0.488281 0.382812 -0.5 0.34375 -0.5 Z M 0.34375 -0.5 "/></g></g><g style="fill:#ffffff;fill-opacity:1;"><g transform="translate(187.350175, 178.958462)"><path style="stroke:none" d="M 0.140625 -0.546875 L 0.140625 -0.453125 C 0.160156 -0.484375 0.1875 -0.507812 0.21875 -0.53125 C 0.257812 -0.550781 0.300781 -0.5625 0.34375 -0.5625 C 0.40625 -0.5625 0.457031 -0.546875 0.5 -0.515625 C 0.539062 -0.492188 0.570312 -0.460938 0.59375 -0.421875 C 0.625 -0.378906 0.640625 -0.332031 0.640625 -0.28125 C 0.640625 -0.21875 0.625 -0.164062 0.59375 -0.125 C 0.570312 -0.0820312 0.539062 -0.046875 0.5 -0.015625 C 0.457031 0.00390625 0.40625 0.015625 0.34375 0.015625 C 0.300781 0.015625 0.257812 0.00390625 0.21875 -0.015625 C 0.1875 -0.0351562 0.160156 -0.0625 0.140625 -0.09375 L 0.140625 0.1875 L 0.0625 0.1875 L 0.0625 -0.546875 Z M 0.34375 -0.5 C 0.3125 -0.5 0.273438 -0.488281 0.234375 -0.46875 C 0.203125 -0.445312 0.175781 -0.414062 0.15625 -0.375 C 0.132812 -0.34375 0.125 -0.304688 0.125 -0.265625 C 0.125 -0.234375 0.132812 -0.195312 0.15625 -0.15625 C 0.175781 -0.125 0.203125 -0.0976562 0.234375 -0.078125 C 0.265625 -0.0546875 0.300781 -0.046875 0.34375 -0.046875 C 0.382812 -0.046875 0.421875 -0.0546875 0.453125 -0.078125 C 0.492188 -0.0976562 0.523438 -0.125 0.546875 -0.15625 C 0.566406 -0.1875 0.578125 -0.222656 0.578125 -0.265625 C 0.578125 -0.304688 0.566406 -0.34375 0.546875 -0.375 C 0.523438 -0.414062 0.492188 -0.445312 0.453125 -0.46875 C 0.421875 -0.488281 0.382812 -0.5 0.34375 -0.5 Z M 0.34375 -0.5 "/></g></g><g style="fill:#ffffff;fill-opacity:1;"><g transform="translate(188.032318, 178.958462)"><path style="stroke:none" d="M 0.046875 -0.265625 C 0.046875 -0.316406 0.0546875 -0.363281 0.078125 -0.40625 C 0.109375 -0.457031 0.144531 -0.492188 0.1875 -0.515625 C 0.226562 -0.546875 0.273438 -0.5625 0.328125 -0.5625 C 0.378906 -0.5625 0.425781 -0.546875 0.46875 -0.515625 C 0.507812 -0.492188 0.539062 -0.457031 0.5625 -0.40625 C 0.59375 -0.363281 0.609375 -0.320312 0.609375 -0.28125 C 0.609375 -0.226562 0.59375 -0.175781 0.5625 -0.125 C 0.539062 -0.0820312 0.507812 -0.046875 0.46875 -0.015625 C 0.425781 0.00390625 0.378906 0.015625 0.328125 0.015625 C 0.273438 0.015625 0.226562 0.00390625 0.1875 -0.015625 C 0.144531 -0.046875 0.109375 -0.0820312 0.078125 -0.125 C 0.0546875 -0.164062 0.046875 -0.210938 0.046875 -0.265625 Z M 0.546875 -0.28125 C 0.546875 -0.320312 0.535156 -0.359375 0.515625 -0.390625 C 0.492188 -0.421875 0.46875 -0.445312 0.4375 -0.46875 C 0.40625 -0.488281 0.367188 -0.5 0.328125 -0.5 C 0.285156 -0.5 0.25 -0.488281 0.21875 -0.46875 C 0.1875 -0.445312 0.160156 -0.414062 0.140625 -0.375 C 0.117188 -0.34375 0.109375 -0.304688 0.109375 -0.265625 C 0.109375 -0.234375 0.117188 -0.195312 0.140625 -0.15625 C 0.160156 -0.125 0.1875 -0.0976562 0.21875 -0.078125 C 0.25 -0.0546875 0.285156 -0.046875 0.328125 -0.046875 C 0.367188 -0.046875 0.40625 -0.0546875 0.4375 -0.078125 C 0.46875 -0.0976562 0.492188 -0.125 0.515625 -0.15625 C 0.535156 -0.195312 0.546875 -0.238281 0.546875 -0.28125 Z M 0.546875 -0.28125 "/></g></g><g style="fill:#ffffff;fill-opacity:1;"><g transform="translate(188.687455, 178.958462)"><path style="stroke:none" d="M 0.140625 -0.546875 L 0.140625 -0.46875 C 0.148438 -0.5 0.164062 -0.519531 0.1875 -0.53125 C 0.21875 -0.550781 0.253906 -0.5625 0.296875 -0.5625 L 0.296875 -0.484375 C 0.242188 -0.484375 0.203125 -0.46875 0.171875 -0.4375 C 0.148438 -0.40625 0.140625 -0.367188 0.140625 -0.328125 L 0.140625 0 L 0.0625 0 L 0.0625 -0.546875 Z M 0.140625 -0.546875 "/></g></g><g style="fill:#ffffff;fill-opacity:1;"><g transform="translate(188.988519, 178.958462)"><path style="stroke:none" d="M 0.015625 -0.484375 L 0.015625 -0.546875 L 0.125 -0.546875 L 0.125 -0.734375 L 0.203125 -0.734375 L 0.203125 -0.546875 L 0.328125 -0.546875 L 0.328125 -0.484375 L 0.203125 -0.484375 L 0.203125 0 L 0.125 0 L 0.125 -0.484375 Z M 0.015625 -0.484375 "/></g></g></g></svg>