<svg xmlns="http://www.w3.org/2000/svg" xmlns:xlink="http://www.w3.org/1999/xlink" width="500" zoomAndPan="magnify" viewBox="0 0 375 374.999991" height="500" preserveAspectRatio="xMidYMid meet" version="1.2"><defs><clipPath id="bbba1c0cb0"><path d="M 28.125 54 L 343 54 L 343 325 L 28.125 325 Z M 28.125 54 "/></clipPath></defs><g id="21eecd84c1"><g clip-rule="nonzero" clip-path="url(#bbba1c0cb0)"><path style=" stroke:none;fill-rule:nonzero;fill:#ffffff;fill-opacity:1;" d="M 300.933594 132.796875 C 292.054688 110.535156 276.953125 91.292969 256.863281 77.210938 C 229.621094 58.085938 196.546875 50.734375 163.769531 56.5 C 119.902344 64.195312 85.398438 94.097656 69.785156 132.621094 C 58.582031 133.96875 48.347656 139.242188 40.6875 147.671875 C 32.242188 156.96875 27.914062 168.988281 28.511719 181.542969 C 29.550781 203.253906 45.175781 221.304688 66.515625 225.449219 C 71.3125 226.378906 76.023438 223.234375 76.953125 218.402344 C 77.242188 216.933594 77.152344 215.40625 76.691406 213.980469 C 75.128906 209.097656 73.886719 204.027344 72.992188 198.945312 C 62.136719 137.003906 103.675781 77.78125 165.609375 66.902344 C 227.519531 56.035156 286.765625 97.582031 297.628906 159.507812 C 300.871094 177.972656 299.53125 196.527344 293.964844 213.882812 C 293.949219 213.910156 293.921875 213.929688 293.914062 213.964844 C 293.902344 214.015625 293.914062 214.074219 293.902344 214.113281 C 290.425781 224.871094 285.351562 235.175781 278.667969 244.699219 C 262.136719 268.265625 237.824219 284.289062 209.882812 290.433594 C 206.464844 280.074219 196.816406 272.535156 185.316406 272.535156 C 170.988281 272.535156 159.320312 284.195312 159.320312 298.535156 C 159.320312 312.871094 170.972656 324.53125 185.316406 324.53125 C 198.808594 324.53125 209.8125 314.152344 211.066406 301 C 242.0625 294.464844 269.050781 276.828125 287.332031 250.777344 C 292.941406 242.769531 297.410156 234.234375 300.964844 225.371094 C 301.449219 225.449219 301.929688 225.597656 302.414062 225.597656 C 302.988281 225.597656 303.550781 225.546875 304.113281 225.441406 C 329.554688 220.496094 346.246094 195.78125 341.296875 170.339844 C 337.386719 150.171875 321.023438 135.285156 300.933594 132.796875 Z M 39.09375 181.027344 C 38.636719 171.304688 41.976562 161.980469 48.523438 154.777344 C 53.226562 149.601562 59.191406 145.964844 65.765625 144.152344 C 60.507812 161.972656 59.167969 181.246094 62.59375 200.75 C 63.40625 205.347656 64.484375 209.925781 65.792969 214.410156 C 50.675781 210.257812 39.855469 196.902344 39.09375 181.027344 Z M 185.316406 313.949219 C 176.816406 313.949219 169.894531 307.042969 169.894531 298.527344 C 169.894531 290.011719 176.800781 283.101562 185.316406 283.101562 C 193.832031 283.101562 200.742188 290.019531 200.742188 298.527344 C 200.742188 307.035156 193.824219 313.949219 185.316406 313.949219 Z M 304.796875 214.367188 C 310.164062 196.183594 311.417969 176.902344 308.054688 157.679688 C 307.246094 153.121094 306.152344 148.664062 304.875 144.28125 C 317.972656 147.902344 328.230469 158.527344 330.914062 172.34375 C 334.574219 191.136719 322.957031 209.386719 304.796875 214.367188 Z M 304.796875 214.367188 "/></g><g style="fill:#ffffff;fill-opacity:1;"><g transform="translate(185.671824, 178.958462)"><path style="stroke:none" d="M 0.1875 -0.5 C 0.164062 -0.5 0.144531 -0.488281 0.125 -0.46875 C 0.113281 -0.457031 0.109375 -0.441406 0.109375 -0.421875 C 0.109375 -0.398438 0.113281 -0.378906 0.125 -0.359375 C 0.144531 -0.347656 0.171875 -0.335938 0.203125 -0.328125 C 0.242188 -0.316406 0.273438 -0.300781 0.296875 -0.28125 C 0.328125 -0.257812 0.34375 -0.238281 0.34375 -0.21875 C 0.351562 -0.195312 0.359375 -0.175781 0.359375 -0.15625 C 0.359375 -0.101562 0.34375 -0.0625 0.3125 -0.03125 C 0.28125 0 0.238281 0.015625 0.1875 0.015625 C 0.15625 0.015625 0.125 0.0078125 0.09375 0 C 0.0703125 -0.0195312 0.0546875 -0.0390625 0.046875 -0.0625 C 0.0351562 -0.09375 0.03125 -0.125 0.03125 -0.15625 L 0.09375 -0.15625 C 0.09375 -0.125 0.0976562 -0.0976562 0.109375 -0.078125 C 0.128906 -0.0546875 0.15625 -0.046875 0.1875 -0.046875 C 0.21875 -0.046875 0.242188 -0.0507812 0.265625 -0.0625 C 0.285156 -0.0820312 0.296875 -0.109375 0.296875 -0.140625 C 0.296875 -0.171875 0.285156 -0.191406 0.265625 -0.203125 C 0.253906 -0.222656 0.234375 -0.238281 0.203125 -0.25 C 0.160156 -0.269531 0.128906 -0.285156 0.109375 -0.296875 C 0.0859375 -0.304688 0.0703125 -0.316406 0.0625 -0.328125 C 0.0507812 -0.347656 0.046875 -0.375 0.046875 -0.40625 C 0.046875 -0.445312 0.0546875 -0.484375 0.078125 -0.515625 C 0.109375 -0.546875 0.148438 -0.5625 0.203125 -0.5625 C 0.222656 -0.5625 0.242188 -0.550781 0.265625 -0.53125 C 0.296875 -0.519531 0.316406 -0.503906 0.328125 -0.484375 C 0.335938 -0.460938 0.34375 -0.4375 0.34375 -0.40625 L 0.28125 -0.40625 C 0.269531 -0.4375 0.257812 -0.457031 0.25 -0.46875 C 0.238281 -0.488281 0.21875 -0.5 0.1875 -0.5 Z M 0.1875 -0.5 "/></g></g><g style="fill:#ffffff;fill-opacity:1;"><g transform="translate(186.059905, 178.958462)"><path style="stroke:none" d="M 0.46875 -0.078125 C 0.457031 -0.046875 0.4375 -0.0195312 0.40625 0 C 0.375 0.0078125 0.335938 0.015625 0.296875 0.015625 C 0.253906 0.015625 0.210938 0.0078125 0.171875 0 C 0.140625 -0.0195312 0.113281 -0.046875 0.09375 -0.078125 C 0.0703125 -0.117188 0.0625 -0.171875 0.0625 -0.234375 L 0.0625 -0.546875 L 0.125 -0.546875 L 0.125 -0.234375 C 0.125 -0.109375 0.179688 -0.046875 0.296875 -0.046875 C 0.328125 -0.046875 0.351562 -0.0507812 0.375 -0.0625 C 0.40625 -0.0820312 0.425781 -0.109375 0.4375 -0.140625 C 0.457031 -0.171875 0.46875 -0.207031 0.46875 -0.25 L 0.46875 -0.546875 L 0.546875 -0.546875 L 0.546875 0 L 0.46875 0 Z M 0.46875 -0.078125 "/></g></g><g style="fill:#ffffff;fill-opacity:1;"><g transform="translate(186.668033, 178.958462)"><path style="stroke:none" d="M 0.140625 -0.546875 L 0.140625 -0.453125 C 0.160156 -0.484375 0.1875 -0.507812 0.21875 -0.53125 C 0.257812 -0.550781 0.300781 -0.5625 0.34375 -0.5625 C 0.40625 -0.5625 0.457031 -0.546875 0.5 -0.515625 C 0.539062 -0.492188 0.570312 -0.460938 0.59375 -0.421875 C 0.625 -0.378906 0.640625 -0.332031 0.640625 -0.28125 C 0.640625 -0.21875 0.625 -0.164062 0.59375 -0.125 C 0.570312 -0.0820312 0.539062 -0.046875 0.5 -0.015625 C 0.457031 0.00390625 0.40625 0.015625 0.34375 0.015625 C 0.300781 0.015625 0.257812 0.00390625 0.21875 -0.015625 C 0.1875 -0.0351562 0.160156 -0.0625 0.140625 -0.09375 L 0.140625 0.1875 L 0.0625 0.1875 L 0.0625 -0.546875 Z M 0.34375 -0.5 C 0.3125 -0.5 0.273438 -0.488281 0.234375 -0.46875 C 0.203125 -0.445312 0.175781 -0.414062 0.15625 -0.375 C 0.132812 -0.34375 0.125 -0.304688 0.125 -0.265625 C 0.125 -0.234375 0.132812 -0.195312 0.15625 -0.15625 C 0.175781 -0.125 0.203125 -0.0976562 0.234375 -0.078125 C 0.265625 -0.0546875 0.300781 -0.046875 0.34375 -0.046875 C 0.382812 -0.046875 0.421875 -0.0546875 0.453125 -0.078125 C 0.492188 -0.0976562 0.523438 -0.125 0.546875 -0.15625 C 0.566406 -0.1875 0.578125 -0.222656 0.578125 -0.265625 C 0.578125 -0.304688 0.566406 -0.34375 0.546875 -0.375 C 0.523438 -0.414062 0.492188 -0.445312 0.453125 -0.46875 C 0.421875 -0.488281 0.382812 -0.5 0.34375 -0.5 Z M 0.34375 -0.5 "/></g></g><g style="fill:#ffffff;fill-opacity:1;"><g transform="translate(187.350175, 178.958462)"><path style="stroke:none" d="M 0.140625 -0.546875 L 0.140625 -0.453125 C 0.160156 -0.484375 0.1875 -0.507812 0.21875 -0.53125 C 0.257812 -0.550781 0.300781 -0.5625 0.34375 -0.5625 C 0.40625 -0.5625 0.457031 -0.546875 0.5 -0.515625 C 0.539062 -0.492188 0.570312 -0.460938 0.59375 -0.421875 C 0.625 -0.378906 0.640625 -0.332031 0.640625 -0.28125 C 0.640625 -0.21875 0.625 -0.164062 0.59375 -0.125 C 0.570312 -0.0820312 0.539062 -0.046875 0.5 -0.015625 C 0.457031 0.00390625 0.40625 0.015625 0.34375 0.015625 C 0.300781 0.015625 0.257812 0.00390625 0.21875 -0.015625 C 0.1875 -0.0351562 0.160156 -0.0625 0.140625 -0.09375 L 0.140625 0.1875 L 0.0625 0.1875 L 0.0625 -0.546875 Z M 0.34375 -0.5 C 0.3125 -0.5 0.273438 -0.488281 0.234375 -0.46875 C 0.203125 -0.445312 0.175781 -0.414062 0.15625 -0.375 C 0.132812 -0.34375 0.125 -0.304688 0.125 -0.265625 C 0.125 -0.234375 0.132812 -0.195312 0.15625 -0.15625 C 0.175781 -0.125 0.203125 -0.0976562 0.234375 -0.078125 C 0.265625 -0.0546875 0.300781 -0.046875 0.34375 -0.046875 C 0.382812 -0.046875 0.421875 -0.0546875 0.453125 -0.078125 C 0.492188 -0.0976562 0.523438 -0.125 0.546875 -0.15625 C 0.566406 -0.1875 0.578125 -0.222656 0.578125 -0.265625 C 0.578125 -0.304688 0.566406 -0.34375 0.546875 -0.375 C 0.523438 -0.414062 0.492188 -0.445312 0.453125 -0.46875 C 0.421875 -0.488281 0.382812 -0.5 0.34375 -0.5 Z M 0.34375 -0.5 "/></g></g><g style="fill:#ffffff;fill-opacity:1;"><g transform="translate(188.032318, 178.958462)"><path style="stroke:none" d="M 0.046875 -0.265625 C 0.046875 -0.316406 0.0546875 -0.363281 0.078125 -0.40625 C 0.109375 -0.457031 0.144531 -0.492188 0.1875 -0.515625 C 0.226562 -0.546875 0.273438 -0.5625 0.328125 -0.5625 C 0.378906 -0.5625 0.425781 -0.546875 0.46875 -0.515625 C 0.507812 -0.492188 0.539062 -0.457031 0.5625 -0.40625 C 0.59375 -0.363281 0.609375 -0.320312 0.609375 -0.28125 C 0.609375 -0.226562 0.59375 -0.175781 0.5625 -0.125 C 0.539062 -0.0820312 0.507812 -0.046875 0.46875 -0.015625 C 0.425781 0.00390625 0.378906 0.015625 0.328125 0.015625 C 0.273438 0.015625 0.226562 0.00390625 0.1875 -0.015625 C 0.144531 -0.046875 0.109375 -0.0820312 0.078125 -0.125 C 0.0546875 -0.164062 0.046875 -0.210938 0.046875 -0.265625 Z M 0.546875 -0.28125 C 0.546875 -0.320312 0.535156 -0.359375 0.515625 -0.390625 C 0.492188 -0.421875 0.46875 -0.445312 0.4375 -0.46875 C 0.40625 -0.488281 0.367188 -0.5 0.328125 -0.5 C 0.285156 -0.5 0.25 -0.488281 0.21875 -0.46875 C 0.1875 -0.445312 0.160156 -0.414062 0.140625 -0.375 C 0.117188 -0.34375 0.109375 -0.304688 0.109375 -0.265625 C 0.109375 -0.234375 0.117188 -0.195312 0.140625 -0.15625 C 0.160156 -0.125 0.1875 -0.0976562 0.21875 -0.078125 C 0.25 -0.0546875 0.285156 -0.046875 0.328125 -0.046875 C 0.367188 -0.046875 0.40625 -0.0546875 0.4375 -0.078125 C 0.46875 -0.0976562 0.492188 -0.125 0.515625 -0.15625 C 0.535156 -0.195312 0.546875 -0.238281 0.546875 -0.28125 Z M 0.546875 -0.28125 "/></g></g><g style="fill:#ffffff;fill-opacity:1;"><g transform="translate(188.687455, 178.958462)"><path style="stroke:none" d="M 0.140625 -0.546875 L 0.140625 -0.46875 C 0.148438 -0.5 0.164062 -0.519531 0.1875 -0.53125 C 0.21875 -0.550781 0.253906 -0.5625 0.296875 -0.5625 L 0.296875 -0.484375 C 0.242188 -0.484375 0.203125 -0.46875 0.171875 -0.4375 C 0.148438 -0.40625 0.140625 -0.367188 0.140625 -0.328125 L 0.140625 0 L 0.0625 0 L 0.0625 -0.546875 Z M 0.140625 -0.546875 "/></g></g><g style="fill:#ffffff;fill-opacity:1;"><g transform="translate(188.988519, 178.958462)"><path style="stroke:none" d="M 0.015625 -0.484375 L 0.015625 -0.546875 L 0.125 -0.546875 L 0.125 -0.734375 L 0.203125 -0.734375 L 0.203125 -0.546875 L 0.328125 -0.546875 L 0.328125 -0.484375 L 0.203125 -0.484375 L 0.203125 0 L 0.125 0 L 0.125 -0.484375 Z M 0.015625 -0.484375 "/></g></g></g></svg>