<svg xmlns="http://www.w3.org/2000/svg" xmlns:xlink="http://www.w3.org/1999/xlink" width="500" zoomAndPan="magnify" viewBox="0 0 375 374.999991" height="500" preserveAspectRatio="xMidYMid meet" version="1.2"><defs><clipPath id="b513424c23"><path d="M 156 138 L 300 138 L 300 318.75 L 156 318.75 Z M 156 138 "/></clipPath><clipPath id="1d8f7c6be1"><path d="M 75 56.25 L 199 56.25 L 199 163 L 75 163 Z M 75 56.25 "/></clipPath><clipPath id="664e48cf55"><path d="M 128 56.25 L 232 56.25 L 232 83 L 128 83 Z M 128 56.25 "/></clipPath><clipPath id="16b54c295f"><path d="M 159 56.25 L 264 56.25 L 264 83 L 159 83 Z M 159 56.25 "/></clipPath></defs><g id="0e48f6a800"><g clip-rule="nonzero" clip-path="url(#b513424c23)"><path style=" stroke:none;fill-rule:evenodd;fill:#ffffff;fill-opacity:1;" d="M 289.976562 318.75 L 166.113281 318.75 C 160.726562 318.75 156.417969 314.441406 156.417969 309.054688 L 156.417969 148.109375 C 156.417969 142.722656 160.726562 138.414062 166.113281 138.414062 L 289.976562 138.414062 C 295.363281 138.414062 299.671875 142.722656 299.671875 148.109375 L 299.671875 309.054688 C 299.671875 314.441406 295.363281 318.75 289.976562 318.75 Z M 166.113281 144.570312 C 164.113281 144.570312 162.574219 146.109375 162.574219 148.109375 L 162.574219 309.054688 C 162.574219 311.054688 164.113281 312.59375 166.113281 312.59375 L 289.976562 312.59375 C 291.976562 312.59375 293.515625 311.054688 293.515625 309.054688 L 293.515625 148.109375 C 293.515625 146.109375 291.976562 144.570312 289.976562 144.570312 Z M 166.113281 144.570312 "/></g><path style=" stroke:none;fill-rule:evenodd;fill:#ffffff;fill-opacity:1;" d="M 268.742188 261.203125 L 187.347656 261.203125 C 180.882812 261.203125 175.652344 255.816406 175.652344 249.507812 L 175.652344 167.34375 C 175.652344 160.878906 180.882812 155.648438 187.347656 155.648438 L 268.742188 155.648438 C 275.207031 155.648438 280.4375 160.878906 280.4375 167.34375 L 280.4375 249.507812 C 280.4375 255.816406 275.207031 261.203125 268.742188 261.203125 Z M 187.347656 161.804688 C 184.269531 161.804688 181.808594 164.265625 181.808594 167.34375 L 181.808594 249.507812 C 181.808594 252.433594 184.269531 255.046875 187.347656 255.046875 L 268.742188 255.046875 C 271.820312 255.046875 274.28125 252.433594 274.28125 249.507812 L 274.28125 167.34375 C 274.28125 164.265625 271.820312 161.804688 268.742188 161.804688 Z M 187.347656 161.804688 "/><path style=" stroke:none;fill-rule:evenodd;fill:#ffffff;fill-opacity:1;" d="M 214.425781 301.515625 L 181.34375 301.515625 C 179.652344 301.515625 178.269531 300.132812 178.269531 298.4375 L 178.269531 273.359375 C 178.269531 271.667969 179.652344 270.28125 181.34375 270.28125 L 214.425781 270.28125 C 216.121094 270.28125 217.503906 271.667969 217.503906 273.359375 L 217.503906 298.4375 C 217.503906 300.132812 216.121094 301.515625 214.425781 301.515625 Z M 184.421875 295.363281 L 211.351562 295.363281 L 211.351562 276.4375 L 184.421875 276.4375 Z M 184.421875 295.363281 "/><path style=" stroke:none;fill-rule:evenodd;fill:#ffffff;fill-opacity:1;" d="M 274.742188 301.515625 L 241.660156 301.515625 C 239.96875 301.515625 238.585938 300.132812 238.585938 298.4375 L 238.585938 273.359375 C 238.585938 271.667969 239.96875 270.28125 241.660156 270.28125 L 274.742188 270.28125 C 276.4375 270.28125 277.820312 271.667969 277.820312 273.359375 L 277.820312 298.4375 C 277.820312 300.132812 276.4375 301.515625 274.742188 301.515625 Z M 244.738281 295.363281 L 271.667969 295.363281 L 271.667969 276.4375 L 244.738281 276.4375 Z M 244.738281 295.363281 "/><path style=" stroke:none;fill-rule:evenodd;fill:#ffffff;fill-opacity:1;" d="M 286.128906 144.570312 L 169.957031 144.570312 C 168.265625 144.570312 166.882812 143.1875 166.882812 141.492188 L 166.882812 123.335938 C 166.882812 121.644531 168.265625 120.257812 169.957031 120.257812 L 286.128906 120.257812 C 287.824219 120.257812 289.207031 121.644531 289.207031 123.335938 L 289.207031 141.492188 C 289.207031 143.1875 287.824219 144.570312 286.128906 144.570312 Z M 173.035156 138.414062 L 283.050781 138.414062 L 283.050781 126.414062 L 173.035156 126.414062 Z M 173.035156 138.414062 "/><path style=" stroke:none;fill-rule:evenodd;fill:#ffffff;fill-opacity:1;" d="M 237.660156 126.414062 L 218.425781 126.414062 C 216.734375 126.414062 215.351562 125.03125 215.351562 123.335938 L 215.351562 79.332031 C 215.351562 77.636719 216.734375 76.253906 218.425781 76.253906 L 237.660156 76.253906 C 239.355469 76.253906 240.738281 77.636719 240.738281 79.332031 L 240.738281 123.335938 C 240.738281 125.03125 239.355469 126.414062 237.660156 126.414062 Z M 221.503906 120.257812 L 234.582031 120.257812 L 234.582031 82.40625 L 221.503906 82.40625 Z M 221.503906 120.257812 "/><path style=" stroke:none;fill-rule:evenodd;fill:#ffffff;fill-opacity:1;" d="M 205.042969 126.414062 L 185.652344 126.414062 C 183.960938 126.414062 182.578125 125.03125 182.578125 123.335938 L 182.578125 79.332031 C 182.578125 77.636719 183.960938 76.253906 185.652344 76.253906 L 205.042969 76.253906 C 206.734375 76.253906 208.117188 77.636719 208.117188 79.332031 L 208.117188 123.335938 C 208.117188 125.03125 206.734375 126.414062 205.042969 126.414062 Z M 188.730469 120.257812 L 201.964844 120.257812 L 201.964844 82.40625 L 188.730469 82.40625 Z M 188.730469 120.257812 "/><path style=" stroke:none;fill-rule:evenodd;fill:#ffffff;fill-opacity:1;" d="M 270.433594 126.414062 L 251.046875 126.414062 C 249.355469 126.414062 247.96875 125.03125 247.96875 123.335938 L 247.96875 79.332031 C 247.96875 77.636719 249.355469 76.253906 251.046875 76.253906 L 270.433594 76.253906 C 272.128906 76.253906 273.511719 77.636719 273.511719 79.332031 L 273.511719 123.335938 C 273.511719 125.03125 272.128906 126.414062 270.433594 126.414062 Z M 254.125 120.257812 L 267.359375 120.257812 L 267.359375 82.40625 L 254.125 82.40625 Z M 254.125 120.257812 "/><g clip-rule="nonzero" clip-path="url(#1d8f7c6be1)"><path style=" stroke:none;fill-rule:evenodd;fill:#ffffff;fill-opacity:1;" d="M 90.253906 162.417969 C 89.792969 162.417969 89.484375 162.265625 89.023438 162.113281 C 80.714844 158.417969 75.328125 150.265625 75.328125 141.183594 L 75.328125 79.332031 C 75.328125 66.558594 85.792969 56.25 98.410156 56.25 L 175.5 56.25 C 188.269531 56.25 198.578125 66.558594 198.578125 79.332031 C 198.578125 81.023438 197.195312 82.40625 195.5 82.40625 C 193.808594 82.40625 192.421875 81.023438 192.421875 79.332031 C 192.421875 69.945312 184.882812 62.40625 175.5 62.40625 L 98.410156 62.40625 C 89.179688 62.40625 81.484375 69.945312 81.484375 79.332031 L 81.484375 141.183594 C 81.484375 147.800781 85.484375 153.804688 91.484375 156.417969 C 93.023438 157.1875 93.792969 159.035156 93.023438 160.574219 C 92.5625 161.648438 91.484375 162.417969 90.253906 162.417969 Z M 90.253906 162.417969 "/></g><g clip-rule="nonzero" clip-path="url(#664e48cf55)"><path style=" stroke:none;fill-rule:evenodd;fill:#ffffff;fill-opacity:1;" d="M 228.738281 82.40625 C 227.042969 82.40625 225.660156 81.023438 225.660156 79.332031 C 225.660156 69.945312 218.121094 62.40625 208.886719 62.40625 L 131.644531 62.40625 C 129.953125 62.40625 128.566406 61.019531 128.566406 59.328125 C 128.566406 57.636719 129.953125 56.25 131.644531 56.25 L 208.886719 56.25 C 221.503906 56.25 231.8125 66.558594 231.8125 79.332031 C 231.8125 81.023438 230.429688 82.40625 228.738281 82.40625 Z M 228.738281 82.40625 "/></g><g clip-rule="nonzero" clip-path="url(#16b54c295f)"><path style=" stroke:none;fill-rule:evenodd;fill:#ffffff;fill-opacity:1;" d="M 260.125 82.40625 C 258.433594 82.40625 257.046875 81.023438 257.046875 79.332031 C 257.046875 69.945312 249.507812 62.40625 240.125 62.40625 L 163.035156 62.40625 C 161.34375 62.40625 159.957031 61.019531 159.957031 59.328125 C 159.957031 57.636719 161.34375 56.25 163.035156 56.25 L 240.125 56.25 C 252.894531 56.25 263.203125 66.558594 263.203125 79.332031 C 263.203125 81.023438 261.820312 82.40625 260.125 82.40625 Z M 260.125 82.40625 "/></g><path style=" stroke:none;fill-rule:evenodd;fill:#ffffff;fill-opacity:1;" d="M 90.253906 208.734375 C 89.792969 208.734375 89.332031 208.734375 89.023438 208.578125 C 80.714844 204.886719 75.328125 196.578125 75.328125 187.652344 L 75.328125 125.644531 C 75.328125 123.953125 76.714844 122.566406 78.40625 122.566406 C 80.101562 122.566406 81.484375 123.953125 81.484375 125.644531 L 81.484375 187.652344 C 81.484375 194.269531 85.484375 200.117188 91.484375 202.886719 C 93.023438 203.65625 93.792969 205.347656 93.023438 206.886719 C 92.5625 208.117188 91.332031 208.734375 90.253906 208.734375 Z M 90.253906 208.734375 "/><path style=" stroke:none;fill-rule:evenodd;fill:#ffffff;fill-opacity:1;" d="M 90.253906 256.433594 C 89.792969 256.433594 89.484375 256.28125 89.023438 256.125 C 80.714844 252.433594 75.328125 244.277344 75.328125 235.199219 L 75.328125 173.34375 C 75.328125 171.652344 76.714844 170.265625 78.40625 170.265625 C 80.101562 170.265625 81.484375 171.652344 81.484375 173.34375 L 81.484375 235.199219 C 81.484375 241.816406 85.484375 247.816406 91.484375 250.585938 C 93.023438 251.203125 93.792969 253.046875 93.023438 254.585938 C 92.5625 255.664062 91.484375 256.433594 90.253906 256.433594 Z M 90.253906 256.433594 "/><path style=" stroke:none;fill-rule:evenodd;fill:#ffffff;fill-opacity:1;" d="M 123.492188 274.742188 C 117.027344 274.742188 111.027344 271.667969 107.179688 266.433594 L 99.179688 266.433594 C 92.5625 266.433594 87.175781 261.050781 87.175781 254.433594 C 87.175781 247.816406 92.5625 242.429688 99.179688 242.429688 L 107.179688 242.429688 C 111.027344 237.199219 117.027344 234.121094 123.492188 234.121094 C 134.722656 234.121094 143.800781 243.355469 143.800781 254.433594 C 143.800781 265.664062 134.722656 274.742188 123.492188 274.742188 Z M 99.179688 248.585938 C 95.949219 248.585938 93.332031 251.203125 93.332031 254.433594 C 93.332031 257.664062 95.949219 260.28125 99.179688 260.28125 L 108.71875 260.28125 C 109.796875 260.28125 110.875 260.894531 111.488281 261.820312 C 113.949219 266.125 118.566406 268.589844 123.492188 268.589844 C 131.339844 268.589844 137.648438 262.28125 137.648438 254.433594 C 137.648438 246.738281 131.339844 240.277344 123.492188 240.277344 C 118.566406 240.277344 113.949219 242.894531 111.488281 247.199219 C 110.875 248.125 109.796875 248.585938 108.71875 248.585938 Z M 99.179688 248.585938 "/><path style=" stroke:none;fill-rule:evenodd;fill:#ffffff;fill-opacity:1;" d="M 123.492188 226.273438 C 117.027344 226.273438 111.027344 223.199219 107.179688 217.964844 L 99.179688 217.964844 C 92.5625 217.964844 87.175781 212.582031 87.175781 206.117188 C 87.175781 199.5 92.5625 194.117188 99.179688 194.117188 L 107.179688 194.117188 C 111.027344 188.886719 117.027344 185.808594 123.492188 185.808594 C 134.722656 185.808594 143.800781 194.886719 143.800781 206.117188 C 143.800781 217.195312 134.722656 226.273438 123.492188 226.273438 Z M 99.179688 200.269531 C 95.949219 200.269531 93.332031 202.886719 93.332031 206.117188 C 93.332031 209.195312 95.949219 211.8125 99.179688 211.8125 L 108.71875 211.8125 C 109.796875 211.8125 110.875 212.425781 111.488281 213.351562 C 113.949219 217.660156 118.566406 220.121094 123.492188 220.121094 C 131.339844 220.121094 137.648438 213.8125 137.648438 206.117188 C 137.648438 198.269531 131.339844 191.960938 123.492188 191.960938 C 118.566406 191.960938 113.949219 194.425781 111.488281 198.730469 C 110.875 199.65625 109.796875 200.269531 108.71875 200.269531 Z M 99.179688 200.269531 "/><path style=" stroke:none;fill-rule:evenodd;fill:#ffffff;fill-opacity:1;" d="M 123.492188 180.730469 C 117.027344 180.730469 111.027344 177.652344 107.179688 172.421875 L 99.179688 172.421875 C 92.5625 172.421875 87.175781 167.035156 87.175781 160.417969 C 87.175781 153.804688 92.5625 148.417969 99.179688 148.417969 L 107.179688 148.417969 C 111.027344 143.1875 117.027344 140.109375 123.492188 140.109375 C 134.722656 140.109375 143.800781 149.1875 143.800781 160.417969 C 143.800781 171.652344 134.722656 180.730469 123.492188 180.730469 Z M 99.179688 154.570312 C 95.949219 154.570312 93.332031 157.1875 93.332031 160.417969 C 93.332031 163.648438 95.949219 166.265625 99.179688 166.265625 L 108.71875 166.265625 C 109.796875 166.265625 110.875 166.882812 111.488281 167.804688 C 113.949219 171.960938 118.566406 174.574219 123.492188 174.574219 C 131.339844 174.574219 137.648438 168.265625 137.648438 160.417969 C 137.648438 152.570312 131.339844 146.261719 123.492188 146.261719 C 118.566406 146.261719 113.949219 148.878906 111.488281 153.1875 C 110.875 154.109375 109.796875 154.570312 108.71875 154.570312 Z M 99.179688 154.570312 "/><path style=" stroke:none;fill-rule:evenodd;fill:#ffffff;fill-opacity:1;" d="M 193.808594 210.425781 C 192.886719 210.425781 192.117188 210.117188 191.5 209.503906 C 190.421875 208.117188 190.421875 206.273438 191.65625 205.042969 L 225.503906 173.34375 C 226.738281 172.113281 228.582031 172.113281 229.8125 173.34375 C 230.890625 174.574219 230.890625 176.574219 229.660156 177.804688 L 195.808594 209.503906 C 195.347656 210.117188 194.578125 210.425781 193.808594 210.425781 Z M 193.808594 210.425781 "/><path style=" stroke:none;fill-rule:evenodd;fill:#ffffff;fill-opacity:1;" d="M 228.582031 244.429688 C 227.660156 244.429688 226.890625 243.96875 226.273438 243.355469 C 225.199219 242.125 225.199219 240.277344 226.429688 239.046875 L 260.28125 207.195312 C 261.511719 206.117188 263.355469 206.117188 264.589844 207.347656 C 265.664062 208.578125 265.664062 210.582031 264.433594 211.65625 L 230.582031 243.507812 C 230.121094 244.125 229.351562 244.429688 228.582031 244.429688 Z M 228.582031 244.429688 "/><path style=" stroke:none;fill-rule:evenodd;fill:#ffffff;fill-opacity:1;" d="M 201.503906 236.429688 C 200.734375 236.429688 199.964844 236.121094 199.347656 235.507812 C 198.117188 234.121094 198.269531 232.277344 199.5 231.042969 L 252.433594 181.191406 C 253.664062 180.113281 255.664062 180.113281 256.742188 181.34375 C 257.972656 182.578125 257.816406 184.578125 256.585938 185.652344 L 203.65625 235.507812 C 203.039062 236.121094 202.269531 236.429688 201.503906 236.429688 Z M 201.503906 236.429688 "/><g style="fill:#000000;fill-opacity:1;"><g transform="translate(186.595509, 178.958462)"><path style="stroke:none" d="M 0.015625 -0.484375 L 0.015625 -0.546875 L 0.125 -0.546875 L 0.125 -0.734375 L 0.203125 -0.734375 L 0.203125 -0.546875 L 0.328125 -0.546875 L 0.328125 -0.484375 L 0.203125 -0.484375 L 0.203125 0 L 0.125 0 L 0.125 -0.484375 Z M 0.015625 -0.484375 "/></g></g><g style="fill:#000000;fill-opacity:1;"><g transform="translate(186.93458, 178.958462)"><path style="stroke:none" d="M 0.328125 -0.046875 C 0.367188 -0.046875 0.40625 -0.0546875 0.4375 -0.078125 C 0.476562 -0.109375 0.503906 -0.140625 0.515625 -0.171875 L 0.59375 -0.171875 C 0.570312 -0.117188 0.535156 -0.0703125 0.484375 -0.03125 C 0.429688 0 0.378906 0.015625 0.328125 0.015625 C 0.273438 0.015625 0.222656 0.00390625 0.171875 -0.015625 C 0.128906 -0.046875 0.09375 -0.0820312 0.0625 -0.125 C 0.0390625 -0.164062 0.03125 -0.210938 0.03125 -0.265625 C 0.03125 -0.316406 0.0390625 -0.363281 0.0625 -0.40625 C 0.09375 -0.457031 0.128906 -0.492188 0.171875 -0.515625 C 0.222656 -0.546875 0.273438 -0.5625 0.328125 -0.5625 C 0.378906 -0.5625 0.425781 -0.546875 0.46875 -0.515625 C 0.507812 -0.492188 0.539062 -0.457031 0.5625 -0.40625 C 0.59375 -0.363281 0.609375 -0.316406 0.609375 -0.265625 L 0.609375 -0.25 L 0.109375 -0.25 C 0.109375 -0.207031 0.117188 -0.171875 0.140625 -0.140625 C 0.160156 -0.117188 0.1875 -0.0976562 0.21875 -0.078125 C 0.25 -0.0546875 0.285156 -0.046875 0.328125 -0.046875 Z M 0.328125 -0.5 C 0.285156 -0.5 0.25 -0.488281 0.21875 -0.46875 C 0.195312 -0.457031 0.175781 -0.4375 0.15625 -0.40625 C 0.132812 -0.375 0.117188 -0.34375 0.109375 -0.3125 L 0.53125 -0.3125 C 0.519531 -0.363281 0.492188 -0.40625 0.453125 -0.4375 C 0.421875 -0.476562 0.378906 -0.5 0.328125 -0.5 Z M 0.328125 -0.5 "/></g></g><g style="fill:#000000;fill-opacity:1;"><g transform="translate(187.584715, 178.958462)"><path style="stroke:none" d="M 0.09375 0 L 0.015625 0 L 0.203125 -0.28125 L 0.015625 -0.546875 L 0.09375 -0.546875 L 0.234375 -0.34375 L 0.390625 -0.546875 L 0.46875 -0.546875 L 0.28125 -0.28125 L 0.46875 0 L 0.390625 0 L 0.234375 -0.21875 Z M 0.09375 0 "/></g></g><g style="fill:#000000;fill-opacity:1;"><g transform="translate(188.064816, 178.958462)"><path style="stroke:none" d="M 0.015625 -0.484375 L 0.015625 -0.546875 L 0.125 -0.546875 L 0.125 -0.734375 L 0.203125 -0.734375 L 0.203125 -0.546875 L 0.328125 -0.546875 L 0.328125 -0.484375 L 0.203125 -0.484375 L 0.203125 0 L 0.125 0 L 0.125 -0.484375 Z M 0.015625 -0.484375 "/></g></g></g></svg>